<?xml version="1.0" encoding="iso-8859-1"?>
<!-- Generator: Adobe Illustrator 19.0.0, SVG Export Plug-In . SVG Version: 6.00 Build 0)  -->
<svg version="1.1" id="Capa_1" xmlns="http://www.w3.org/2000/svg" xmlns:xlink="http://www.w3.org/1999/xlink" x="0px" y="0px"
	 viewBox="0 0 512.002 512.002" style="enable-background:new 0 0 512.002 512.002;" xml:space="preserve">
<polygon style="fill:#D4E1F4;" points="270.181,274.657 264.589,299.385 261.489,297.431 236.56,281.597 234.538,280.317 
	208.531,263.742 202.938,231.805 258.996,267.515 "/>
<polygon style="fill:#E3E7F2;" points="258.996,267.515 202.938,231.805 146.813,26.035 202.938,61.745 235.347,180.801 
	235.347,180.868 247.744,226.146 "/>
<linearGradient id="SVGID_1_" gradientUnits="userSpaceOnUse" x1="-17.7974" y1="583.8805" x2="4.5683" y2="561.5118" gradientTransform="matrix(6.7377 0 0 -6.7377 281.1217 4260.7412)">
	<stop  offset="0" style="stop-color:#D3DFF2"/>
	<stop  offset="0.172" style="stop-color:#D3DFF2"/>
	<stop  offset="0.2" style="stop-color:#D3DFF2"/>
	<stop  offset="0.2" style="stop-color:#DAE2F2"/>
	<stop  offset="0.201" style="stop-color:#EBEAF2"/>
	<stop  offset="0.201" style="stop-color:#F6EFF2"/>
	<stop  offset="0.202" style="stop-color:#FDF2F2"/>
	<stop  offset="0.205" style="stop-color:#FFF3F2"/>
	<stop  offset="0.252" style="stop-color:#FFF3F2"/>
	<stop  offset="0.26" style="stop-color:#FFF3F2"/>
	<stop  offset="0.26" style="stop-color:#D3DFF2"/>
	<stop  offset="0.397" style="stop-color:#D3DFF2"/>
	<stop  offset="0.42" style="stop-color:#D3DFF2"/>
	<stop  offset="0.42" style="stop-color:#DAE2F2"/>
	<stop  offset="0.421" style="stop-color:#EBEAF2"/>
	<stop  offset="0.421" style="stop-color:#F6EFF2"/>
	<stop  offset="0.422" style="stop-color:#FDF2F2"/>
	<stop  offset="0.425" style="stop-color:#FFF3F2"/>
	<stop  offset="0.489" style="stop-color:#FFF3F2"/>
	<stop  offset="0.5" style="stop-color:#FFF3F2"/>
	<stop  offset="0.5" style="stop-color:#F8F0F2"/>
	<stop  offset="0.5" style="stop-color:#E7E8F2"/>
	<stop  offset="0.5" style="stop-color:#DCE3F2"/>
	<stop  offset="0.5" style="stop-color:#D5E0F2"/>
	<stop  offset="0.501" style="stop-color:#D3DFF2"/>
	<stop  offset="0.706" style="stop-color:#D3DFF2"/>
	<stop  offset="0.74" style="stop-color:#D3DFF2"/>
	<stop  offset="0.741" style="stop-color:#FFF3F2"/>
	<stop  offset="0.835" style="stop-color:#FFF3F2"/>
	<stop  offset="0.85" style="stop-color:#FFF3F2"/>
	<stop  offset="0.851" style="stop-color:#D3DFF2"/>
</linearGradient>
<path style="fill:url(#SVGID_1_);" d="M236.56,309.963c-17.99-11.454-34.497-13.745-47.164-8.085
	c-15.766,6.805-25.738,25.671-25.738,53.834c0,50.87,32.678,112.857,72.902,138.528c19.607,12.397,37.394,13.947,50.466,6.333
	c6.178-3.625,11.198-8.927,14.486-15.295c5.68-11.434,8.409-24.101,7.951-36.855C309.462,397.553,276.784,335.499,236.56,309.963z
	 M261.152,427.806l8.624,43.121c-1.55-1.078-3.032-2.291-4.582-3.571l-0.067-0.067v-0.067
	c-11.326-9.399-21.244-20.382-29.444-32.611l-32.745-4.38l9.029-33.689l-25.873-47.838l29.646,14.486v0.067l5.66,2.695l15.16-27.625
	l3.706,11.589l2.628,8.085l0.067,0.135l8.826,27.153l35.238,27.625L261.152,427.806z"/>
<path style="fill:#EBECED;" d="M261.152,427.806l8.624,43.121c-1.55-1.078-3.032-2.291-4.582-3.571l-0.067-0.067v-0.067
	c-11.326-9.399-21.244-20.382-29.444-32.611l-32.745-4.38l9.029-33.689l-25.873-47.838l29.646,14.486v0.067l5.66,2.695l15.16-27.625
	l3.706,11.589l2.628,8.085l0.067,0.135l8.826,27.153l35.238,27.625L261.152,427.806z"/>
<path style="fill:#7FACFA;" d="M348.271,429.019c0,26.345-8.692,44.536-22.774,52.42l-0.27,0.067l-0.809,0.472l-1.078,0.472
	l-36.316,18.192v-0.067c6.178-3.625,11.198-8.927,14.486-15.295c5.68-11.434,8.409-24.101,7.951-36.855
	c0-50.87-32.678-112.924-72.902-138.46l24.93-12.532l3.099,1.954l13.812-6.872C317.278,319.126,348.271,379.362,348.271,429.019z"/>
<polygon style="fill:#D4E1F4;" points="326.306,140.24 295.919,212.94 295.919,213.007 281.905,246.561 281.905,246.628 
	275.369,262.125 275.369,262.193 270.181,274.657 258.996,267.515 247.744,226.146 235.347,180.868 235.347,180.801 
	251.787,135.995 251.787,135.927 260.681,111.672 260.681,111.604 264.589,100.959 "/>
<g>
	<polygon style="fill:#7FACFA;" points="365.116,120.768 334.796,193.535 334.796,193.602 320.781,227.089 320.781,227.156 
		309.058,255.185 270.181,274.657 275.369,262.193 275.369,262.125 281.905,246.628 281.905,246.561 295.919,213.007 
		295.919,212.94 326.306,140.24 	"/>
	<polygon style="fill:#7FACFA;" points="309.058,255.185 309.058,255.253 303.398,279.98 303.398,280.047 278.401,292.512 
		264.589,299.385 270.181,274.657 	"/>
</g>
<polygon style="fill:#E3E7F2;" points="241.748,42.273 202.938,61.745 146.813,26.035 185.69,6.63 "/>
<polygon style="fill:#7FACFA;" points="260.681,111.604 260.681,111.672 251.787,135.927 251.787,135.995 235.347,180.801 
	202.938,61.745 241.748,42.273 241.815,42.34 "/>
<polygon style="fill:#D4E1F4;" points="365.116,120.768 326.306,140.24 264.589,100.959 303.398,81.554 303.465,81.554 "/>
<polygon style="fill:#E3E7F2;" points="261.489,297.431 236.56,309.963 236.56,281.597 "/>
<path style="fill:#7FACFA;" d="M236.56,281.597v28.366c-17.99-11.454-34.497-13.745-47.164-8.085v-0.067l35.979-17.99l2.493-1.213
	c2.129-1.011,4.366-1.779,6.67-2.291L236.56,281.597z"/>
<g>
	<polygon style="fill:#FFFFFF;" points="223.152,245.281 228.609,276.544 208.531,263.742 202.938,231.805 146.813,26.035 
		185.69,6.63 241.748,42.273 241.815,42.34 242.017,43.082 205.903,20.106 167.026,39.511 	"/>
	<path style="fill:#FFFFFF;" d="M254.751,293.792c-2.304,0.512-4.541,1.28-6.67,2.291l-2.493,1.213l-35.979,17.99v0.067
		c-15.766,6.805-25.738,25.671-25.738,53.834c0,45.749,26.479,100.527,61.044,129.701c-2.877-1.381-5.666-2.938-8.355-4.649
		c-40.224-25.671-72.902-87.658-72.902-138.528c0-28.164,9.972-47.029,25.738-53.834v-0.067l35.979-17.99l2.493-1.213
		c1.907-0.937,3.921-1.637,5.997-2.089L254.751,293.792z"/>
	<path style="fill:#FFFFFF;" d="M234.538,280.317c-0.202,0.067-0.472,0.135-0.674,0.202l-5.121-3.301l-0.135-0.674L234.538,280.317z
		"/>
	<polygon style="fill:#FFFFFF;" points="153.335,24.283 176.365,108.795 209.413,230.054 196.41,233.598 163.361,112.339 
		140.331,27.827 	"/>
</g>
<g>
	<path style="fill:#428DFF;" d="M160.161,84.714c0.876,0.121,1.759,0.067,2.614-0.155c3.598-0.997,5.714-4.723,4.716-8.328
		c-0.472-1.705-1.597-3.16-3.126-4.049l-1.186-0.512c-0.431-0.148-0.876-0.236-1.334-0.27c-0.418-0.088-0.849-0.108-1.273-0.067
		c-0.451,0.04-0.896,0.121-1.334,0.222c-1.711,0.492-3.18,1.617-4.103,3.147c-1.88,3.147-0.849,7.23,2.298,9.109
		C158.267,84.31,159.197,84.62,160.161,84.714L160.161,84.714z"/>
	<path style="fill:#428DFF;" d="M276.339,472.309c0.02-0.263,0.027-0.519,0.02-0.782c0.088-0.613,0.088-1.226,0.007-1.839
		c-0.007-0.034,0.007-0.061,0-0.094l-7.668-38.371l21.709-12.485c3.227-1.86,4.339-5.983,2.479-9.21
		c-0.431-0.748-1.004-1.408-1.684-1.94l-33.668-26.311l-8.173-25.226c-0.047-0.148-0.101-0.296-0.162-0.438l-6.246-19.378
		c-0.829-2.56-3.099-4.38-5.774-4.636c-2.688-0.296-5.282,1.078-6.542,3.47L218.59,357.06l-29.545-14.385
		c-3.349-1.631-7.378-0.236-9.008,3.113c-0.95,1.954-0.903,4.252,0.135,6.158l24.62,45.426l-8.368,31.135
		c-0.964,3.591,1.166,7.29,4.757,8.254c0.283,0.074,0.573,0.135,0.869,0.175l29.909,3.955c8.079,11.69,17.7,22.228,28.602,31.337
		c0.088,0.081,0.162,0.148,0.243,0.216c1.536,1.334,3.079,2.527,4.676,3.672l0.067,0.054c0.108,0.074,0.209,0.168,0.317,0.249
		c0.323,0.195,0.667,0.371,1.017,0.505c0.229,0.135,0.472,0.249,0.721,0.357c0.687,0.243,1.415,0.364,2.143,0.377
		c0.445,0,0.889-0.04,1.327-0.135c0.357-0.115,0.701-0.256,1.024-0.431c0.337-0.108,0.667-0.249,0.984-0.411
		c0.694-0.404,1.314-0.937,1.819-1.57c0.101-0.121,0.256-0.168,0.35-0.303l0.04-0.094c0.276-0.465,0.492-0.957,0.654-1.476
		C276.103,472.942,276.231,472.632,276.339,472.309z M241.256,430.777c-0.04-0.054-0.094-0.081-0.135-0.128
		c-0.317-0.384-0.674-0.734-1.071-1.038c-0.256-0.27-0.539-0.512-0.835-0.741c-0.35-0.175-0.714-0.317-1.085-0.431
		c-0.438-0.209-0.903-0.364-1.374-0.472c-0.061-0.013-0.108-0.054-0.175-0.061l-25.145-3.328l7.075-26.311
		c0.445-1.671,0.236-3.443-0.586-4.959l-15.894-29.336l9.999,4.871c0.249,0.175,0.519,0.323,0.795,0.451l5.639,2.722
		c3.227,1.556,7.115,0.317,8.84-2.83l7.641-13.934l1.536,4.784c0.054,0.162,0.108,0.317,0.175,0.472l8.698,26.87
		c0.411,1.28,1.199,2.405,2.257,3.234l27.409,21.419l-17.228,9.911c-2.513,1.442-3.82,4.326-3.248,7.162l4.71,23.575
		C252.609,445.937,246.592,438.606,241.256,430.777L241.256,430.777z"/>
	<path style="fill:#428DFF;" d="M371.82,120.693c-0.067-0.842-0.249-1.664-0.532-2.459c-0.061-0.148-0.047-0.31-0.121-0.451
		c-0.081-0.168-0.236-0.263-0.33-0.424c-0.458-0.728-1.038-1.374-1.711-1.914c-0.135-0.101-0.222-0.249-0.364-0.337l-61.704-39.241
		c-0.222-0.101-0.451-0.189-0.681-0.263c-0.424-0.216-0.876-0.391-1.334-0.512c-0.418-0.094-0.842-0.155-1.267-0.162
		c-0.896-0.074-1.792,0.067-2.628,0.411c-0.236,0.047-0.472,0.115-0.701,0.189l-37.495,18.744L248.29,40.548
		c-0.101-0.249-0.222-0.499-0.357-0.734c-0.067-0.168-0.054-0.344-0.141-0.512c-0.074-0.148-0.209-0.229-0.29-0.371
		c-0.472-0.734-1.051-1.395-1.725-1.947c-0.141-0.101-0.229-0.256-0.371-0.35l-56.085-35.69c-0.263-0.121-0.526-0.222-0.802-0.303
		c-0.391-0.195-0.795-0.35-1.213-0.465c-0.842-0.175-1.705-0.222-2.56-0.128c-0.424,0.067-0.849,0.182-1.253,0.337
		c-0.276,0.054-0.552,0.128-0.822,0.222l-38.856,19.425c-0.148,0.074-0.229,0.209-0.371,0.29c-0.377,0.236-0.734,0.512-1.058,0.822
		c-0.344,0.29-0.654,0.613-0.93,0.963c-0.094,0.128-0.236,0.195-0.317,0.33c-0.108,0.236-0.202,0.485-0.283,0.734
		c-0.559,1.186-0.782,2.506-0.627,3.807c0.027,0.283,0.081,0.559,0.141,0.835l-0.04,0.013l7.088,26.001
		c0.95,3.598,4.642,5.741,8.24,4.791s5.741-4.642,4.791-8.24c-0.007-0.034-0.02-0.061-0.027-0.094l-2.506-9.197l39.18,24.923
		l50.816,186.446l-39.18-24.923l-34.133-125.241c-0.95-3.598-4.642-5.741-8.24-4.791c-3.598,0.95-5.741,4.642-4.791,8.24
		c0.007,0.034,0.02,0.061,0.027,0.094l34.733,127.437l5.559,31.634c0.33,1.866,1.422,3.504,3.019,4.521l15.072,9.588l-33.594,16.777
		c-0.101,0.054-0.162,0.142-0.256,0.202c-18.529,8.456-29.168,30.138-29.168,59.73c0,52.797,34.079,117.479,75.975,144.194
		c10.733,7.371,23.333,11.562,36.343,12.081c7.182,0.054,14.25-1.759,20.516-5.269c0.094-0.04,0.189-0.02,0.283-0.067l36.02-18.057
		l2.318-1.112l0,0c0.155-0.074,0.317-0.155,0.397-0.202c16.925-9.44,26.25-30.138,26.25-58.268
		c0-47.905-27.483-104.927-64.008-135.287l15.429-7.715c0.135-0.067,0.209-0.189,0.344-0.263c1.442-0.937,2.527-2.325,3.079-3.948
		c0.027-0.101,0.094-0.182,0.121-0.283l5.505-24.242l11.488-27.49c0.074-0.168,0.135-0.35,0.189-0.526l13.799-33.089
		c0.074-0.168,0.135-0.344,0.189-0.519l30.172-72.262c0.034-0.088,0.027-0.175,0.061-0.263c0.094-0.323,0.168-0.654,0.216-0.984
		C371.745,121.67,371.813,121.179,371.82,120.693z M328.563,190.88v0.007l-0.007,0.02c-0.074,0.168-0.135,0.35-0.189,0.526
		l-13.779,33.042l-0.013,0.034l-0.007,0.013c-0.074,0.162-0.135,0.344-0.189,0.519l-10.551,25.246l-20.415,10.208l4.71-11.299
		l0.027-0.061l43.391-104.017l20.395-10.201L328.563,190.88z M297.57,275.398l-23.259,11.629l1.765-7.796l23.259-11.629
		L297.57,275.398z M229.822,289.157v9.487c-3.45-1.657-7.021-3.045-10.686-4.15L229.822,289.157z M243.297,293.86l4.535,2.884
		l-4.535,2.277V293.86z M160.491,26.756l24.802-12.397l42.812,27.241l-24.802,12.397L160.491,26.756z M237.442,52.002l16.191,59.326
		l-7.998,21.857c-0.054,0.128-0.088,0.256-0.141,0.384l-9.184,25.098l-25.448-93.378L237.442,52.002z M303.041,89.289l48.438,30.798
		l-24.795,12.397l-30.353-19.31c-1.078-1.866-2.998-3.086-5.141-3.268l-12.923-8.22L303.041,89.289z M269.258,259.417l-0.101,0.249
		l-2.082,4.986l-2.264-1.442l-9.285-34.079l20.84,13.246L269.258,259.417z M289.794,210.191l-0.115,0.27l-8.052,19.304
		l-31.364-19.937l-7.816-28.683l25.603-69.992l49.832,31.701L289.794,210.191z M212.189,245.719l6.32,4.016l36.869,23.454
		l0.02,0.013l2.325,1.476l4.871,3.099l-2.453,10.821l-45.5-28.945L212.189,245.719z M240.158,488.553
		c-38.452-24.525-69.736-84.1-69.736-132.828c0-24.303,7.897-41.693,21.709-47.717c3.686-1.604,7.674-2.405,11.69-2.365
		c10.443,0.539,20.523,3.995,29.094,9.979c38.486,24.438,69.789,84.02,69.789,132.821c0.418,11.629-2.042,23.178-7.155,33.628
		c-2.688,5.269-6.819,9.669-11.912,12.687C272.337,501.362,256.894,499.152,240.158,488.553L240.158,488.553z M341.567,429.025
		c0,22.699-7.048,39.652-19.512,46.585l-1.388,0.674c-0.047,0.02-0.067,0.061-0.115,0.081l-9.898,4.945
		c3.867-10.511,5.741-21.655,5.532-32.86c0-48.896-29.181-107.804-66.703-137.463l11.596-5.815c0.357,0.195,0.728,0.357,1.112,0.485
		c0.195,0.074,0.371,0.189,0.566,0.243c0.532,0.142,1.078,0.222,1.631,0.229c0.067,0,0.135,0.027,0.209,0.027l0,0h0.007l0.034-0.007
		c0.869-0.007,1.725-0.175,2.527-0.499c0.074-0.034,0.121-0.108,0.202-0.148c0.081-0.034,0.168-0.02,0.249-0.061l10.073-5.04
		C313.174,326.774,341.567,383.418,341.567,429.025L341.567,429.025z"/>
</g>
<g>
</g>
<g>
</g>
<g>
</g>
<g>
</g>
<g>
</g>
<g>
</g>
<g>
</g>
<g>
</g>
<g>
</g>
<g>
</g>
<g>
</g>
<g>
</g>
<g>
</g>
<g>
</g>
<g>
</g>
</svg>
