<svg xmlns="http://www.w3.org/2000/svg" viewBox="0 0 95.181 90.9"><path d="M60.2 87.6c-2.8-.5-5-1.5-7.1-3-.5-.4-1.3-.9-2.1-1.3-.7-.4-1.3-.8-1.9-1.2-1.5-1-3.1-1.9-4.6-2.7H7.4c-1.5 0-2.7-1.2-2.7-2.7V12.3c0-.8.4-1.5 1.1-2 .4-.2.8-.4 1.3-.4h50.4c.3 0 .7.1.9.3.7.4 1.2 1.2 1.2 2v34.1l2 2.5c.8-.2 1.7-.4 2.7-.7V7.3c0-3-1.8-5.6-4.5-6.7C58.9.2 58 0 57 0H7.4c-1 0-2 .2-2.8.6C1.8 1.9 0 4.5 0 7.5v76.3c0 3.9 3.2 7.1 7.1 7.1h49.8c2.2 0 4.2-1 5.5-2.5-1.2-.5-2-.7-2.2-.8zM35.6 87h-7c-.7 0-1.3-.4-1.7-1-.1-.3-.2-.6-.2-.9s.1-.6.2-.9c.3-.6.9-1 1.7-1h7c.5 0 1 .2 1.3.6l.3.3c.2.3.3.6.3 1 0 1.1-.8 1.9-1.9 1.9zm59.2-10c.7 1.2.4 2.7-.6 3.5l-12.1 9.8c-2 1.6-4.8 1.6-6.9.1-6.3-4.8-14.2-6.5-14.2-6.5-2-.4-3.8-1-5.6-2.3-1.2-.9-3-1.8-4.2-2.6-3.1-2.1-6.5-3.9-10.2-5.1-1.6-.5-2-1.5-1.4-3.1.3-.8 1.2-1.8 2-2.2 1.8-.9 3.7-.8 5.4-.5 1.1.1 5.9 2.4 8 3.3 1.9.7 2.2-1 2-3-.1-1-.4-1.9-.9-2.8-4.2-7.8-8.6-15.4-12.9-23.1-1-1.7-.6-3.5.9-4.5s3.5-.7 4.7.8c1.7 2.1 3.3 4.2 4.9 6.3 1.5 1.9 3 3.9 4.6 5.9l1.9 2.3S71.3 49 84 52c.7.2 1.3.6 1.6 1.3 1.4 2.6 5.1 9.8 6 16.7.5 1.8 1.2 3.3 1.6 4.3l1.6 2.7z"/></svg>