<?xml version="1.0" encoding="iso-8859-1"?>
<!-- Generator: Adobe Illustrator 19.0.0, SVG Export Plug-In . SVG Version: 6.00 Build 0)  -->
<svg version="1.1" id="Capa_1" xmlns="http://www.w3.org/2000/svg" xmlns:xlink="http://www.w3.org/1999/xlink" x="0px" y="0px"
	 viewBox="0 0 511.985 511.985" style="enable-background:new 0 0 511.985 511.985;" xml:space="preserve">
<path style="fill:#E3E7F2;" d="M378.307,438.834c0.667,13.067-3.563,25.913-11.855,36.036h-0.067
	c-35.093,40.347-136.4,9.969-141.451,30.244c-5.658-29.233-130.876-133.368-150.747-221.068c-1.691-7.315-2.566-14.792-2.627-22.295
	c-0.323-18.988,3.732-37.794,11.855-54.964c5.119-10.979,11.047-20.275,15.829-29.772c0.337-0.674,0.674-1.347,1.01-2.021
	c5.234-10.124,8.002-21.339,8.083-32.736c0-42.233-30.648-81.099-30.648-81.099l24.518-35.093
	c5.119,5.254,10.036,10.171,14.886,14.751v0.067c53.415,50.451,91,59.207,107.84,56.042c29.947,38.892,74.067,64.367,122.726,70.86
	l24.518,63.451c0,0-30.648,3.368-30.648,45.601c0,26.202,14.145,57.928,24.922,93.291c1.28,4.244,2.56,8.554,3.705,12.933
	C375.283,401.222,378.024,419.974,378.307,438.834z"/>
<linearGradient id="SVGID_1_" gradientUnits="userSpaceOnUse" x1="-30.5984" y1="613.9284" x2="14.2587" y2="569.0743" gradientTransform="matrix(6.7358 0 0 -6.7358 281.0197 4259.3447)">
	<stop  offset="0" style="stop-color:#D3DFF2"/>
	<stop  offset="0.172" style="stop-color:#D3DFF2"/>
	<stop  offset="0.2" style="stop-color:#D3DFF2"/>
	<stop  offset="0.2" style="stop-color:#DAE2F2"/>
	<stop  offset="0.201" style="stop-color:#EBEAF2"/>
	<stop  offset="0.201" style="stop-color:#F6EFF2"/>
	<stop  offset="0.202" style="stop-color:#FDF2F2"/>
	<stop  offset="0.205" style="stop-color:#FFF3F2"/>
	<stop  offset="0.252" style="stop-color:#FFF3F2"/>
	<stop  offset="0.26" style="stop-color:#FFF3F2"/>
	<stop  offset="0.26" style="stop-color:#D3DFF2"/>
	<stop  offset="0.397" style="stop-color:#D3DFF2"/>
	<stop  offset="0.42" style="stop-color:#D3DFF2"/>
	<stop  offset="0.42" style="stop-color:#DAE2F2"/>
	<stop  offset="0.421" style="stop-color:#EBEAF2"/>
	<stop  offset="0.421" style="stop-color:#F6EFF2"/>
	<stop  offset="0.422" style="stop-color:#FDF2F2"/>
	<stop  offset="0.425" style="stop-color:#FFF3F2"/>
	<stop  offset="0.489" style="stop-color:#FFF3F2"/>
	<stop  offset="0.5" style="stop-color:#FFF3F2"/>
	<stop  offset="0.5" style="stop-color:#F8F0F2"/>
	<stop  offset="0.5" style="stop-color:#E7E8F2"/>
	<stop  offset="0.5" style="stop-color:#DCE3F2"/>
	<stop  offset="0.5" style="stop-color:#D5E0F2"/>
	<stop  offset="0.501" style="stop-color:#D3DFF2"/>
	<stop  offset="0.706" style="stop-color:#D3DFF2"/>
	<stop  offset="0.74" style="stop-color:#D3DFF2"/>
	<stop  offset="0.741" style="stop-color:#FFF3F2"/>
	<stop  offset="0.835" style="stop-color:#FFF3F2"/>
	<stop  offset="0.85" style="stop-color:#FFF3F2"/>
	<stop  offset="0.851" style="stop-color:#D3DFF2"/>
</linearGradient>
<path style="fill:url(#SVGID_1_);" d="M236.647,471.105c-8.231-11.161-19.958-24.68-35.72-42.631
	C160.135,382.011,98.496,311.791,98.496,261.737c0-27.832,8.224-42.496,17.749-59.477c8.938-15.937,19.069-34.002,19.069-60.023
	c-0.492-21.911-5.779-43.446-15.486-63.094c42.469,34.716,73.905,43.634,92.597,45.083c30.385,34.265,70.901,57.961,115.66,67.661
	l10.286,26.579c-12.926,11.04-23.797,29.442-23.797,58.386c0,23.434,8.285,47.79,17.062,73.575
	c9.713,28.526,19.756,58.022,19.756,88.434c0,17.358-4.991,31.726-66.388,31.726c-5.274,0-10.434-0.081-15.371-0.155
	c-4.796-0.074-9.396-0.141-13.694-0.141C249.492,470.169,243.053,470.445,236.647,471.105z"/>
<g>
	<path style="fill:#7FACFA;" d="M263.799,77.46l-38.865,19.466c-16.839,3.166-54.425-5.591-107.84-56.042v-0.067
		c-4.85-4.58-9.767-9.497-14.886-14.751l38.865-19.399C202.436,70.252,245.343,80.962,263.799,77.46z"/>
	<path style="fill:#7FACFA;" d="M386.458,148.387l-38.798,19.399c-48.659-6.493-92.779-31.968-122.726-70.86l38.865-19.466
		C293.713,116.379,337.812,141.881,386.458,148.387z"/>
	<polygon style="fill:#7FACFA;" points="410.983,211.838 393.867,220.393 372.185,231.237 347.666,167.786 386.464,148.387 	"/>
	<path style="fill:#7FACFA;" d="M417.173,419.435c0,35.969-22.7,50.047-50.72,55.435c8.292-10.124,12.522-22.969,11.855-36.036
		c0-63.316-36.777-119.762-36.777-161.995c0-42.233,30.648-45.601,30.648-45.601l21.689-10.845
		c-7.073,6.399-13.539,17.58-13.539,37.047C380.328,299.673,417.173,356.119,417.173,419.435z"/>
	<polygon style="fill:#7FACFA;" points="370.157,372.285 370.157,454.933 74.194,284.046 63.147,277.647 63.147,195.066 
		83.422,206.787 366.452,370.129 	"/>
	<path style="fill:#7FACFA;" d="M99.244,177.014c-4.782,9.497-10.71,18.793-15.829,29.772l-20.275-11.72l-1.01-2.425L99.244,177.014
		z"/>
</g>
<g>
	<polygon style="fill:#FFFFFF;" points="157.3,21.155 120.28,41.477 104.282,27.844 141.296,7.515 	"/>
	<path style="fill:#FFFFFF;" d="M248.913,497.301c-13.269,0.404-22.565,2.021-23.979,7.814
		C218.804,473.389,71.56,353.222,71.56,261.751c0-63.384,36.777-77.327,36.777-119.493c0-42.233-30.648-81.099-30.648-81.099
		l24.518-35.093c5.119,5.254,10.036,10.171,14.886,14.751v0.067c2.223,2.088,4.446,4.176,6.601,6.13l-14.617,20.881
		c0,0,30.648,38.865,30.648,81.099c0,42.166-36.777,56.109-36.777,119.493C102.949,349.316,217.861,452.508,248.913,497.301z"/>
</g>
<g>
	<path style="fill:#7FACFA;" d="M482.914,396.399l-72.342-41.762l-40.415,17.648l-3.705-2.155L83.415,206.787
		c5.119-10.979,11.047-20.275,15.829-29.772c0.337-0.674,0.674-1.347,1.01-2.021l-71.13-41.088l29.839,60.083l0.269,0.472
		l-30.109,25.798l34.016,19.601v37.788l11.047,6.399l295.97,170.887l40.415-17.648l72.342,41.762l-28.964-57.86L482.914,396.399z"/>
	<polygon style="fill:#7FACFA;" points="410.572,354.637 410.572,437.285 370.157,454.933 370.157,372.285 	"/>
</g>
<g>
	<path style="fill:#428DFF;" d="M106.317,110.532c1.98-1.899,2.566-4.823,1.482-7.342c-0.31-0.849-0.815-1.61-1.482-2.223
		c-2.647-2.566-6.85-2.566-9.497,0c-0.647,0.626-1.145,1.388-1.482,2.223c-1.091,2.519-0.498,5.443,1.482,7.342
		C99.446,113.139,103.69,113.139,106.317,110.532z"/>
	<path style="fill:#428DFF;" d="M156.815,156.605c-3.718,0-6.736,3.011-6.736,6.729v0.007v45.318c0,3.718,3.018,6.736,6.736,6.736
		c3.718,0,6.736-3.018,6.736-6.736v-45.318c0-3.718-3.011-6.736-6.729-6.736C156.821,156.605,156.821,156.605,156.815,156.605z"/>
	<path style="fill:#428DFF;" d="M183.758,189.496c3.718,0,6.736-3.011,6.736-6.729v-0.007v-25.892c0-3.718-3.018-6.736-6.736-6.736
		c-3.718,0-6.736,3.018-6.736,6.736v25.892c0,3.718,3.011,6.736,6.729,6.736C183.751,189.496,183.758,189.496,183.758,189.496z"/>
	<path style="fill:#428DFF;" d="M210.701,215.395c3.718,0,6.736-3.011,6.736-6.729v-0.007v-51.785c0-3.718-3.018-6.736-6.736-6.736
		c-3.718,0-6.736,3.018-6.736,6.736v51.785c0,3.718,3.011,6.736,6.729,6.736H210.701z"/>
	<path style="fill:#428DFF;" d="M489.596,395.799c-0.202-2.176-1.448-4.122-3.341-5.214l-72.322-41.755
		c-0.182-0.101-0.377-0.148-0.566-0.229c-0.216-0.101-0.431-0.195-0.66-0.269c-0.418-0.135-0.842-0.229-1.273-0.283
		c-2.93-9.565-6.029-18.894-9.093-27.886c-7.861-23.07-15.284-44.854-15.284-62.71c-0.93-11.606,3.045-23.063,10.952-31.604
		l16.011-8.009c0.29-0.189,0.566-0.404,0.822-0.64c0.37-0.236,0.721-0.505,1.037-0.808c0.283-0.33,0.532-0.687,0.741-1.064
		c0.525-0.68,0.842-1.502,0.909-2.358c0.094-0.411,0.148-0.828,0.162-1.253c-0.034-0.451-0.108-0.903-0.229-1.34
		c-0.034-0.33-0.088-0.667-0.168-0.99l-24.538-63.438c-0.047-0.128-0.135-0.222-0.195-0.344c-0.034-0.081-0.027-0.162-0.067-0.242
		c-0.061-0.115-0.168-0.189-0.236-0.296c-0.323-0.566-0.727-1.084-1.199-1.536c-0.121-0.115-0.216-0.242-0.337-0.344
		c-0.586-0.478-1.253-0.849-1.967-1.105c-0.175-0.061-0.35-0.088-0.532-0.141c-0.317-0.108-0.64-0.195-0.97-0.249
		c-46.793-6.318-89.209-30.83-118.051-68.213c-0.242-0.296-0.512-0.566-0.808-0.815c-0.128-0.121-0.229-0.256-0.357-0.364
		c-0.593-0.492-1.273-0.869-2.001-1.125c-0.155-0.054-0.31-0.067-0.465-0.108c-0.593-0.162-1.206-0.242-1.819-0.236
		c-0.229,0-0.458,0.007-0.687,0.034c-0.175,0.02-0.35-0.007-0.525,0.02c-19.594,3.732-61.834-12.111-116.623-68.88
		c-0.074-0.081-0.182-0.108-0.263-0.182c-0.364-0.31-0.754-0.586-1.179-0.808c-0.33-0.222-0.674-0.424-1.037-0.586
		c-0.404-0.128-0.822-0.216-1.246-0.263c-0.808-0.236-1.67-0.222-2.465,0.047c-0.458,0.074-0.909,0.195-1.347,0.364
		c-0.108,0.047-0.216,0.034-0.323,0.088L99.21,20.084c-0.04,0.02-0.067,0.061-0.108,0.081c-0.411,0.256-0.795,0.552-1.138,0.889
		c-0.364,0.269-0.701,0.579-1.004,0.916c-0.081,0.101-0.209,0.148-0.283,0.256L72.153,57.32c-1.711,2.445-1.61,5.719,0.249,8.049
		c4.5,5.968,8.548,12.266,12.097,18.847c1.785,3.26,5.874,4.459,9.134,2.674c3.26-1.785,4.459-5.874,2.674-9.134l0,0
		c-3.132-5.752-6.588-11.323-10.346-16.685L103.07,36.58c2.984,2.991,5.914,5.867,8.831,8.629c0.128,0.155,0.269,0.296,0.418,0.438
		l0.034,0.04l0.101,0.108c57.914,54.701,94.873,59.315,109.45,58.298c30.149,37.579,73.285,62.508,120.894,69.87l20.45,52.923
		c-10.804,4.385-28.479,16.658-28.479,49.966c0,20.153,7.793,43.069,16.051,67.324c1.273,3.745,2.566,7.571,3.853,11.417
		l-17.648-10.185c-8.197-24.188-15.728-47.076-15.728-68.557c0-22.881,7.409-41.311,21.42-53.273
		c2.176-1.859,2.944-4.89,1.906-7.564l-10.306-26.546c-0.829-2.129-2.681-3.691-4.91-4.156
		c-43.298-9.497-82.486-32.439-111.969-65.546c-1.159-1.32-2.795-2.129-4.547-2.263c-17.85-1.354-47.75-10.009-88.798-43.567
		c-2.883-2.351-7.12-1.926-9.477,0.956c-1.644,2.007-1.98,4.782-0.876,7.133c9.302,18.746,14.354,39.323,14.778,60.245
		c0,24.282-9.673,41.519-18.429,57.133c-2.149,3.86-4.169,7.632-6.109,11.451l-11.7-6.756c2.135-4.19,4.338-8.258,6.527-12.165
		c2.061-3.678,4.068-7.275,5.968-10.939l0.431-0.862c0.384-0.741,0.768-1.509,1.098-2.203c5.658-11.047,8.655-23.259,8.75-35.666
		c0.007-3.691-0.216-7.382-0.653-11.047c-0.445-3.698-3.806-6.325-7.497-5.88c-3.698,0.445-6.325,3.806-5.88,7.497
		c0.377,3.125,0.566,6.278,0.559,9.423c0,7.928-1.542,15.775-4.533,23.117l-64.576-37.303c-3.22-1.859-7.342-0.754-9.201,2.472
		c-1.125,1.953-1.199,4.338-0.202,6.359l27.401,55.166c-0.222,0.458-0.384,0.936-0.492,1.435l-25.259,21.642
		c-2.829,2.418-3.159,6.662-0.741,9.491c0.498,0.586,1.098,1.078,1.765,1.462l30.675,17.675v33.901c0,2.405,1.287,4.634,3.368,5.833
		l8.608,4.971c14.044,55.981,67.701,117.196,107.133,162.117c21.103,24.027,41.028,46.733,42.786,55.806
		c0.559,3.119,3.199,5.436,6.365,5.577l0.195,0.007c3.051,0.047,5.725-2.021,6.46-4.978c2.917-3.422,23.845-3.119,37.666-2.903
		c34.763,0.519,77.751,1.125,100.828-23.117c23.568-4.978,39.613-15.647,47.689-31.901l61.989,35.787
		c3.226,1.859,7.342,0.748,9.201-2.472c1.132-1.96,1.199-4.351,0.189-6.372l-26.573-53.139l24.929-21.352
		C488.929,400.11,489.798,397.975,489.596,395.799z M210.721,377.202c2.337-0.027,4.486-1.28,5.658-3.301l127.427,73.568
		c-1.967,7.409-10.656,16.354-58.79,16.354c-5.288,0-10.373-0.067-15.95-0.141c-4.594-0.067-8.992-0.128-13.148-0.128
		c-4.621,0-10.164,0-16.139,0.471c-8.049-10.568-18.826-22.969-33.807-40.051c-25.057-28.533-57.833-65.903-79.132-101.764
		l77.138,44.537v3.718c0,3.718,3.011,6.736,6.729,6.736C210.714,377.202,210.721,377.202,210.721,377.202z M69.91,273.787v-67.061
		l10.609,6.123l0.081,0.054l0.034,0.007l23.441,13.532l0.04,0.027l0.013,0.007l259.314,149.709v67.061L69.91,273.787z
		 M376.913,444.634V376.71l26.916-11.761v67.924L376.913,444.634z M122.267,36.506c-0.115-0.135-0.236-0.256-0.357-0.377
		l-0.061-0.067l-0.128-0.135c-2.694-2.546-5.416-5.22-8.17-7.968l26.195-13.094c44.611,45.291,77.946,61.929,99.434,67.412
		l-16.233,8.123C205.589,93.147,169.242,80.713,122.267,36.506z M235.415,99.23l26.478-13.249
		c26.552,32.386,62.858,55.328,103.509,65.398l-18.847,9.423C303.237,154.537,263.698,132.632,235.415,99.23L235.415,99.23z
		 M356.147,171.067l26.714-13.357l19.655,50.815l-26.734,13.37L356.147,171.067z M348.266,276.845
		c0-35.329,23.703-38.785,24.646-38.906c0.445-0.108,0.869-0.256,1.28-0.451c0.344-0.054,0.68-0.135,1.01-0.242l1.206-0.606
		c-1.947,6.763-2.896,13.768-2.829,20.807c0,20.086,7.773,42.9,16.004,67.048c3.085,9.06,6.204,18.429,9.114,27.994l-27.044,11.815
		c-2.627-8.386-5.375-16.57-8.069-24.478C355.716,316.661,348.266,294.769,348.266,276.845z M122.092,205.574
		c8.871-15.822,19.924-35.504,19.924-63.31c-0.115-14.697-2.499-29.287-7.079-43.25c32.338,22.524,57.416,29.873,74.215,31.665
		c30.338,33.335,70.066,56.708,113.942,67.041l7.329,18.88c-11.013,10.845-22.572,29.55-22.572,60.245
		c0.822,19.958,4.742,39.66,11.626,58.413l-102.02-58.904v-35.343c0-3.718-3.018-6.736-6.736-6.736
		c-3.718,0-6.736,3.018-6.736,6.736v27.563l-13.472-7.78v-45.655c0-3.718-3.018-6.736-6.736-6.736s-6.736,3.018-6.736,6.736v37.875
		l-61.349-35.417C117.653,213.704,119.748,209.797,122.092,205.574z M75.339,194.298l8.891-3.806
		c-1.219,2.216-2.411,4.506-3.617,6.85L75.339,194.298z M86.54,174.852l-24.384,10.427l-17.068-34.373L86.54,174.852z
		 M40.744,219.18l15.694-13.451v22.497L40.744,219.18z M269.221,490.632c-17.998-0.256-32.743-0.498-41.735,3.179
		c-6.655-11.794-20.814-28.189-41.809-52.101c-35.363-40.28-82.412-93.978-100.154-143.351l19.17,11.067
		c20.403,42.826,61.215,89.337,91.196,123.48c16.186,18.463,27.388,31.368,35.343,42.193c1.273,1.724,3.287,2.741,5.429,2.741
		c0.256,0,0.512-0.013,0.761-0.047c6.143-0.606,12.32-0.862,18.496-0.761c4.095,0,8.44,0.061,13.579,0.135
		c5.018,0.074,10.171,0.141,15.526,0.141c42.691,0,63.808-6.648,70.537-23.043l11.255,6.5c0.182,0.108,0.384,0.148,0.573,0.236
		c-1.414,3.213-3.28,6.21-5.53,8.905c-0.189,0.175-0.377,0.364-0.546,0.559C342.783,491.744,300.32,491.104,269.221,490.632z
		 M380.611,463.986c0.923-2.371,1.684-4.803,2.29-7.275l19.561-8.548C396.959,455.546,389.334,461.062,380.611,463.986z
		 M449.579,416.081c-2.351,2.014-3.024,5.362-1.644,8.13l18.901,37.774l-49.535-28.593V366.33l53.981,31.16L449.579,416.081z"/>
</g>
<g>
</g>
<g>
</g>
<g>
</g>
<g>
</g>
<g>
</g>
<g>
</g>
<g>
</g>
<g>
</g>
<g>
</g>
<g>
</g>
<g>
</g>
<g>
</g>
<g>
</g>
<g>
</g>
<g>
</g>
</svg>
