<?xml version="1.0" encoding="iso-8859-1"?>
<!-- Generator: Adobe Illustrator 19.0.0, SVG Export Plug-In . SVG Version: 6.00 Build 0)  -->
<svg version="1.1" id="Capa_1" xmlns="http://www.w3.org/2000/svg" xmlns:xlink="http://www.w3.org/1999/xlink" x="0px" y="0px"
	 viewBox="0 0 512 512" style="enable-background:new 0 0 512 512;" xml:space="preserve">
<path style="fill:#7FACFA;" d="M409.58,341.895c0,46.147-15.744,78.686-38.38,100.985c-2.58,2.587-5.295,5.039-8.138,7.343
	c-13.561,11.035-28.948,19.611-45.467,25.331c-0.074,0.067-0.162,0.115-0.263,0.135l-0.067,0.067
	c-25.93,17.644-56.205,27.85-87.525,29.507c-14.895-18.526-31.427-41.027-47.764-66.021c-2.755-4.177-5.443-8.421-8.199-12.733
	c-4.918-7.747-9.775-15.697-14.498-23.848c-1.576-2.627-3.085-5.255-4.595-7.949c-1.637-2.762-3.213-5.592-4.723-8.421
	c-2.493-4.312-4.857-8.758-7.215-13.204c-12.584-23.599-23.606-47.993-33.004-73.027c-2.035-5.524-3.934-10.981-5.706-16.438
	c-1.839-5.592-3.544-11.183-5.12-16.707l-0.391-1.415c-0.856-3.166-1.704-6.265-2.425-9.432c-0.141-0.438-0.249-0.889-0.33-1.347
	c-0.788-3.032-1.442-6.063-2.102-9.095c-1.314-6.265-2.425-12.531-3.348-18.728c-0.525-3.571-0.984-7.208-1.314-10.779
	c-0.195-1.886-0.391-3.84-0.525-5.794c-0.195-1.886-0.263-3.84-0.391-5.726c-0.128-1.617-0.195-3.166-0.195-4.783
	c-0.128-2.291-0.195-4.581-0.195-6.872c0-1.549,0-3.099,0.067-4.648c0-4.244,0.067-8.488,0.128-12.665
	c0.067-2.897,0.128-5.794,0.195-8.623c0.067-1.28,0.067-2.493,0.128-3.773c0.128-3.907,0.33-7.747,0.525-11.52
	c0.128-3.099,0.33-6.063,0.525-9.027c0.195-4.177,0.458-8.286,0.788-12.261c0.263-2.762,0.458-5.524,0.721-8.219
	c0.263-3.234,0.593-6.4,0.916-9.566c1.637-16.236,3.806-30.922,6.299-43.318c0.195-1.213,0.458-2.425,0.721-3.571
	c0.263-1.347,0.525-2.627,0.849-3.907c1.752-8.448,4.251-16.721,7.478-24.724c1.489-3.213,4.069-5.787,7.283-7.276l2.297-1.145
	l35.301-18.189l1.246-0.606c12.531-6.131,42.907-7.478,114.425,34.964c88.899,52.682,114.291,97.684,120.724,112.842
	c0.802,1.758,1.442,3.584,1.9,5.457C400.789,199.949,409.58,271.427,409.58,341.895z"/>
<path style="fill:#E3E7F2;" d="M370.776,361.364c0,3.705-0.135,7.411-0.337,10.914c-0.067,1.482-0.135,2.964-0.269,4.379
	c-1.502,23.438-9.095,46.08-22.029,65.684c-8.845,13.022-20.042,24.286-33.011,33.213c-0.074,0.074-0.168,0.121-0.27,0.135
	l-0.067,0.067c-26.779,17.691-57.816,27.884-89.869,29.507c-15.293-18.526-32.269-41.027-49.044-66.021
	c-2.829-4.177-5.592-8.421-8.421-12.733c-5.053-7.747-10.038-15.697-14.888-23.848c-1.617-2.627-3.166-5.255-4.716-7.949
	c-1.684-2.762-3.301-5.592-4.851-8.421c-2.493-4.379-4.985-8.758-7.411-13.204c-12.901-23.565-24.226-47.96-33.886-73.027
	c-2.088-5.524-4.042-10.981-5.861-16.438c-1.886-5.592-3.638-11.183-5.255-16.707l-0.404-1.415
	c-0.876-3.166-1.752-6.265-2.493-9.432c-0.141-0.438-0.256-0.889-0.337-1.347c-0.808-3.032-1.482-6.063-2.156-9.095
	c-1.347-6.265-2.493-12.531-3.436-18.728c-0.539-3.571-1.011-7.208-1.347-10.779c-0.202-1.886-0.404-3.84-0.539-5.794
	c-0.202-1.886-0.269-3.84-0.404-5.726c-0.135-1.617-0.202-3.166-0.202-4.783c-0.135-2.291-0.202-4.581-0.202-6.872
	c0-1.549,0-3.099,0.067-4.648c0-4.244,0.067-8.488,0.135-12.665c0.067-2.897,0.135-5.794,0.202-8.623
	c0.067-1.28,0.067-2.493,0.135-3.773c0.135-3.907,0.337-7.747,0.539-11.52c0.135-3.099,0.337-6.063,0.539-9.027
	c0.202-4.177,0.472-8.286,0.808-12.261c0.269-2.762,0.472-5.524,0.741-8.219c0.269-3.234,0.606-6.4,0.943-9.566
	c1.684-16.236,3.907-30.922,6.467-43.318c0.202-1.213,0.472-2.425,0.741-3.571c0.269-1.347,0.539-2.627,0.876-3.907
	c1.799-8.461,4.372-16.734,7.68-24.724c1.549-3.24,4.197-5.814,7.478-7.276l2.358-1.145c13.608-5.524,45.137-5.457,116.143,35.571
	c91.352,52.682,117.356,97.684,123.958,112.842c0.808,1.765,1.482,3.591,2.021,5.457
	C361.749,219.419,370.776,290.829,370.776,361.364z"/>
<linearGradient id="SVGID_1_" gradientUnits="userSpaceOnUse" x1="-32.2593" y1="615.8872" x2="10.8674" y2="572.7645" gradientTransform="matrix(6.7368 0 0 -6.7368 281.1031 4260.1577)">
	<stop  offset="0" style="stop-color:#D3DFF2"/>
	<stop  offset="0.172" style="stop-color:#D3DFF2"/>
	<stop  offset="0.2" style="stop-color:#D3DFF2"/>
	<stop  offset="0.2" style="stop-color:#DAE2F2"/>
	<stop  offset="0.201" style="stop-color:#EBEAF2"/>
	<stop  offset="0.201" style="stop-color:#F6EFF2"/>
	<stop  offset="0.202" style="stop-color:#FDF2F2"/>
	<stop  offset="0.205" style="stop-color:#FFF3F2"/>
	<stop  offset="0.252" style="stop-color:#FFF3F2"/>
	<stop  offset="0.26" style="stop-color:#FFF3F2"/>
	<stop  offset="0.26" style="stop-color:#D3DFF2"/>
	<stop  offset="0.397" style="stop-color:#D3DFF2"/>
	<stop  offset="0.42" style="stop-color:#D3DFF2"/>
	<stop  offset="0.42" style="stop-color:#DAE2F2"/>
	<stop  offset="0.421" style="stop-color:#EBEAF2"/>
	<stop  offset="0.421" style="stop-color:#F6EFF2"/>
	<stop  offset="0.422" style="stop-color:#FDF2F2"/>
	<stop  offset="0.425" style="stop-color:#FFF3F2"/>
	<stop  offset="0.489" style="stop-color:#FFF3F2"/>
	<stop  offset="0.5" style="stop-color:#FFF3F2"/>
	<stop  offset="0.5" style="stop-color:#F8F0F2"/>
	<stop  offset="0.5" style="stop-color:#E7E8F2"/>
	<stop  offset="0.5" style="stop-color:#DCE3F2"/>
	<stop  offset="0.5" style="stop-color:#D5E0F2"/>
	<stop  offset="0.501" style="stop-color:#D3DFF2"/>
	<stop  offset="0.706" style="stop-color:#D3DFF2"/>
	<stop  offset="0.74" style="stop-color:#D3DFF2"/>
	<stop  offset="0.741" style="stop-color:#FFF3F2"/>
	<stop  offset="0.835" style="stop-color:#FFF3F2"/>
	<stop  offset="0.85" style="stop-color:#FFF3F2"/>
	<stop  offset="0.851" style="stop-color:#D3DFF2"/>
</linearGradient>
<path style="fill:url(#SVGID_1_);" d="M236.746,477.009c-62.248-78.558-130.715-195.705-130.715-284.059
	c0-63.252,7.714-116.904,15.582-139.769c0.653-0.054,1.435-0.094,2.358-0.094c10.355,0,35.496,4.487,87.478,34.499
	c93.245,53.841,111.623,97.327,113.347,101.915l0.182,0.977l0.047-0.276c9.048,30.74,18.789,97.408,18.789,171.156
	C343.822,450.385,273.381,471.875,236.746,477.009z"/>
<g>
	<path style="fill:#7FACFA;" d="M409.58,341.895c0,77.945-46.215,117.086-94.451,133.659
		c31.528-21.895,55.646-57.869,55.646-114.189c0-70.535-9.027-141.945-19.874-178.796c-0.539-1.866-1.213-3.692-2.021-5.457
		l38.872-19.402c0.822,1.752,1.475,3.577,1.954,5.457C400.553,199.949,409.58,271.427,409.58,341.895z"/>
	<polygon style="fill:#7FACFA;" points="370.17,372.413 370.17,455.074 361.816,450.223 348.14,442.341 101.706,300.059 
		63.104,277.76 63.104,195.166 79.475,204.598 	"/>
	<path style="fill:#7FACFA;" d="M79.475,204.598l-16.371-9.432l16.034-6.872c-0.067,1.549-0.067,3.099-0.067,4.648
		c0,2.291,0.067,4.581,0.202,6.872C79.273,201.432,79.34,202.981,79.475,204.598z"/>
</g>
<g>
	<polygon style="fill:#FFFFFF;" points="178.506,13.642 141.488,33.967 125.481,20.325 162.506,0 	"/>
	<path style="fill:#FFFFFF;" d="M274.304,495.697c-15.973,5.329-32.573,8.542-49.381,9.566
		c-59.688-72.488-145.853-205.878-145.853-312.32c0-70.535,9.027-131.503,19.874-155.823c1.549-3.24,4.197-5.814,7.478-7.276
		l2.358-1.145c5.12-1.913,10.57-2.782,16.034-2.56c-1.758,1.314-3.146,3.052-4.042,5.053
		c-10.846,24.32-19.874,85.288-19.874,155.823c0,106.442,86.164,239.832,145.853,312.32
		C256.007,498.769,265.216,497.549,274.304,495.697z"/>
</g>
<g>
	<path style="fill:#7FACFA;" d="M482.944,396.531l-72.354-41.768l-40.421,17.651L79.475,204.598
		c-0.135-1.617-0.202-3.166-0.202-4.783c-0.135-2.291-0.202-4.581-0.202-6.872c0-1.549,0-3.099,0.067-4.648
		c0-4.244,0.067-8.488,0.135-12.665c0.067-2.897,0.135-5.794,0.202-8.623c0.067-1.28,0.067-2.493,0.135-3.773l-50.526-29.238
		l30.114,60.564l-30.114,25.802l34.021,19.604v37.794l38.602,22.299L348.14,442.341l13.676,7.882l8.354,4.851l40.421-17.651
		l72.354,41.768l-28.968-57.869L482.944,396.531z"/>
	<polygon style="fill:#7FACFA;" points="410.591,354.762 410.591,437.423 370.17,455.074 370.17,372.413 	"/>
</g>
<g>
	<path style="fill:#428DFF;" d="M80.553,81.516c-0.067,3.692,2.87,6.737,6.562,6.804c0.936,0.02,1.873-0.162,2.735-0.532
		c0.822-0.33,1.556-0.835,2.156-1.489c1.287-1.26,2.014-2.984,2.021-4.783c-0.007-0.883-0.189-1.752-0.539-2.56
		c-0.33-0.822-0.835-1.556-1.482-2.156c-0.62-0.627-1.347-1.132-2.156-1.482c-1.664-0.674-3.523-0.674-5.187,0
		c-0.808,0.35-1.543,0.849-2.156,1.482c-0.606,0.633-1.105,1.361-1.482,2.156C80.701,79.764,80.539,80.64,80.553,81.516z"/>
	<path style="fill:#428DFF;" d="M136.583,101.895c-3.719,0-6.737,3.011-6.737,6.73v0.007v59.702c0,3.719,3.018,6.737,6.737,6.737
		c3.719,0,6.737-3.018,6.737-6.737v-59.702c0-3.719-3.011-6.737-6.73-6.737H136.583z"/>
	<path style="fill:#428DFF;" d="M163.53,149.174c3.719,0,6.737-3.011,6.737-6.73v-0.007v-32.404c0-3.719-3.018-6.737-6.737-6.737
		s-6.737,3.018-6.737,6.737v32.404c0,3.719,3.011,6.737,6.73,6.737H163.53z"/>
	<path style="fill:#428DFF;" d="M190.478,175.07c3.719,0,6.737-3.011,6.737-6.73v-0.007v-51.793c0-3.719-3.018-6.737-6.737-6.737
		s-6.737,3.018-6.737,6.737v51.793c0,3.719,3.011,6.737,6.73,6.737H190.478z"/>
	<path style="fill:#428DFF;" d="M489.627,395.931c-0.202-2.176-1.448-4.123-3.341-5.214l-70.144-40.495
		c0.108-2.641,0.175-5.376,0.175-8.32c0-66.109-8.28-140.389-20.022-180.103c-0.566-2.331-1.354-4.595-2.371-6.771
		c-7.498-17.206-34.856-62.936-126.767-115.988C193.361-3.604,159.152-3.658,143.448,3.806c-0.061,0.027-0.121,0.02-0.175,0.047
		l-39.04,19.523c-5.032,2.156-9.101,6.077-11.453,11.015c-2.607,6.164-4.729,12.517-6.346,19.011
		c-0.943,3.597,1.213,7.283,4.817,8.226c3.597,0.943,7.283-1.213,8.226-4.817l0,0c1.482-5.969,3.436-11.81,5.834-17.469
		c1.617-2.237,3.928-3.874,6.582-4.648c10.981-4.083,39.842-4.911,109.669,35.416c90.92,52.433,115.712,97.213,121.142,109.683
		c0.687,1.516,1.267,3.079,1.745,4.669c11.513,39.161,19.571,111.757,19.591,176.627l-13.588-7.842
		c-0.66-70.993-10.2-135.04-18.951-164.958c-0.034-0.108-0.067-0.216-0.108-0.323c-0.067-0.296-0.162-0.593-0.269-0.876
		c-3.146-8.192-23.525-51.786-116.312-105.351c-50.742-29.251-77.427-35.389-90.873-35.389c-0.579,0-1.139,0.02-2.291,0.067
		c-2.877,0-5.437,1.826-6.366,4.547c-7.707,22.393-16,76.376-16,141.979c0,5.093,0.269,10.355,0.714,15.71l-13.918-8.037
		c-0.121-2.567-0.269-5.147-0.269-7.673c0-1.455,0-2.91,0.067-4.642v-0.034c0-8.401,0.202-16.734,0.465-24.771
		c0.714-18.978,2.068-37.329,4.015-54.548c0.418-3.699-2.243-7.033-5.942-7.451s-7.033,2.243-7.451,5.942
		c-1.597,14.141-2.776,29.049-3.564,44.423l-40.933-23.693c-3.22-1.866-7.336-0.768-9.203,2.445c-1.139,1.96-1.213,4.352-0.202,6.38
		l27.776,55.869l-26.132,22.38c-2.829,2.419-3.16,6.663-0.741,9.492c0.499,0.586,1.098,1.078,1.765,1.462l30.673,17.677v33.907
		c0,2.405,1.287,4.635,3.368,5.834l36.554,21.107c36.716,95.569,103.633,180.824,123.412,204.827
		c1.273,1.549,3.18,2.452,5.187,2.452c0.135,0,0.269-0.007,0.411-0.013c33.078-1.738,65.098-12.214,92.807-30.363
		c15.838-5.423,30.72-13.312,44.093-23.384l4.595,2.654c0.323,0.162,0.653,0.303,0.997,0.411c0.182,0.067,0.357,0.175,0.546,0.229
		c0.593,0.168,1.206,0.263,1.826,0.263l0,0l0,0h0.007c0.822-0.02,1.63-0.189,2.392-0.505c0.094-0.034,0.195-0.02,0.29-0.061
		l37.268-16.283l69.396,40.064c3.227,1.859,7.343,0.748,9.202-2.472c1.132-1.96,1.199-4.352,0.189-6.373l-26.577-53.147
		l24.933-21.356C488.96,400.243,489.823,398.107,489.627,395.931z M376.927,376.832l26.92-11.763v67.934l-26.92,11.762V376.832z
		 M228.292,58.435c-36.325-20.979-66.035-33.502-88.899-37.578l8.643-4.325l1.159-0.552c8.448-4.015,36.163-8.67,111.225,34.722
		c80.155,46.262,108.908,86.501,118.326,103.956l-26.806,13.4C341.087,147.517,310.616,105.917,228.292,58.435z M357.309,180.446
		l26.523-13.258c11.224,39.599,19.018,110.861,19.018,174.707c0,3.24-0.094,6.184-0.236,9.021l-25.115,10.974
		c0-0.175,0.013-0.344,0.013-0.525c0-66.082-8.28-140.382-20.069-180.44L357.309,180.446z M112.755,192.943
		c0-59.864,6.905-109.346,13.817-133.012c9.883,0.748,33.866,6.023,81.516,33.489c87.323,50.412,107.257,90.806,110.188,97.832
		l0.02,0.135c0.101,0.741,0.33,1.462,0.687,2.122c8.057,28.49,16.674,86.548,17.9,151.909l-139.648-80.627v-64.101
		c0-3.719-3.018-6.737-6.737-6.737c-3.719,0-6.737,3.018-6.737,6.737v56.32l-19.005-10.974c3.166-0.546,5.484-3.281,5.511-6.488
		v-64.741c0-3.719-3.018-6.737-6.737-6.737s-6.737,3.018-6.737,6.737v64.741c0.027,0.734,0.168,1.455,0.431,2.142l-42.739-24.677
		C113.388,209.037,112.809,200.994,112.755,192.943z M45.077,151.033l27.688,16.027c-0.168,5.571-0.276,11.183-0.317,16.775
		l-9.122,3.907L45.077,151.033z M40.704,219.284l15.697-13.453v22.501L40.704,219.284z M69.875,206.821l293.578,169.492v67.072
		L69.875,273.893V206.821z M314.793,430.855c-21.491,26.024-54.508,35.496-75.156,38.919c-32.108-40.744-60.18-84.52-83.813-130.701
		L314.793,430.855z M115.234,315.641l19.847,11.459c26.146,54.892,58.496,106.604,96.424,154.119c1.273,1.61,3.22,2.553,5.275,2.553
		c0.317,0,0.633-0.02,0.95-0.067c22.589-3.213,63.158-13.507,88.832-46.053l11.682,6.744c-7.545,9.822-16.573,18.419-26.752,25.479
		c-0.222,0.135-0.445,0.276-0.66,0.424c-24.758,16.317-53.315,25.964-82.904,27.998
		C207.414,473.108,150.771,399.609,115.234,315.641z M449.604,416.209c-2.351,2.014-3.025,5.363-1.644,8.131l18.904,37.78
		l-49.543-28.598v-67.072l53.989,31.165L449.604,416.209z"/>
</g>
<g>
</g>
<g>
</g>
<g>
</g>
<g>
</g>
<g>
</g>
<g>
</g>
<g>
</g>
<g>
</g>
<g>
</g>
<g>
</g>
<g>
</g>
<g>
</g>
<g>
</g>
<g>
</g>
<g>
</g>
</svg>
