<svg xmlns="http://www.w3.org/2000/svg" data-name="Layer 1" viewBox="0 0 32.01 21"><defs><clipPath id="a"><path fill="#5aafff" d="M0 0h32.01v21H0z"/></clipPath></defs><g clip-path="url(#a)"><path fill="#fff" fill-rule="evenodd" d="M31.91 19.58L26.35 7.66l-2.1 4.51 3.85 8.26a1.9 1.9 0 0 0 1.33.58h1.52a1 1 0 0 0 .48-.08 1 1 0 0 0 .48-1.33m-23.27-6L7 14.5l1.63.88.89 1.62.87-1.63L12 14.5l-1.62-.87L9.52 12zM15.49 7l1.22-2.28L19 3.5l-2.29-1.22L15.49 0l-1.23 2.28L12 3.5l2.28 1.22zm9.74-1.66v-.05l-.03-.11V5.1a1 1 0 0 0-.2-.28h-.07a.93.93 0 0 0-.16-.12h-.28a1 1 0 0 0-.23 0h-.18l-3.59.63-2 1.33-.66.98 4.71-.83L16.86 19h-14l2.47-3.8L4 14.5 6.7 13l2.53-3.84 4.31-.76-1-1.85-4.1.72a1 1 0 0 0-.61.42L.16 19.45a.77.77 0 0 0 0 .09 1 1 0 0 0-.07.17 1 1 0 0 0 0 .21L0 20v.1a1 1 0 0 0 0 .19.89.89 0 0 0 .08.19l.09.13a.94.94 0 0 0 .17.16l.06.06h.06a1 1 0 0 0 .23.09L.9 21h16.6a.94.94 0 0 0 .16 0 .93.93 0 0 0 .2 0 1 1 0 0 0 .22-.13l.1-.07a1 1 0 0 0 .21-.28l6.77-14.6a1 1 0 0 0 .06-.58"/></g></svg>