<svg xmlns="http://www.w3.org/2000/svg" xmlns:xlink="http://www.w3.org/1999/xlink" version="1.2" baseProfile="tiny" x="0px" y="0px" viewBox="0 0 128 160" xml:space="preserve"><g><path fill="none" stroke="#000000" stroke-width="4" stroke-linecap="round" stroke-linejoin="round" stroke-miterlimit="10" d="   M71.5,56.3c2.1,2,3.4,4.8,3.4,7.9C74.9,70.2,70,75,64,75s-10.9-4.9-10.9-10.9S58,53.3,64,53.3c0.1,0,0.2,0,0.3,0"/></g><path fill="none" stroke="#000000" stroke-width="4" stroke-linecap="round" stroke-linejoin="round" stroke-miterlimit="10" d="  M84.8,13.9L84.8,13.9c1.8,0.8,2.7,2.9,2,4.7L67.4,65.5c-0.8,1.8-2.9,2.7-4.7,2h0c-1.8-0.8-2.7-2.9-2-4.7l19.4-46.9  C80.9,14,83,13.1,84.8,13.9z"/><path fill="none" stroke="#000000" stroke-width="4" stroke-linecap="round" stroke-linejoin="round" stroke-miterlimit="10" d="  M77.5,21.2c-4.3-1.3-8.8-2.1-13.5-2.1c-24.9,0-45,20.1-45,45c0,6.7,1.5,13.1,4.1,18.9"/><path fill="none" stroke="#000000" stroke-width="4" stroke-linecap="round" stroke-linejoin="round" stroke-miterlimit="10" d="  M104.9,83c2.7-5.7,4.1-12.1,4.1-18.9c0-17.3-9.8-32.3-24.1-39.9"/><path fill="none" stroke="#000000" stroke-width="4" stroke-linecap="round" stroke-linejoin="round" stroke-miterlimit="10" d="  M64,25"/><path fill="none" stroke="#000000" stroke-width="4" stroke-linecap="round" stroke-linejoin="round" stroke-miterlimit="10" d="  M57.2,25.6"/><line fill="none" stroke="#000000" stroke-width="4" stroke-linecap="round" stroke-linejoin="round" stroke-miterlimit="10" x1="57.9" y1="29.8" x2="57.2" y2="25.6"/><path fill="none" stroke="#000000" stroke-width="4" stroke-linecap="round" stroke-linejoin="round" stroke-miterlimit="10" d="  M50.6,27.3"/><path fill="none" stroke="#000000" stroke-width="4" stroke-linecap="round" stroke-linejoin="round" stroke-miterlimit="10" d="  M44.4,30.2"/><line fill="none" stroke="#000000" stroke-width="4" stroke-linecap="round" stroke-linejoin="round" stroke-miterlimit="10" x1="46.5" y1="33.9" x2="44.4" y2="30.2"/><path fill="none" stroke="#000000" stroke-width="4" stroke-linecap="round" stroke-linejoin="round" stroke-miterlimit="10" d="  M38.8,34.1"/><line fill="none" stroke="#000000" stroke-width="4" stroke-linecap="round" stroke-linejoin="round" stroke-miterlimit="10" x1="37.2" y1="41.7" x2="34" y2="39"/><path fill="none" stroke="#000000" stroke-width="4" stroke-linecap="round" stroke-linejoin="round" stroke-miterlimit="10" d="  M97.9,83.7"/><path fill="none" stroke="#000000" stroke-width="4" stroke-linecap="round" stroke-linejoin="round" stroke-miterlimit="10" d="  M27.2,50.7"/><path fill="none" stroke="#000000" stroke-width="4" stroke-linecap="round" stroke-linejoin="round" stroke-miterlimit="10" d="  M100.8,77.6"/><line fill="none" stroke="#000000" stroke-width="4" stroke-linecap="round" stroke-linejoin="round" stroke-miterlimit="10" x1="31.2" y1="52.2" x2="27.2" y2="50.7"/><line fill="none" stroke="#000000" stroke-width="4" stroke-linecap="round" stroke-linejoin="round" stroke-miterlimit="10" x1="100.8" y1="77.6" x2="96.7" y2="76.1"/><path fill="none" stroke="#000000" stroke-width="4" stroke-linecap="round" stroke-linejoin="round" stroke-miterlimit="10" d="  M25.4,57.3"/><path fill="none" stroke="#000000" stroke-width="4" stroke-linecap="round" stroke-linejoin="round" stroke-miterlimit="10" d="  M102.6,71"/><path fill="none" stroke="#000000" stroke-width="4" stroke-linecap="round" stroke-linejoin="round" stroke-miterlimit="10" d="  M24.8,64.2"/><path fill="none" stroke="#000000" stroke-width="4" stroke-linecap="round" stroke-linejoin="round" stroke-miterlimit="10" d="  M103.2,64.2"/><line fill="none" stroke="#000000" stroke-width="4" stroke-linecap="round" stroke-linejoin="round" stroke-miterlimit="10" x1="29.1" y1="64.2" x2="24.8" y2="64.2"/><line fill="none" stroke="#000000" stroke-width="4" stroke-linecap="round" stroke-linejoin="round" stroke-miterlimit="10" x1="103.2" y1="64.2" x2="98.8" y2="64.2"/><path fill="none" stroke="#000000" stroke-width="4" stroke-linecap="round" stroke-linejoin="round" stroke-miterlimit="10" d="  M102.6,57.3"/><path fill="none" stroke="#000000" stroke-width="4" stroke-linecap="round" stroke-linejoin="round" stroke-miterlimit="10" d="  M100.8,50.7"/><line fill="none" stroke="#000000" stroke-width="4" stroke-linecap="round" stroke-linejoin="round" stroke-miterlimit="10" x1="31.2" y1="76.1" x2="27.2" y2="77.6"/><line fill="none" stroke="#000000" stroke-width="4" stroke-linecap="round" stroke-linejoin="round" stroke-miterlimit="10" x1="100.8" y1="50.7" x2="96.7" y2="52.2"/><path fill="none" stroke="#000000" stroke-width="4" stroke-linecap="round" stroke-linejoin="round" stroke-miterlimit="10" d="  M97.9,44.6"/><path fill="none" stroke="#000000" stroke-width="4" stroke-linecap="round" stroke-linejoin="round" stroke-miterlimit="10" d="  M94,39"/><line fill="none" stroke="#000000" stroke-width="4" stroke-linecap="round" stroke-linejoin="round" stroke-miterlimit="10" x1="94" y1="39" x2="90.7" y2="41.8"/><path fill="none" stroke="#000000" stroke-width="4" stroke-linecap="round" stroke-linejoin="round" stroke-miterlimit="10" d="  M89.2,34.1"/><circle fill="none" stroke="#000000" stroke-width="4" stroke-linecap="round" stroke-linejoin="round" stroke-miterlimit="10" cx="64" cy="64" r="62"/><text x="0" y="143" fill="#000000" font-size="5px" font-weight="bold" font-family="'Helvetica Neue', Helvetica, Arial-Unicode, Arial, Sans-serif">Created by Juraj Sedlák</text><text x="0" y="148" fill="#000000" font-size="5px" font-weight="bold" font-family="'Helvetica Neue', Helvetica, Arial-Unicode, Arial, Sans-serif">from the Noun Project</text></svg>