<svg xmlns="http://www.w3.org/2000/svg" xmlns:xlink="http://www.w3.org/1999/xlink" version="1.2" baseProfile="tiny" x="0px" y="0px" viewBox="0 0 128 160" xml:space="preserve"><g><g><path fill="none" stroke="#000000" stroke-width="4" stroke-linecap="round" stroke-linejoin="round" stroke-miterlimit="10" d="    M105.2,77.3l15-17.8c3.7-5.2,6-11.6,6-18.5c0-17.7-14.3-32-32-32c-5.6,0-10.9,1.4-15.4,4"/><path fill="none" stroke="#000000" stroke-width="4" stroke-linecap="round" stroke-linejoin="round" stroke-miterlimit="10" d="    M52.3,112.1l1.2,1.4c6.5,8,10.6,8,10.6,8s4.1,0,10.6-8l1.2-1.5"/><path fill="none" stroke="#000000" stroke-width="4" stroke-linecap="round" stroke-linejoin="round" stroke-miterlimit="10" d="    M57.5,19.5C51.7,13,43.4,9,34,9C16.3,9,2,23.3,2,41c0,6.9,2.3,13.3,6,18.5l14.6,17.4"/></g></g><g><g><ellipse transform="matrix(0.7071 -0.7071 0.7071 0.7071 -32.2329 66.3706)" fill="none" stroke="#000000" stroke-width="4" stroke-linecap="round" stroke-linejoin="round" stroke-miterlimit="10" cx="64" cy="72.1" rx="21.9" ry="21.9"/></g><g><ellipse transform="matrix(0.7071 -0.7071 0.7071 0.7071 -32.2329 66.3706)" fill="none" stroke="#000000" stroke-width="4" stroke-linecap="round" stroke-linejoin="round" stroke-miterlimit="10" cx="64" cy="72.1" rx="13.6" ry="13.6"/></g><path fill="none" stroke="#000000" stroke-width="4" stroke-linecap="round" stroke-linejoin="round" stroke-miterlimit="10" d="   M67.2,5.9c-2.1,2.1,0,4.3,0,4.3l-5.3,5.3L34.7,42.8c-16.2,16.2-16.2,42.5,0,58.7s42.5,16.2,58.7,0s16.2-42.5,0-58.7   c-2.4-2.4-4.6-4.1-7.3-5.8l3.6-4.4c0,0,2.1,2.1,4.3,0c2.1-2.1,0-4.3,0-4.3L71.5,5.9C71.5,5.9,69.3,3.8,67.2,5.9z"/></g><line fill="none" stroke="#000000" stroke-width="4" stroke-linecap="round" stroke-linejoin="round" stroke-miterlimit="10" x1="86" y1="37" x2="80" y2="45"/></svg>
