<svg xmlns="http://www.w3.org/2000/svg" data-name="Layer 1" viewBox="0 0 31.97 31.99"><defs><clipPath id="a"><path fill="none" d="M0 0h31.97v31.99H0z"/></clipPath></defs><g clip-path="url(#a)"><path fill="#fff" fill-rule="evenodd" d="M29 10.12c.73 1.17 2.14 3.7 1.84 5.28-.37 2-.52 3.17-.55 3.49a.56.56 0 0 0 .2-.18 19.86 19.86 0 0 0 1.43-5.09c.34-2.27-.87-2.68-2.92-3.51M.05 13.6a18.09 18.09 0 0 0 1.45 5.13.45.45 0 0 0 .19.16c0-.32-.18-1.52-.55-3.49-.31-1.58 1.1-4.11 1.86-5.28-2.09.83-3.28 1.24-2.95 3.48m16.28 9.53a.71.71 0 0 0 0-1.42h-.7a.71.71 0 0 0 0 1.42h.71zm-1.39 5a1.47 1.47 0 0 0 1 .65 1.52 1.52 0 0 0 1.06-.65 8.52 8.52 0 0 0 0-1.44 18.9 18.9 0 0 0-.49-2.78h-1.1a19 19 0 0 0-.49 2.78 8.57 8.57 0 0 0 0 1.48m1-7.89a3.87 3.87 0 0 0 3.88-3.86v-1.54a3.85 3.85 0 0 0-2.54-3.61 3.27 3.27 0 0 0-2.09-.18 3.86 3.86 0 0 0-3.14 3.78v1.54A3.87 3.87 0 0 0 16 20.28M12.81 15a3.29 3.29 0 0 1 .69-2 4 4 0 0 0 2.51.88A4.12 4.12 0 0 0 18.5 13a3.29 3.29 0 0 1 .66 2v1.3a3.18 3.18 0 1 1-6.36 0V15zm14.76-5.3c0 .13-.07.25-.11.37a8.33 8.33 0 0 1-1.13 2.57 1.12 1.12 0 0 1-1.69 0 8.18 8.18 0 0 1-1.13-2.57c0-.13-.08-.25-.11-.38l-.69.22a6.17 6.17 0 0 0-.24.67A11 11 0 0 1 23 14a1.15 1.15 0 0 0 .15.07 18.61 18.61 0 0 0 4.71 0c1.54-.36.92-3 .43-4.14l-.7-.23M7 29.69c0-.1 0 0 0 0m18-.29c-.1-2.17-.88-5.4-3.61-6.56a12.2 12.2 0 0 0-1.66-.52l-.51-.15a1.28 1.28 0 0 1 .68.78 6.22 6.22 0 0 1-.46 2.68 13.48 13.48 0 0 1-.66 1.78l-.13.26-.21.33-.18.31-.17.27-.2.28-.15.21-.22.25-.13.15-.23.22-.11.1-.24.21h-.06a1.56 1.56 0 0 1-.79.26 2.9 2.9 0 0 1-2.12-1.66v-.07c-.1-.16-.19-.32-.29-.51l-.09-.18c-.07-.14-.14-.27-.21-.42a14.47 14.47 0 0 1-.65-1.78 6.58 6.58 0 0 1-.46-2.7 1.11 1.11 0 0 1 .58-.72l-.37.1a10.46 10.46 0 0 0-1.69.53C7.91 24 7.12 27.21 7 29.37v.62c0 .61.79 1.13 2.31 1.49A39.09 39.09 0 0 0 16 32a37.14 37.14 0 0 0 6.66-.49c1.51-.37 2.34-.9 2.34-1.51a4.16 4.16 0 0 0 0-.59M6.49 8.29a3 3 0 0 0 1.95-.73 2.77 2.77 0 0 0 2.17.26c.59-.18 1-1.06.2-2.48a6.22 6.22 0 0 1-.66-2.39C10.08 1.2 8.45.12 7.32.59c-.53-1-2.24-.67-3.4.22a3.11 3.11 0 0 0-1.11 2.13 5.68 5.68 0 0 1-.67 2.4c-.82 1.45-.39 2.28.19 2.46a2.86 2.86 0 0 0 2.2-.25 3 3 0 0 0 2 .73M3.38 4.16zM3.94 4c3.1-.67 3-1.54 3.38-1.66A7.44 7.44 0 0 0 8.45 3a.94.94 0 0 0 .44 0 2.84 2.84 0 0 1 .11.89V5a2.63 2.63 0 0 1-2.51 2.69A2.63 2.63 0 0 1 3.94 5V4zM29.8 5.3a6.2 6.2 0 0 1-.66-2.39C29.08 1.2 27.45.12 26.32.59c-.53-1-2.24-.67-3.4.22a3.11 3.11 0 0 0-1.12 2.13 5.68 5.68 0 0 1-.67 2.4c-.82 1.45-.39 2.28.19 2.46a2.87 2.87 0 0 0 2.2-.25 3 3 0 0 0 3.9 0 2.77 2.77 0 0 0 2.17.26c.59-.18 1-1.06.2-2.48m-7.41-1.17zM28 5a2.55 2.55 0 1 1-5.08 0V4c3.1-.67 3-1.54 3.38-1.66a7.39 7.39 0 0 0 1.15.66.94.94 0 0 0 .43.07 2.84 2.84 0 0 1 .14.86V5zM9 14a11 11 0 0 1 .53-3.4 6.61 6.61 0 0 0-.24-.67l-.7-.23c0 .13-.07.25-.11.37a8.31 8.31 0 0 1-1.13 2.57 1.12 1.12 0 0 1-1.69 0 8.18 8.18 0 0 1-1.16-2.57c0-.13-.08-.25-.11-.38l-.69.22c-.5 1.11-1.12 3.82.43 4.16a18.61 18.61 0 0 0 4.71 0A1 1 0 0 0 9 14"/></g></svg>