<svg xmlns="http://www.w3.org/2000/svg" data-name="Layer 1" viewBox="0 0 32 31.99"><defs><clipPath id="a"><path fill="none" d="M0 0h32v31.99H0z"/></clipPath></defs><g clip-path="url(#a)"><path fill="#fff" fill-rule="evenodd" d="M20.31 2.57c.58.17.69.84.69 1.67v5.82a1.58 1.58 0 0 0 1.44 1A1.56 1.56 0 0 0 24 9.93V3.34c0-1 .14-1.81 1-1.81s1 .84 1 1.81v5.43A1.5 1.5 0 0 0 27.45 10 1.46 1.46 0 0 0 29 8.77V6.42c0-1 .15-2.19 1.24-1.81.6.21.61.87.36 2 0 0-.28 1.17-.64 2.92A2.83 2.83 0 0 1 31 9.32C31.55 6.79 32 5 32 5a2 2 0 1 0-4 0v3.5a.5.5 0 0 1-1 0V2a2 2 0 1 0-4 0v7.5a.5.5 0 1 1-1 0V3a2 2 0 0 0-3.11-1.66 2.3 2.3 0 0 1 1.43 1.23M29.5 21v-.75a3.93 3.93 0 0 0-.93 2 18.31 18.31 0 0 0 .9 4c.26 1.35-.36 1.79-1.15 1.79h-2.06a1.94 1.94 0 0 1-.53.32L21.07 30H30c1 0 1.79-.5 1.46-2.05-.81-2.14-1.9-4.94-2-6.95m1.62-10a1.37 1.37 0 0 0-2 .58A6.08 6.08 0 0 1 27 13.71v1.5A18.12 18.12 0 0 0 29.44 13c.43-.5.93-.7 1.32-.11a1.43 1.43 0 0 1-.19 1.45 20.88 20.88 0 0 1-1.76 2.8C28 18.28 27 20 27 20v2.56a29 29 0 0 1 1.76-3.48C30 17.15 31.53 15.2 32 13.39a2.44 2.44 0 0 0-.88-2.39m-6.49 13.53c-1.06-2-2.89-4.36-3.54-6.14C19.38 13.68 18.83 7 18.69 5a1.76 1.76 0 0 0-.57-1.43 2 2 0 0 0-3.23 2.17L16.09 9a.5.5 0 1 1-.94.34l-2.57-7.06a2.006 2.006 0 1 0-3.77 1.37L11 9.78a.5.5 0 1 1-.94.34L7.53 3.05a2.003 2.003 0 1 0-3.76 1.38L6 10.55a.5.5 0 1 1-.94.34L3.85 7.6a2 2 0 0 0-2.56-1.2A2 2 0 0 0 0 8.41a2.84 2.84 0 0 0 .44 1.08c1.27 1.93 5.7 8.8 7.49 13.7A25.22 25.22 0 0 1 9 30.41c.22 1.57.61 1.77 1.54 1.43L23.71 27c.93-.34 1.82-.74.93-2.52"/></g></svg>