<svg xmlns="http://www.w3.org/2000/svg" viewBox="0 0 513 513" width="513" height="513"><style>tspan { white-space:pre }.shp0 { fill: #000000 } </style><g id="Layer"><g id="Layer"><path id="Layer" class="shp0" d="M369.48,103.61c0,0.04 0,86.3 0,86.34c0,4.14 -3.35,7.49 -7.49,7.49h-218.39c-3.01,0 -5.73,-1.8 -6.9,-4.57c-1.17,-2.77 -0.57,-5.98 1.53,-8.13c48.96,-50.29 107.25,-71.64 147.53,-80.7c38.17,-8.58 67.28,-8.1 74.85,-7.78c0.45,-0.08 0.91,-0.13 1.38,-0.13c4.14,0 7.49,3.35 7.49,7.49zM302.39,178.35c0,-5.78 -4.7,-10.48 -10.48,-10.48h-39.4c-5.78,0 -10.48,4.7 -10.48,10.48v4.11h60.36zM354.51,111.11c-11.43,-0.05 -35.95,0.84 -65.96,7.64c-34.56,7.83 -83.1,25.2 -126.3,63.71h64.81v-4.11c0,-14.03 11.42,-25.45 25.45,-25.45h39.4c14.03,0 25.45,11.42 25.45,25.45v4.11h37.14z" /></g></g><g id="Layer"><g id="Layer"><path id="Layer" class="shp0" d="M512,127.46v186.57c0,21.74 -17.69,39.43 -39.43,39.43c-13.48,0 -24.45,10.97 -24.45,24.45v5.25c19.72,3.54 34.73,20.82 34.73,41.54v12.79c0,6.13 -4.44,11.23 -10.28,12.27v13.68c0,4.14 -3.35,7.49 -7.49,7.49c-4.14,0 -7.49,-3.35 -7.49,-7.49v-13.48h-33.94v13.48c0,4.14 -3.35,7.49 -7.49,7.49c-4.14,0 -7.49,-3.35 -7.49,-7.49v-13.68c-5.83,-1.05 -10.28,-6.14 -10.28,-12.27v-12.79c0,-20.72 15.01,-37.99 34.73,-41.54v-5.25c0,-21.74 17.69,-39.43 39.43,-39.43c13.48,0 24.45,-10.97 24.45,-24.45v-186.58c0,-4.66 -2.38,-8.78 -5.99,-11.2v2.34c0,10.66 -8.68,19.34 -19.34,19.34h-2.62v96.53c0,4.8 -2.68,9.09 -6.98,11.2c-12.08,5.91 -51.5,29.55 -51.5,85.68c0,0 0,0.01 0,0.01c0,0.1 -0.01,0.2 -0.01,0.29c-0.01,0.2 -0.02,0.4 -0.04,0.6c-0.01,0.11 -0.03,0.22 -0.05,0.33c-0.03,0.19 -0.07,0.39 -0.12,0.58c-0.02,0.1 -0.05,0.19 -0.07,0.29c-0.08,0.28 -0.17,0.56 -0.29,0.82c-0.01,0.02 -0.02,0.04 -0.02,0.05c-0.11,0.25 -0.24,0.5 -0.37,0.74c-0.02,0.03 -0.03,0.07 -0.05,0.11l-15.87,26.79c-2.24,3.78 -6.35,6.12 -10.74,6.12h-54.08c-4.14,0 -7.49,-3.35 -7.49,-7.49c0,-4.14 3.35,-7.49 7.49,-7.49h52.66l8.45,-14.27h-369.36l8.45,14.27h246.56c4.14,0 7.49,3.35 7.49,7.49c0,4.14 -3.35,7.49 -7.49,7.49h-247.98c-4.39,0 -8.5,-2.34 -10.74,-6.12l-15.87,-26.79c-0.01,-0.02 -0.02,-0.04 -0.03,-0.06c-0.3,-0.52 -0.54,-1.08 -0.71,-1.67c-0.02,-0.07 -0.04,-0.13 -0.05,-0.2c-0.06,-0.23 -0.11,-0.46 -0.14,-0.7c-0.01,-0.07 -0.03,-0.14 -0.03,-0.21c-0.04,-0.29 -0.06,-0.59 -0.07,-0.89c-0.02,-1.88 -0.09,-46.72 26.89,-101.24c1.83,-3.7 6.33,-5.22 10.03,-3.39c3.7,1.83 5.22,6.32 3.39,10.03c-19.12,38.63 -23.81,72.57 -24.96,87.04h380.48c3.24,-57.51 43.44,-83.34 58.28,-90.94v-176.79c-152.27,-2.12 -250.76,30.48 -314.36,71.55c-5.45,3.68 -12.89,8.8 -19.72,13.81c-22.82,17.32 -40.22,35.57 -53.45,52.98c-2.5,3.29 -7.2,3.93 -10.49,1.43c-3.29,-2.5 -3.93,-7.2 -1.43,-10.49c11.51,-15.14 24.59,-29.16 39.19,-42.03v-51.93c0,-6.88 5.6,-12.48 12.48,-12.48h32.29c6.88,0 12.48,5.6 12.48,12.48v11.64c12.5,-7 25.69,-13.43 39.57,-19.27c71.36,-30 160.89,-44.33 266.16,-42.62c6.76,0.11 12.27,5.71 12.27,12.48v21.38h2.62c10.66,0 19.34,8.68 19.34,19.34v5.62c12.06,3.3 20.96,14.35 20.96,27.44zM136.11,93.95h-27.29v37.05c8.64,-6.71 17.74,-13.06 27.3,-19.04zM476.07,94.4c0,-2.41 -1.96,-4.37 -4.37,-4.37h-2.62v32.94h2.62c2.41,0 4.37,-1.96 4.37,-4.37zM440.63,397.46c-15.02,0 -27.24,12.22 -27.24,27.25v10.3h54.49v-10.3c0,-15.02 -12.22,-27.25 -27.24,-27.25z" /></g></g><g id="Layer"><g id="Layer"><path id="Layer" class="shp0" d="M336.03,231.67h-166.46c-4.13,0 -7.49,3.35 -7.49,7.49c0,4.14 3.35,7.49 7.49,7.49h166.46c4.13,0 7.49,-3.35 7.49,-7.49c0,-4.14 -3.35,-7.49 -7.49,-7.49z" /></g></g><g id="Layer"><g id="Layer"><path id="Layer" class="shp0" d="M336.03,275.67h-166.46c-4.13,0 -7.49,3.35 -7.49,7.49c0,4.14 3.35,7.49 7.49,7.49h166.46c4.13,0 7.49,-3.35 7.49,-7.49c0,-4.14 -3.35,-7.49 -7.49,-7.49z" /></g></g><g id="Layer"></g><g id="Layer"></g><g id="Layer"></g><g id="Layer"></g><g id="Layer"></g><g id="Layer"></g><g id="Layer"></g><g id="Layer"></g><g id="Layer"></g><g id="Layer"></g><g id="Layer"></g><g id="Layer"></g><g id="Layer"></g><g id="Layer"></g><g id="Layer"></g></svg>