<svg xmlns="http://www.w3.org/2000/svg" viewBox="0 0 512 512" width="512" height="512"><style>tspan { white-space:pre }.shp0 { fill: #000000 } </style><g id="Layer"><g id="Layer"><path id="Layer" class="shp0" d="M447.56,49.19h-25.98v-28.04c0,-11.66 -9.49,-21.15 -21.15,-21.15h-196.45c-4.14,0 -7.5,3.36 -7.5,7.5c0,4.14 3.36,7.5 7.5,7.5h196.45c3.39,0 6.15,2.76 6.15,6.15v71.08c0,3.39 -2.76,6.15 -6.15,6.15h-297.86c-3.39,0 -6.15,-2.76 -6.15,-6.15v-71.08c0,-3.39 2.76,-6.15 6.15,-6.15h48.9c4.14,0 7.5,-3.36 7.5,-7.5c0,-4.14 -3.36,-7.5 -7.5,-7.5h-48.9c-11.66,0 -21.15,9.49 -21.15,21.15v28.04h-21.97c-4.14,0 -7.5,3.36 -7.5,7.5c0,4.14 3.36,7.5 7.5,7.5h21.97v28.04c0,11.66 9.49,21.15 21.15,21.15h297.86c11.66,0 21.15,-9.49 21.15,-21.15v-28.04h23.47v119.02l-210.62,35.26c-6.05,1.01 -10.44,6.2 -10.44,12.33v58.29h-11.88c-6.44,0 -11.92,5.03 -12.46,11.45l-13.87,164.56c-1.01,12.03 3.09,24.02 11.26,32.91c8.17,8.89 19.78,13.98 31.85,13.98h5.22c12.07,0 23.68,-5.1 31.85,-13.98c8.17,-8.89 12.27,-20.88 11.26,-32.91l-2.38,-28.18c-0.35,-4.13 -3.98,-7.19 -8.11,-6.85c-4.13,0.35 -7.19,3.98 -6.85,8.11l2.38,28.18c0.67,7.97 -1.94,15.61 -7.35,21.49c-5.41,5.89 -12.8,9.13 -20.8,9.13h-5.22c-8,0 -15.39,-3.24 -20.8,-9.13c-5.41,-5.89 -8.02,-13.52 -7.35,-21.49l13.68,-162.27h34.17l6.79,80.58c0.35,4.13 3.98,7.18 8.11,6.85c4.13,-0.35 7.19,-3.98 6.85,-8.11l-6.99,-82.87c-0.54,-6.42 -6.01,-11.45 -12.46,-11.45h-11.88v-56.17l210.63,-35.26c6.05,-1.01 10.44,-6.2 10.44,-12.33v-123.64c0,-6.89 -5.61,-12.5 -12.5,-12.5z" /></g></g><g id="Layer"></g><g id="Layer"></g><g id="Layer"></g><g id="Layer"></g><g id="Layer"></g><g id="Layer"></g><g id="Layer"></g><g id="Layer"></g><g id="Layer"></g><g id="Layer"></g><g id="Layer"></g><g id="Layer"></g><g id="Layer"></g><g id="Layer"></g><g id="Layer"></g>
</svg>