<svg xmlns="http://www.w3.org/2000/svg" viewBox="0 0 513 513" width="513" height="513"><style>tspan { white-space:pre }.shp0 { fill: #000000 } </style><g id="Layer"><g id="Layer"><path id="Layer" class="shp0" d="M450.03,504.49c0,4.15 -3.36,7.51 -7.51,7.51h-373.05c-4.15,0 -7.51,-3.36 -7.51,-7.51c0,-4.15 3.36,-7.51 7.51,-7.51h6.39v-342.51h-6.39c-4.15,0 -7.51,-3.36 -7.51,-7.51c0,-4.15 3.36,-7.51 7.51,-7.51h55.64v-64.72c0,-33.8 27.5,-61.3 61.3,-61.3h12.16c0.78,-7.53 7.17,-13.43 14.91,-13.43h85.03c7.74,0 14.12,5.89 14.91,13.43h12.16c33.8,0 61.3,27.5 61.3,61.3v64.72h55.64c4.15,0 7.51,3.36 7.51,7.51c0,4.15 -3.36,7.51 -7.51,7.51h-6.39v342.51h6.39c4.15,0 7.51,3.36 7.51,7.51zM213.49,15.02l0.03,18.34l85,-0.03l-0.04,-18.34zM112.93,294.15c0,14.49 11.79,26.27 26.28,26.27c14.49,0 26.28,-11.79 26.28,-26.27v-61.12c0,-2.67 1.42,-5.15 3.73,-6.49c2.31,-1.34 5.16,-1.36 7.49,-0.03c3.94,2.24 8.42,3.43 12.97,3.43c14.49,0 26.28,-11.79 26.28,-26.28v-49.2h-103.02zM421.12,366.19h-58.89c-4.15,0 -7.51,-3.36 -7.51,-7.51c0,-4.15 3.36,-7.51 7.51,-7.51h58.89v-17.94h-100.93c-4.15,0 -7.51,-3.36 -7.51,-7.51c0,-4.15 3.36,-7.51 7.51,-7.51h100.94v-17.94h-100.93c-4.15,0 -7.51,-3.36 -7.51,-7.51c0,-4.15 3.36,-7.51 7.51,-7.51h100.94v-34.12h-149.15v68.07c0,4.15 -3.36,7.51 -7.51,7.51c-4.15,0 -7.51,-3.36 -7.51,-7.51v-70.57c0,-6.9 5.61,-12.51 12.51,-12.51h151.65v-81.67h-79.69c-4.15,0 -7.51,-3.36 -7.51,-7.51c0,-4.15 3.36,-7.51 7.51,-7.51h30.45v-64.72c0,-25.52 -20.76,-46.29 -46.29,-46.29h-12.08v4.91c0,8.26 -6.72,14.99 -14.99,14.99h-85.02c-8.26,0 -14.99,-6.72 -14.99,-14.99v-4.91h-12.08c-25.52,0 -46.29,20.77 -46.29,46.29v64.72h148.9c4.15,0 7.51,3.36 7.51,7.51c0,4.15 -3.36,7.51 -7.51,7.51h-58.07v49.2c0,22.77 -18.52,41.29 -41.29,41.29c-3.1,0 -6.18,-0.35 -9.18,-1.03v50.23c0,22.77 -18.52,41.29 -41.29,41.29c-22.77,0 -41.29,-18.52 -41.29,-41.29v-139.68h-7.03v342.51h330.23v-81.67h-151.65c-6.9,0 -12.51,-5.61 -12.51,-12.51v-28.69c0,-4.15 3.36,-7.51 7.51,-7.51c4.15,0 7.51,3.36 7.51,7.51v26.19h149.15z" /></g></g><g id="Layer"></g><g id="Layer"></g><g id="Layer"></g><g id="Layer"></g><g id="Layer"></g><g id="Layer"></g><g id="Layer"></g><g id="Layer"></g><g id="Layer"></g><g id="Layer"></g><g id="Layer"></g><g id="Layer"></g><g id="Layer"></g><g id="Layer"></g><g id="Layer"></g></svg>