<svg xmlns="http://www.w3.org/2000/svg" viewBox="0 0 512 512" width="512" height="512"><style>tspan { white-space:pre }.shp0 { fill: #000000 } </style><g id="Layer"><g id="Layer"><path id="Layer" class="shp0" d="M313.38,256c0,71.1 -57.84,128.95 -128.95,128.95c-71.1,0 -128.95,-57.85 -128.95,-128.95c0,-71.1 57.85,-128.95 128.95,-128.95c71.1,0 128.95,57.85 128.95,128.95zM298.41,256c0,-62.85 -51.13,-113.98 -113.98,-113.98c-62.85,0 -113.98,51.13 -113.98,113.98c0,62.85 51.13,113.98 113.98,113.98c62.85,0 113.98,-51.13 113.98,-113.98z" /></g></g><g id="Layer"><g id="Layer"><path id="Layer" class="shp0" d="M512,410.9v17.06c0,6.88 -5.6,12.48 -12.48,12.48h-315.09c-101.7,0 -184.43,-82.74 -184.43,-184.43c0,-101.7 82.74,-184.43 184.43,-184.43c32.23,0 62.56,8.32 88.95,22.91l7.09,-9.1c4.02,-5.16 11.19,-6.35 16.67,-2.78c23.76,15.47 43.78,35.28 59.51,58.89c3.18,4.78 2.73,11.08 -1.1,15.32l-9.46,10.47c14.51,26.34 22.78,56.58 22.78,88.72v25.28c0,4.13 -3.35,7.49 -7.49,7.49c-4.13,0 -7.49,-3.35 -7.49,-7.49v-25.28c0,-93.44 -76.02,-169.46 -169.46,-169.46c-93.44,0 -169.46,76.02 -169.46,169.46c0,93.44 76.02,169.46 169.46,169.46h169.46v-90.62c0,-4.13 3.35,-7.49 7.49,-7.49c4.13,0 7.49,3.35 7.49,7.49v63.58h130.66c6.88,0 12.48,5.6 12.48,12.47zM286.31,102.25c20.45,13.58 38.1,31.2 51.72,51.63l5.11,-5.65c-14.01,-20.59 -31.57,-38.01 -52.26,-51.83zM497.03,425.46v-12.06h-128.16v12.06z" /></g></g><g id="Layer"><g id="Layer"><path id="Layer" class="shp0" d="M240.12,206.91c-2.73,-3.1 -7.46,-3.4 -10.56,-0.66c-3.1,2.74 -3.4,7.47 -0.66,10.56c9.54,10.82 14.8,24.73 14.8,39.18c0,32.67 -26.58,59.26 -59.26,59.26c-32.67,0 -59.26,-26.58 -59.26,-59.26c0,-32.67 26.58,-59.26 59.26,-59.26c0.31,0 0.61,0 0.92,0.01c0.04,0 0.07,0 0.11,0c4.08,0 7.42,-3.28 7.48,-7.38c0.06,-4.13 -3.24,-7.53 -7.38,-7.59c-0.38,-0.01 -0.75,-0.01 -1.13,-0.01c-40.93,0 -74.23,33.3 -74.23,74.23c0,40.93 33.3,74.23 74.23,74.23c40.93,0 74.23,-33.3 74.23,-74.23c0,-18.1 -6.59,-35.53 -18.55,-49.09z" /></g></g><g id="Layer"></g><g id="Layer"></g><g id="Layer"></g><g id="Layer"></g><g id="Layer"></g><g id="Layer"></g><g id="Layer"></g><g id="Layer"></g><g id="Layer"></g><g id="Layer"></g><g id="Layer"></g><g id="Layer"></g><g id="Layer"></g><g id="Layer"></g><g id="Layer"></g></svg>