<svg xmlns="http://www.w3.org/2000/svg" xmlns:xlink="http://www.w3.org/1999/xlink" version="1.1" x="0px" y="0px" viewBox="0 0 100 125" enable-background="new 0 0 100 100" xml:space="preserve"><path d="M74.549263,17.4459267c-1.0986328-1.3076172-2.5078125-1.9960947-4.0214844-1.9614267  c-1.9470215,0.0303345-3.854248,1.2507334-5.430542,3.2850351c-0.5065308-3.2004404-1.6550293-5.8676157-3.2911377-7.3900156  c-1.1621094-1.081543-2.5205078-1.5415039-3.9267578-1.3266602c-2.6152954,0.3961792-4.9370728,3.2097778-6.3429565,7.2996225  c-0.2603149-0.3811035-0.5401611-0.7337646-0.8435669-1.0471802c-1.1870117-1.2270517-2.6264648-1.8066416-4.1494141-1.6738291  c-3.5083618,0.3015137-6.6069336,4.4801645-7.7478027,10.1900644c-0.8187256-4.2406006-2.8071289-7.7577515-5.3728027-9.3555918  c-1.4492168-0.902832-2.9819317-1.1176758-4.4316387-0.6191406c-3.6787109,1.2612314-5.7373047,6.9863291-4.8950195,13.6127939  l3.3118286,26.0410156c-0.4072876-0.050354-0.815979-0.0864258-1.2229614-0.1396484  c-0.8203125-0.1132813-1.6225586,0.1289063-2.2099609,0.6474609c-0.5888672,0.5175781-0.9121094,1.2548828-0.9101563,2.0722656  v1.7509766c0.0010376,1.1627808,0.6550903,2.2213135,1.6142578,2.8079224v14.140316  c0.0024414,7.0888672,5.8051758,13.4335938,12.66992,13.8544922c3.8867188,0.2431641,7.8012695,0.3642578,11.7158203,0.3642578  c3.9140625,0,7.828125-0.1210938,11.7158203-0.3642578c6.8710938-0.4238281,12.6728516-6.7675781,12.6699219-13.8544922v-14.140255  c0.9599609-0.5870361,1.6142578-1.6463623,1.6142578-2.80896v-1.75c0-0.8203125-0.3242188-1.5576172-0.9140625-2.0751953  c-0.5869141-0.515625-1.3886719-0.7490234-2.2070313-0.6445313c-0.0499878,0.0065308-0.1002808,0.0106812-0.1502686,0.0171509  l4.7615967-24.9849243C77.471138,24.5855751,76.7035599,20.0079384,74.549263,17.4459267z M74.5902786,29.0186806  l-4.8782959,25.597168c-2.2670898,0.2669678-4.5379028,0.4894409-6.8121948,0.6680908l2.406311-30.6104736  c0.067688-0.8620605,0.088562-1.7110596,0.074646-2.5435181c1.4226685-2.7582397,3.3636475-4.6173096,5.1782837-4.6454468  c0.9267578-0.0166016,1.7519531,0.4052734,2.4599609,1.2480469C74.768013,20.8136024,75.3852005,24.8512001,74.5902786,29.0186806z   M73.064888,57.0806923v0.1375122v1.6124878c0,0.418457-0.2599487,0.8239746-0.6143799,1.065979  c-0.1559448,0.1064453-0.3240967,0.1901245-0.5067139,0.2142944c-0.1641235,0.0214233-0.3289795,0.0353394-0.4931641,0.0563354  c-0.2614746,0.0334473-0.5238647,0.0574341-0.7854614,0.0896606c-0.3494263,0.0430908-0.6995239,0.0787964-1.0491943,0.119812  c-0.3526611,0.0413208-0.7053833,0.081665-1.0582886,0.1208496c-2.0471191,0.227417-4.0967407,0.4206543-6.149353,0.5762329  c-0.3393555,0.0256958-0.6782227,0.059021-1.0177002,0.0828247c-0.3410034,0.0238037-0.6814575,0.0562134-1.022583,0.078064  c-0.9344482,0.0599365-1.8701172,0.0916748-2.8052368,0.1367188c-0.336853,0.0162354-0.673584,0.0348511-1.0105591,0.0491943  c-0.336731,0.0142822-0.6732178,0.0369263-1.0100098,0.0492554c-2.0221558,0.0742188-4.0449829,0.117981-6.0682373,0.1226807  c-0.0285034,0.000061-0.0570068,0.0013428-0.0855103,0.0014038c-0.3057861,0.0005493-0.6113892-0.003418-0.9171753-0.0043945  c-0.0333252-0.0001221-0.0666504-0.0014648-0.0999756-0.0015869c-0.302063-0.0012207-0.6040039-0.0119629-0.9060059-0.0147095  c-0.0429688-0.0003662-0.0859375-0.0016479-0.1289063-0.0020752c-1.4252319-0.0139771-2.8503418-0.0297852-4.2749023-0.078186  c-0.3320313-0.0112915-0.6635132-0.0354004-0.9954834-0.0485229c-0.3344116-0.0133057-0.6685181-0.0336304-1.0028687-0.0488281  c-1.4171753-0.064209-2.8339844-0.1345215-4.2495117-0.2329102c-0.3377686-0.0234985-0.6748657-0.0568848-1.0125122-0.0823364  c-0.3347778-0.0252075-0.6692505-0.0545654-1.0039063-0.081665c-0.2655029-0.0215454-0.5311279-0.0421143-0.7965698-0.0648193  c-0.1962891-0.0167847-0.3927002-0.0303955-0.5889282-0.0479126c-0.196228-0.0174561-0.3929443-0.0297852-0.5891724-0.0479126  c-0.2009888-0.0185547-0.4024658-0.0298462-0.6033936-0.0491333c-0.1650391-0.0158081-0.3300762-0.0294189-0.4950542-0.0456543  c-0.1637573-0.0161743-0.3269043-0.0393677-0.4907227-0.0560303c-0.3067627-0.0311279-0.6126099-0.0722656-0.9192505-0.1049805  c-0.3509521-0.0374756-0.701355-0.0805664-1.0521851-0.1201172c-0.3494263-0.0394897-0.6989746-0.078186-1.0482178-0.1196899  c-0.5113525-0.0608521-1.0237427-0.1099243-1.5346069-0.1752319c-0.1641846-0.0209961-0.3290405-0.0349121-0.4931641-0.0563354  c-0.1826172-0.0239258-0.3508911-0.107666-0.506958-0.2142944c-0.3538818-0.2417603-0.6137695-0.6471558-0.6141357-1.065979  v-1.614624v-0.1373291c-0.0004883-0.2382813,0.0795898-0.4355469,0.2319336-0.5693359  c0.1293945-0.1142578,0.3037109-0.1738281,0.4990234-0.1738281c0.0049438,0,0.0102539,0.0008545,0.0152588,0.0009155  c0.0377808,0.0004883,0.0762939,0.001709,0.1151123,0.006897c0.5795288,0.0758057,1.1612549,0.1288452,1.741394,0.1989136  c0.3408203,0.0411377,0.6821289,0.0777588,1.0231934,0.1169434c0.3409424,0.0391846,0.6818237,0.0796509,1.0229492,0.1168213  c0.8202515,0.0894775,1.6395874,0.1872559,2.4607525,0.2653198c0.1708374,0.0162354,0.3421021,0.026001,0.5129395,0.041748  s0.34198,0.0264893,0.5128784,0.041748c0.557373,0.0497437,1.1152954,0.0916748,1.6730347,0.1361694  c0.0462036,0.0036621,0.0924683,0.0076294,0.1386719,0.0112915c0.178833,0.0140991,0.3575439,0.0300293,0.536377,0.0436401  c0.1071167,0.0081177,0.2139893,0.0181885,0.321106,0.026123c0.0714722,0.0053101,0.1428833,0.012207,0.2143555,0.0174561  c0.2609253,0.0189819,0.5213013,0.0457764,0.7822876,0.0636597c1.3781128,0.0943604,2.7574463,0.1592407,4.137085,0.2215576  c0.3370972,0.0152588,0.6739502,0.0358887,1.0110474,0.0492554c0.3344727,0.0131836,0.6685181,0.0375977,1.0029907,0.0488892  c1.5119629,0.0512695,3.0245361,0.0690308,4.5371704,0.0817871c0.1444092,0.0012207,0.2888184,0.0061646,0.4332275,0.0070801  c0.1896362,0.0010986,0.3792114,0.008667,0.5688477,0.0092163c0.1455078,0.0004272,0.2909546,0.007019,0.4364624,0.0070801  c0.1889038,0.000061,0.3777466-0.0064087,0.5665894-0.006897c0.1473999-0.0004272,0.2947998-0.0063477,0.4421997-0.0071411  c1.9365845-0.0101318,3.8726807-0.0519409,5.8081665-0.1251221c0.3403931-0.0128784,0.680542-0.0349731,1.020874-0.0498047  c0.3405762-0.0148315,0.6809692-0.03302,1.0214844-0.0498047c0.9564819-0.0471191,1.9136963-0.0795898,2.8694458-0.1420898  c0.336792-0.0220337,0.6726685-0.0581055,1.0092773-0.0820923c0.3369141-0.0239258,0.6732788-0.0563354,1.0100708-0.0822144  c2.196228-0.1687622,4.3890381-0.3800049,6.5788574-0.630188c0.3468628-0.0396729,0.6937866-0.0772705,1.0404663-0.1188965  c0.3468628-0.041687,0.694519-0.0751953,1.0411377-0.1189575c0.2667236-0.0336304,0.5344238-0.0566406,0.8010254-0.0914917  c0.0473022-0.0056763,0.0889282,0.0068359,0.1345825,0.0075684c0.1893311,0.0029297,0.3666992,0.0457764,0.4933472,0.1574707  C72.9838333,56.6422157,73.064888,56.8404579,73.064888,57.0806923z M60.6557083,87.6383057  c-7.6904297,0.4804688-15.4902344,0.4804688-23.1831055,0c-5.8481426-0.3583984-10.7910137-5.7890625-10.7934551-11.8583984  V62.1793861c0.680603,0.0860596,1.362793,0.1553345,2.0441895,0.2335205  c0.3673706,0.0421143,0.734436,0.0860596,1.1020508,0.1259155c0.3707275,0.0402222,0.7406616,0.0891113,1.1116333,0.1270142  c1.3655376,0.1393433,2.7329693,0.2507935,4.1008892,0.3585815c0.3409424,0.0268555,0.6816406,0.0583496,1.0227051,0.083252  c0.3496094,0.0255737,0.6984253,0.0618286,1.0481567,0.0852661c1.2233276,0.0820923,2.447876,0.1340942,3.6724243,0.190979  c0.3336792,0.0155029,0.6671753,0.0352173,1.0009155,0.0488281c0.3359985,0.0137329,0.6715698,0.0372925,1.0075684,0.0490723  c1.2943115,0.0455322,2.5889282,0.0612793,3.8837891,0.0786133c0.3145752,0.0042114,0.6291504,0.0127563,0.9437866,0.0153198  c0.0423584,0.0003662,0.0847778,0.00177,0.1271362,0.0020752c0.2996826,0.0021973,0.5991211,0.013855,0.8988037,0.0145874  c0.0509033,0.0001221,0.1018066,0.0023804,0.15271,0.0024414c0.0896606,0.0001221,0.1793213,0.0043945,0.2689819,0.0043945  c0.1972046,0,0.3944092-0.0089111,0.5916138-0.0095825c2.0111694-0.0066528,4.0219116-0.0502319,6.0319824-0.1248169  c0.338623-0.0125732,0.6768188-0.0349731,1.0154419-0.0494995c0.3400879-0.0145264,0.6799927-0.0332031,1.0200195-0.0497437  c0.7546387-0.0366211,1.5096436-0.0641479,2.263855-0.1103516c0.3438721-0.0211182,0.6876221-0.0390625,1.031311-0.0621338  c0.3494873-0.0234375,0.6981201-0.0598145,1.0474243-0.0852661c1.9660034-0.1435547,3.9293823-0.3205566,5.890564-0.5293579  c0.3666382-0.0390015,0.7327271-0.0842285,1.0991821-0.1255493c0.3599243-0.0405884,0.7199097-0.0805664,1.0795898-0.1233521  c0.4381104-0.052063,0.8770142-0.0948486,1.3147583-0.1502075v13.6005211  c0.0029297,6.0683594-4.9404297,11.4980469-10.7939453,11.8583984H60.6557083z M29.6395969,16.7384071  c0.8759766-0.2993164,1.7924805-0.15625,2.7260723,0.425293c2.3076172,1.4375,4.1445313,5.0854492,4.6796875,9.293457  l0.7630615,6.0001831l-1.9914551,16.7838135c-0.0355225,0.0516357-0.0682373,0.0965576-0.1046143,0.1500854  c-0.7495117,1.1323242-1.453125,2.4199219-2.0913086,3.8271484c-0.2744751,0.6038818-0.5270996,1.2340698-0.7711792,1.8720093  c-1.1332378-0.1044922-2.2643414-0.2297363-3.39575-0.3561401l-3.3735962-26.5266113  C25.3920383,22.7926064,26.988718,17.6475868,29.6395969,16.7384071z M39.8237381,32.4486732l0.6596069-5.5593872  c0.6430664-5.4204102,3.4384766-10.0253906,6.230957-10.265625c0.921875-0.0791016,1.7758789,0.2817383,2.5415039,1.0727539  c0.6139526,0.6340332,1.1105957,1.4986572,1.5014038,2.4992065c-0.2487793,1.1710205-0.4338379,2.4046631-0.5350952,3.6912231  l-2.5106812,31.9404297c-1.6426392-0.0125732-3.2851563-0.0393066-4.927002-0.0977173  c-0.3383179-0.0120239-0.6761475-0.0354614-1.0144043-0.0494385c-0.3383179-0.0139771-0.6763306-0.0335083-1.0145874-0.0494385  c-1.2200928-0.0574951-2.4402466-0.1120605-3.6591187-0.1948853l0.0612183-0.5161743l0.265564-2.237854l0.3949585-3.3291626  l0.0855103-0.7206421l0.1019287-0.8588257l0.0619507-0.522522l0.78302-6.5992432l0.4866333-4.1015015L39.8237381,32.4486732z   M52.847908,20.081852c1.0563354-4.3828135,3.1532593-7.7214365,5.3302612-8.0514536  c0.1220703-0.0185547,0.2421875-0.027832,0.3623047-0.027832c0.6640625,0,1.3027344,0.2822266,1.9033203,0.8413086  c1.6966553,1.578125,2.7722168,4.9207163,2.9243774,8.7785654c0.0368652,0.9346924,0.0209961,1.8986816-0.0551147,2.8763428  c-0.0004883,0.0061646-0.0006104,0.0122681-0.0010986,0.0184326l-0.588562,7.4873657L60.8804398,55.448246  c-0.8834229,0.0592041-1.7677612,0.0948486-2.6518555,0.1408081c-0.3425903,0.0177612-0.6851807,0.0342407-1.027832,0.0500488  c-0.3425903,0.0157471-0.6848755,0.0363159-1.0275269,0.0501099c-0.7696533,0.0309448-1.5390625,0.0612183-2.309021,0.0821533  c0.0324707-0.03125,0.0621948-0.0580444,0.0952148-0.0900879c0.9736328-0.9648438,1.9248047-2.0849609,2.8261719-3.3271484  c0.0111694-0.0153809,0.0212402-0.0325317,0.0324097-0.0479126c0.4962158-0.6850586,0.9700928-1.406189,1.4274292-2.1479492  c0.3652954-0.5925293,0.7229004-1.1948242,1.0587158-1.8163452l0.0019531-0.003418  c0.1810303-0.3416138,0.3313599-0.6477051,0.4873047-0.9602051c0.3049316-0.6112061,0.5831299-1.1947021,0.8183594-1.7497559  c0.2557983-0.6032104,0.1716309-1.315918-0.151123-1.7510986c-0.0542603-0.0731812-0.0999146-0.1569214-0.1682129-0.2113037  c-0.2334595-0.1860962-0.5185547-0.2250366-0.7854614-0.1265869c-0.0769653,0.0283813-0.1531372,0.0643921-0.2252808,0.116333  c-0.3065796,0.2224731-0.6242676,0.4799805-0.9630127,0.7763672c-0.270813,0.2369385-0.5541992,0.4970093-0.8631592,0.7963867  c-0.9667969,0.9584961-1.9179688,2.0756836-2.8271484,3.3212891c-0.9052734,1.2387695-1.7539063,2.5874023-2.5234375,4.012207  c-0.546875,1.03125-0.9511719,1.8710938-1.3115234,2.7255859c-0.0721436,0.1713257-0.1160889,0.3533936-0.1376343,0.5357056  c-0.1387939,0.0012207-0.2774658,0.0058594-0.4162598,0.0067749c-0.1741943,0.0011597-0.3483276,0.0078735-0.522522,0.0084839  l0.9528809-12.1220703l1.5463867-19.6730347c0.0432739-0.5498047,0.1094971-1.0898438,0.18573-1.6239624  C52.5167923,21.6154823,52.6666336,20.8340492,52.847908,20.081852z M35.5902786,34.9683876  c0.2670898-0.2954102,0.6455078-0.3701172,0.9907227-0.1958008c0.5419922,0.2729492,0.8613281,1.1054688,0.7124023,1.8554688  c-0.1772461,0.8945313-0.4082031,1.8222656-0.7265625,2.9189453l-0.0009766,0.0039063  c-0.4609375,1.5419922-1.015625,3.0366211-1.6494141,4.4414063c-0.6313477,1.4023438-1.3344727,2.6918945-2.0893555,3.8320313  c-0.5458984,0.8051758-1.0141582,1.4140625-1.4775372,1.9199219c-0.171875,0.1879883-0.3901367,0.2861328-0.6147461,0.2861328  c-0.1254883,0-0.2529297-0.0307617-0.3759766-0.0927734c-0.5400391-0.2729492-0.859375-1.1044922-0.7119141-1.8535156  c0.1787109-0.9077148,0.4033203-1.8129883,0.7285156-2.9350586c0.4663086-1.5581055,1.0224609-3.0512695,1.654295-4.4423828  c0.6367188-1.4042969,1.340332-2.6918945,2.0913086-3.8271484C34.6737747,36.0660439,35.1259232,35.4781532,35.5902786,34.9683876z   M29.8339329,37.8282509c-0.171875,0.1879883-0.3901367,0.2861328-0.6147461,0.2861328  c-0.1254883,0-0.2529297-0.0302734-0.3754883-0.0922852c-0.5400391-0.2729492-0.8598633-1.1044922-0.7124023-1.8540039  c0.1767578-0.8989258,0.4086914-1.831543,0.7294922-2.9350586c0.4643555-1.5551758,1.0205078-3.0483398,1.6538086-4.4418945  c0.6381836-1.4082031,1.3417969-2.6958008,2.0913067-3.8271484c0.5439453-0.8012695,1.0097656-1.4072266,1.46875-1.9116211  c0.2675781-0.2949219,0.6464844-0.3686523,0.9912109-0.1958008c0.5415039,0.2729492,0.8608398,1.1054688,0.7128906,1.855957  c-0.1791992,0.9023438-0.4033203,1.8022461-0.7265625,2.918457l-0.0014648,0.0039063  c-0.4604492,1.5415039-1.015625,3.0356445-1.6499023,4.4414063c-0.6293945,1.3989258-1.3325195,2.6884766-2.0888653,3.8320313  C30.7665501,36.7130165,30.2978001,37.3214149,29.8339329,37.8282509z M51.8006058,42.6726112  c0.3544922-0.8355103,0.7641602-1.6887817,1.2926025-2.6837158c0.7734375-1.4296875,1.6210938-2.7783203,2.5234375-4.0126953  c0.9101563-1.2470703,1.8613281-2.3642578,2.8271484-3.3212891c0.6933594-0.671875,1.2724609-1.1704102,1.8261719-1.5727539  c0.1956787-0.1398315,0.4130249-0.184021,0.6220093-0.1520996c0.1362305,0.020813,0.2696533,0.067688,0.3887329,0.1628418  c0.2303467,0.1831665,0.3788452,0.4871216,0.4404907,0.8295898c0.0653687,0.3631592,0.0326538,0.7699585-0.1211548,1.1323242  c-0.0496826,0.1173096-0.1112671,0.2420044-0.1633911,0.3604126c-0.3218384,0.7313232-0.6825562,1.4830322-1.1422729,2.3495483  l-0.0019531,0.003418c-0.1518555,0.281311-0.3210449,0.546875-0.4793091,0.8227539  c-0.6378174,1.1118774-1.3123779,2.1904297-2.0392456,3.1899414c-0.9023438,1.2431641-1.8525391,2.3623047-2.8242188,3.3261719  c-0.6962891,0.6748047-1.2792969,1.1757813-1.8378906,1.5791016c-0.1582031,0.1142578-0.3320313,0.1713867-0.5039063,0.1713867  c-0.1767578,0-0.3525391-0.0610352-0.5048828-0.1826172c-0.2305908-0.1834717-0.3795776-0.4881592-0.4412231-0.831604  c-0.0649414-0.3620605-0.0324097-0.7675171,0.1199341-1.1288452C51.7874222,42.7008095,51.7948074,42.6862831,51.8006058,42.6726112  z M52.9917068,32.6337318c-0.4237061-0.4019165-0.552063-1.2220459-0.2686157-1.8943481  c0.197937-0.4682617,0.4211426-0.9504395,0.6657715-1.4528198c0.1971436-0.4049072,0.4056396-0.8201904,0.645752-1.2727661  c0.7734375-1.4301758,1.6220703-2.7788086,2.5234375-4.012207c0.9101563-1.2470703,1.8613281-2.3647461,2.8271484-3.3212891  c0.6923828-0.671875,1.2724609-1.1704102,1.8261719-1.5727539c0.3222656-0.230957,0.7109375-0.2304688,1.0107422,0.0102539  c0.4746094,0.3779297,0.6181641,1.2578125,0.3193359,1.9624023c-0.3564453,0.8417969-0.7714844,1.703125-1.3056641,2.7094727  l-0.0019531,0.003418c-0.7646484,1.4169922-1.6123047,2.7670898-2.5185547,4.0126953  c-0.9003906,1.2412109-1.8505859,2.3603516-2.8242188,3.3266602c-0.6992188,0.6772461-1.28125,1.1777344-1.8388672,1.5791016  c-0.1572266,0.1137695-0.3310547,0.1708984-0.5019531,0.1708984c-0.1777344,0-0.3525391-0.0610352-0.5058594-0.1826172  C53.0230179,32.6828041,53.0117264,32.6527138,52.9917068,32.6337318z"/><text x="0" y="115" fill="#000000" font-size="5px" font-weight="bold" font-family="'Helvetica Neue', Helvetica, Arial-Unicode, Arial, Sans-serif">Created by Llisole</text><text x="0" y="120" fill="#000000" font-size="5px" font-weight="bold" font-family="'Helvetica Neue', Helvetica, Arial-Unicode, Arial, Sans-serif">from the Noun Project</text></svg>