<svg xmlns="http://www.w3.org/2000/svg" xmlns:xlink="http://www.w3.org/1999/xlink" version="1.1" x="0px" y="0px" viewBox="0 0 160 200" style="enable-background:new 0 0 160 160;" xml:space="preserve"><g><path d="M103.4,123.5c0,1.5-1.2,2.7-2.7,2.7c-1.5,0-2.7-1.2-2.7-2.7s1.2-2.7,2.7-2.7C102.2,120.9,103.4,122.1,103.4,123.5z"/><path d="M112.7,112c0,1.7-1.4,3.1-3.1,3.1c-1.7,0-3.1-1.4-3.1-3.1c0-1.7,1.4-3.1,3.1-3.1C111.3,108.9,112.7,110.3,112.7,112z"/><path d="M131,132.1c0,1.7-1.4,3.1-3.1,3.1c-1.7,0-3.1-1.4-3.1-3.1c0-1.7,1.4-3.1,3.1-3.1C129.6,129,131,130.4,131,132.1z"/><path d="M84.8,132.1c0,1.7-1.4,3.1-3.1,3.1c-1.7,0-3.1-1.4-3.1-3.1c0-1.7,1.4-3.1,3.1-3.1C83.4,129,84.8,130.4,84.8,132.1z"/><polygon points="59.6,132.1 63.5,128.1 48.5,128.1 48.5,132.1  "/><path d="M153.7,138.7l-41.6-43.1c-1.8-1.9-4.3-2.9-6.9-2.9c-1.3,0-2.6,0.3-3.7,0.8c-1.2,0.5-2.2,1.2-3.1,2.2l-41.6,43.1   c-0.9,0.9-1.2,2.3-0.7,3.5c0.5,1.2,1.7,2,3,2h92.4c1.3,0,2.5-0.8,3-2C154.9,141,154.6,139.6,153.7,138.7z M60.8,140.1l40.3-41.7   c1.1-1.1,2.5-1.7,4-1.7c1.5,0,3,0.6,4,1.7l40.3,41.7H60.8z"/><polygon points="43.5,15.5 5.4,42.2 5.4,132.1 38.5,132.1 38.5,128.1 9.4,128.1 9.4,44.3 43.5,20.4 77.5,44.3 77.5,113.6    81.5,109.4 81.5,42.2  "/><path d="M56.4,71.9L56.4,71.9l0-5.7l0-3.4l0,0v-8.1h-4v10.6l-3.8,2.4v-13h-4v15.6l-0.8,0.5c-0.4,0.3-0.8,0.6-1.1,0.9   c-0.3-0.3-0.7-0.6-1.1-0.9l-0.8-0.5V54.6h-4v13.1l-3.8-2.4V54.6h-4v8.2l0,0l0,4v5.1l0,0l0,4V81l0,0l0,4v5l0,0l0,4v5.1l0,0l0,4v6h0   c0,2.3,1.2,4.5,3.1,5.7l8.6,5.4l0,2.5l0,0v21.8h4v-21.8l0,0l0-2.5l8.6-5.4c1.9-1.2,3.1-3.4,3.1-5.7h0v-6.7l0-3.4l0,0v-5.7l0-3.4   l0,0v-5.7l0-3.4l0,0v-5.7L56.4,71.9z M51.2,102.4l-6.5,4.1l0-2.8c0-0.9,0.4-1.7,1.1-2.2l6.7-4.2l0,2.8   C52.4,101,51.9,101.9,51.2,102.4z M40.7,106.5l-6.5-4.1c-0.8-0.5-1.2-1.4-1.2-2.3l0-2.8l6.7,4.2c0.7,0.5,1.1,1.3,1.1,2.2l0,0.6   l0,0.4l0,0L40.7,106.5z M32.9,91l0-2.8l2.8,1.7l3.7,2.3c0.8,0.5,1.2,1.4,1.2,2.3l0,0.6l0,0.4l0,0l0,1.8L34,93.2   C33.4,92.7,32.9,91.9,32.9,91z M52.4,91c0,0.9-0.4,1.7-1.1,2.2l-6.7,4.2l0-2.8c0-1,0.5-1.8,1.2-2.3l6.5-4.1L52.4,91z M51.2,84.2   l-6.5,4.1l0-2.8c0-0.9,0.5-1.8,1.2-2.3l6.6-4.1l0,2.8C52.4,82.9,51.9,83.8,51.2,84.2z M39.5,83.2c0.7,0.5,1.2,1.3,1.2,2.3l0,0.6   l0,0.4l0,0l0,1.9l-6.5-4.1l0,0c-0.8-0.5-1.2-1.4-1.2-2.3l0-2.8L39.5,83.2z M52.4,72.8c0,0.9-0.5,1.8-1.2,2.3l-6.6,4.1l0-2.8   c0-1,0.5-1.8,1.2-2.3l6.5-4.1L52.4,72.8z M39.4,74.1c0.8,0.5,1.2,1.4,1.2,2.3l0,2.8l-6.6-4.1c-0.7-0.5-1.2-1.3-1.2-2.3l0-2.8   L39.4,74.1z M34.2,111.5L34.2,111.5c-0.8-0.5-1.2-1.4-1.2-2.3l0-2.8l6.5,4.1c0.8,0.5,1.2,1.4,1.2,2.3l0,0.6l0,0.4l0,0l0,1.9   L34.2,111.5z M51.2,111.5l-6.5,4.1l0-2.8c0-0.9,0.5-1.8,1.2-2.3l6.5-4.1l0,2.8C52.4,110.1,51.9,111,51.2,111.5z"/></g><text x="0" y="175" fill="#000000" font-size="5px" font-weight="bold" font-family="'Helvetica Neue', Helvetica, Arial-Unicode, Arial, Sans-serif">Created by Symbolon</text><text x="0" y="180" fill="#000000" font-size="5px" font-weight="bold" font-family="'Helvetica Neue', Helvetica, Arial-Unicode, Arial, Sans-serif">from the Noun Project</text></svg>