<svg xmlns:dc="http://purl.org/dc/elements/1.1/" xmlns:cc="http://creativecommons.org/ns#" xmlns:rdf="http://www.w3.org/1999/02/22-rdf-syntax-ns#" xmlns:svg="http://www.w3.org/2000/svg" xmlns="http://www.w3.org/2000/svg" xmlns:sodipodi="http://sodipodi.sourceforge.net/DTD/sodipodi-0.dtd" xmlns:inkscape="http://www.inkscape.org/namespaces/inkscape" version="1.1" viewBox="0 0 32 40" x="0px" y="0px"><g transform="translate(0,-1020.3622)"><path style="color:#000000;font-style:normal;font-variant:normal;font-weight:normal;font-stretch:normal;font-size:medium;line-height:normal;font-family:sans-serif;text-indent:0;text-align:start;text-decoration:none;text-decoration-line:none;text-decoration-style:solid;text-decoration-color:#000000;letter-spacing:normal;word-spacing:normal;text-transform:none;direction:ltr;writing-mode:lr-tb;baseline-shift:baseline;text-anchor:start;white-space:normal;clip-rule:nonzero;display:inline;overflow:visible;visibility:visible;opacity:1;isolation:auto;mix-blend-mode:normal;color-interpolation:sRGB;color-interpolation-filters:linearRGB;solid-color:#000000;solid-opacity:1;fill:#000000;fill-opacity:1;fill-rule:nonzero;stroke:none;stroke-width:1;stroke-linecap:round;stroke-linejoin:round;stroke-miterlimit:4;stroke-dasharray:none;stroke-dashoffset:0;stroke-opacity:1;color-rendering:auto;image-rendering:auto;shape-rendering:auto;text-rendering:auto;enable-background:accumulate" d="m 16,1021.3625 c -6.20647,0 -11.25,5.0266 -11.25,11.2168 0,4.616 2.7615,9.2498 5.48047,12.7578 2.71896,3.5079 5.43945,5.9004 5.43945,5.9004 a 0.50005,0.50005 0 0 0 0.66016,0 c 0,0 3.83887,-3.3717 6.96289,-7.998 0.1519,-0.225 0.30109,-0.4527 0.44921,-0.6836 a 0.50005,0.50005 0 1 0 -0.84179,-0.5391 c -0.14371,0.2239 -0.28975,0.4453 -0.4375,0.6641 -2.81794,4.173 -5.98491,7.051 -6.4668,7.4843 -0.45591,-0.4111 -2.58561,-2.3592 -4.97461,-5.4414 C 8.36544,1041.297 5.75,1036.7893 5.75,1032.5793 c 0,-5.6481 4.58233,-10.2168 10.25,-10.2168 4.54942,0 8.39936,2.9496 9.74218,7.0293 0.33007,1.0025 0.50782,2.0731 0.50782,3.1875 0,0.7012 -0.0695,1.4099 -0.20117,2.1211 a 0.50005,0.50005 0 1 0 0.98242,0.1816 c 0.14163,-0.7648 0.21875,-1.5338 0.21875,-2.3027 0,-1.2213 -0.19586,-2.4002 -0.5586,-3.5019 -1.47565,-4.4833 -5.7095,-7.7149 -10.6914,-7.7149 z m 0,3.4785 c -4.44171,0 -8.05272,3.606 -8.05274,8.041 -4e-5,4.435 3.61099,8.0391 8.05274,8.0391 4.44175,0 8.05473,-3.6041 8.05468,-8.0391 0,-4.435 -3.61297,-8.041 -8.05468,-8.041 z m 0,1 c 3.90227,0 7.05467,3.1475 7.05468,7.041 5e-5,3.8935 -3.15237,7.0391 -7.05468,7.0391 -3.90231,0 -7.05277,-3.1456 -7.05274,-7.0391 2e-5,-3.8935 3.15046,-7.041 7.05274,-7.041 z m -0.006,2.5215 a 0.50005,0.50005 0 0 0 -0.49414,0.5059 l 0,0.7402 c -2.33277,0.2401 -4.15626,2.254 -4.15625,4.7031 a 0.50004997,0.50004997 0 0 0 0.002,0.051 l -0.41797,0 a 0.50004994,0.50004994 0 1 0 0,1 l 10.14649,0 a 0.50004994,0.50004994 0 1 0 0,-1 l -0.50782,0 a 0.50004997,0.50004997 0 0 0 0.002,-0.051 c 10e-6,-2.4176 -1.77873,-4.4109 -4.06836,-4.6933 l 0,-0.75 a 0.50005,0.50005 0 0 0 -0.50586,-0.5059 z m -0.0391,2.1992 c 1.99213,0 3.61328,1.6641 3.61328,3.75 a 0.50004997,0.50004997 0 0 0 0.002,0.051 l -7.22852,0 a 0.50004997,0.50004997 0 0 0 0.002,-0.051 c -10e-6,-2.0859 1.61919,-3.75 3.61133,-3.75 z m 9.79882,6.4141 a 0.50005,0.50005 0 0 0 -0.4414,0.332 c -0.18104,0.4864 -0.38406,0.9704 -0.60547,1.4492 -0.0754,0.163 -0.15294,0.3246 -0.23242,0.4864 a 0.50050456,0.50050456 0 1 0 0.89843,0.4414 c 0.0828,-0.1685 0.1634,-0.3374 0.24219,-0.5078 0.23125,-0.5 0.44399,-1.007 0.63477,-1.5196 a 0.50005,0.50005 0 0 0 -0.44532,-0.6816 0.50005,0.50005 0 0 0 -0.0508,0 z"/></g><style type="text/css">
	.st0{fill:#030102;}
</style><text x="0" y="47" fill="#000000" font-size="5px" font-weight="bold" font-family="'Helvetica Neue', Helvetica, Arial-Unicode, Arial, Sans-serif">Created by Dev Patel</text><text x="0" y="52" fill="#000000" font-size="5px" font-weight="bold" font-family="'Helvetica Neue', Helvetica, Arial-Unicode, Arial, Sans-serif">from the Noun Project</text></svg>