<svg xmlns="http://www.w3.org/2000/svg" xmlns:xlink="http://www.w3.org/1999/xlink" version="1.1" x="0px" y="0px" viewBox="0 0 100 125" enable-background="new 0 0 100 100" xml:space="preserve"><path d="M72.0349121,39.5426598c0.1494141-0.1239014,0.300354-0.2441406,0.4467773-0.374939  c4.5898438-4.0957031,7.7939453-9.2099609,9.0224609-14.4003906c1.2587891-5.3203125,0.3056641-10.0957031-2.6855469-13.4472656  c-5.8212891-6.5219727-17.8164063-5.5366211-27.3125,2.2456055c-0.2460938,0.2011719-0.3808594,0.5073242-0.3652344,0.824707  l0.3378906,6.5859375c0.0244141,0.4692383,0.3720703,0.8583984,0.8349609,0.9350586l0.3638306,0.0604248  c-4.1542969,4.614563-7.2106934,9.0968628-8.6785889,15.1073608c-2.3220825,0.1363525-4.5655518,0.3540649-6.7211304,0.6400757  l-0.7067871-5.364502l7.5830078-2.7495117c0.4414063-0.1601563,0.7124023-0.605957,0.6503906-1.0712891l-1.0595703-7.9907227  l5.4438477-1.9731445c0.3544922-0.128418,0.6064453-0.4453125,0.6523438-0.8203125  c0.0449219-0.3745117-0.125-0.7421875-0.4384766-0.9516602l-0.2792969-0.1879883  c-0.2915039-0.1962891-0.5830078-0.3925781-0.8886719-0.578125c-5.2578125-3.1933594-11.0932617-4.7587891-16.4077148-4.4228516  c-5.4560547,0.3500977-9.7451172,2.6572266-12.0766602,6.496582c-3.852478,6.3434448-1.2098999,15.3563843,5.9230957,22.1030884  c-8.6466675,2.7241821-14.0915527,6.90448-14.0915527,11.6732788c0,0.6615601,0.116394,1.3102417,0.3198242,1.9468994  l1.8564453,12.4681358c2.2299805,14.9755859,16.9365234,26.4414063,34.2089844,26.6708984  c1.0869141,0.0136719,2.1806641,0.0214844,3.2783203,0.0214844l0.3251953-0.0009766  c17.5019531-0.0224609,32.40625-11.4902344,34.6679688-26.6757813l1.8580933-12.4780846  c0.2046509-0.6384888,0.3215942-1.2890625,0.3215942-1.9525757C88.4182129,46.7050743,82.0001831,42.2221642,72.0349121,39.5426598z   M31.954834,13.6052208c0.4375-0.0283203,0.878418-0.0419922,1.3232422-0.0419922  c4.3496094,0,9.0073242,1.3330078,13.3149414,3.8203125l-4.2861328,1.5537109  c-0.4414063,0.159668-0.7124023,0.605957-0.6503906,1.0712891l1.0595703,7.9907227l-7.5825195,2.7495117  c-0.4414063,0.159668-0.7119141,0.6054688-0.6503906,1.0708008l0.8153076,6.1852417l0.1316528,0.9989014l0.1077271,0.8173218  l-0.9795532,0.3554688L30.567627,41.624752c-0.2297974-0.1586304-0.4419556-0.3289795-0.6652222-0.4921265  c-0.3530273-0.2578735-0.7092285-0.5136108-1.0455322-0.7820435c-0.3240356-0.258728-0.6295776-0.527832-0.9378052-0.7955322  c-7.1143188-6.1787109-9.9691772-14.6321411-6.4598389-20.4112549  C23.4421387,15.8791466,27.1696777,13.9118614,31.954834,13.6052208z M29.8742676,43.5710411  c0.1665039,0.1108398,0.3598633,0.1679688,0.5546875,0.1679688c0.1147461,0,0.2304688-0.0200195,0.3413086-0.0600586  l6.2050781-2.2519531c0.440918-0.1601563,0.7114258-0.6054688,0.6499023-1.0708008l-0.0839233-0.6370239  c1.9433594-0.2612915,3.9620361-0.4608154,6.0332031-0.5985718c-0.3381958,1.9355469-0.5322876,4.0217896-0.5532837,6.3220215  c-0.78302,1.5065918-1.3035278,3.0283203-1.5872803,4.484436c-11.2242432,1.0806274-19.9036865,4.2495728-22.9264526,8.3603516  c-2.4094238-1.4712524-4.0297852-3.1147461-4.6422119-4.8527832c-0.0776367-0.2203369-0.1390991-0.4420166-0.1838379-0.6651611  c-0.0588989-0.2938843-0.0996704-0.5892334-0.0996704-0.8873901c0-4.0325317,5.4860229-7.7037354,13.881897-10.1049805  C28.2313232,42.3991051,29.0250244,43.00494,29.8742676,43.5710411z M46.1159668,36.9776573  c1.1651001-4.3052368,3.2227783-7.8081055,5.9595947-11.2099609c-0.6539307,1.2936401-1.0174561,2.6557617-1.0264893,3.9390869  c-0.0126953,1.8203125,0.6640625,3.2788086,1.9042969,4.1069336c0.6865234,0.4580078,1.4726563,0.6757813,2.3017578,0.6757813  c1.8344116,0,3.8710938-1.0741577,5.4794312-2.9611206c0.1100464,0.3540649,0.4002075,0.6308594,0.7793579,0.6940308  l3.5770874,0.5967407c-0.4279175,0.4559937-0.8665161,0.9153442-1.3231812,1.3798218  c-0.7109375,0.722168-1.4580078,1.4091797-2.2832031,2.0991211c-0.4240112,0.3543091-0.8278809,0.7352905-1.2192993,1.1303711  c-0.2954712,0.2982178-0.5853271,0.6029053-0.8605957,0.9217529c-0.2626343,0.3042603-0.5091553,0.6226807-0.7521973,0.9436646  c-1.5490723,2.0463257-2.694519,4.407959-3.265564,6.8440552c-0.3018188,1.2840576-0.668396,2.4877319-1.0541382,3.4896851  c-0.1983643,0.5151978-0.4014282,0.9804077-0.6040649,1.3687134c-0.1047974,0.2008667-0.21698,0.3942871-0.3286743,0.5881348  c-1.1210327,1.9454956-2.576416,3.5292969-4.152771,4.4919434c-1.5742188,0.9628906-3.0493164,1.1767578-4.15625,0.5986328  c-1.3913574-0.7261963-2.0203857-2.6040649-1.8696899-4.9038086c0.0422974-0.645752,0.1464233-1.3238525,0.3129883-2.0204468  c0.2709351-1.1330566,0.7024536-2.310791,1.3062134-3.4668579l0.1782227-0.3291016l0.0009766-0.2475586  c0.0092163-2.4608765,0.2288818-4.668457,0.6238403-6.7017822c0.0668335-0.3439331,0.1416016-0.6802368,0.218811-1.0140991  C45.9417114,37.6487389,46.026001,37.3102989,46.1159668,36.9776573z M53.1643066,14.7976036  c8.59375-6.8149414,19.1328125-7.7807617,24.1621094-2.1455078c2.5429688,2.8496094,3.3359375,6.9887695,2.2314453,11.6547852  c-1.0888672,4.5996094-3.8808594,9.15625-7.890625,12.8969727l-0.2363281-4.559082  c-0.0244141-0.46875-0.3710938-0.8574219-0.8339844-0.9345703l-1.6045532-0.2677002l-1.1489868-0.1916504l-1.1530151-0.1923828  l-4.0543823-0.6763916l-0.0928345-1.8058472l-0.321228-6.2503052c-0.0036621-0.0706787-0.0279541-0.1345825-0.0455933-0.2008057  c-0.0979004-0.3676147-0.3875122-0.6569214-0.7717285-0.7280884c-0.0062866-0.0011597-0.0112915-0.005127-0.0176392-0.0061646  l-3.5982666-0.5974121l-1.1032104-0.1831665l-1.1923218-0.197998l-1.190918-0.1976929l-0.8674316-0.144043L53.1643066,14.7976036z   M86.3185425,52.7695885c-0.0450439,0.2246094-0.1071167,0.4477539-0.1854858,0.6694946  c-0.6137085,1.7365112-2.2335815,3.3786011-4.6412964,4.8486328c-3.2126465-4.3695068-12.8162231-7.675415-25.0733032-8.539856  c0.3372192-0.9560547,0.6515503-2.029541,0.9157715-3.1524048c0.6002197-2.560791,1.9103394-5.0325928,3.6920776-7.0546875  c14.5476074,1.7097778,25.3919067,6.6694946,25.3919067,12.3413086  C86.4182129,52.180294,86.3774414,52.4756432,86.3185425,52.7695885z M57.9064331,22.839962l2.359436,0.3917236l0.2542114,4.9454956  c-0.1873779,0.4087524-0.3991699,0.81604-0.6633911,1.211731c-1.6611328,2.4863281-4.3154297,3.746582-5.7919922,2.7617188  c-0.8945313-0.5966797-1.0205078-1.7788086-1.015625-2.4301758c0.0087891-1.2792969,0.4873047-2.6923828,1.3466797-3.9790039  C55.3701782,24.2821007,56.6856689,23.2487755,57.9064331,22.839962z M62.8742065,37.7390709  c0.8314209-0.7009277,1.5946045-1.4007568,2.319397-2.1377563c0.7980957-0.8116455,1.5372925-1.6053467,2.2485962-2.3898926  l2.0326538,0.3391113l0.2808838,5.4243164C67.59552,38.4790611,65.2932739,38.0645103,62.8742065,37.7390709z   M44.1662598,58.4484825c0.7011719,0.3662109,1.4702148,0.5478516,2.28125,0.5478516  c1.215332,0,2.5244141-0.4082031,3.8427734-1.2128906c2.0390625-1.2460938,3.8896484-3.328125,5.2119141-5.8613281  c0.0372925-0.0714722,0.0744629-0.1522217,0.1116943-0.2276611c12.5228271,0.7619629,21.4171753,4.0120239,24.15448,7.5498657  c-6.6570435,3.3662109-17.630249,5.6152916-29.769104,5.6152916c-12.1385498,0-23.1116333-2.2492027-29.7683716-5.6155357  c2.4989624-3.2293701,10.1292725-6.2185059,20.9644775-7.295166C41.0845337,54.9097252,42.0934448,57.3668175,44.1662598,58.4484825  z M84.2600098,66.0178146C82.1428223,80.2326584,68.0891113,90.9680099,51.560791,90.9885178l-0.3154297,0.0009766  c-1.0898438,0-2.1738281-0.0078125-3.2524414-0.0214844c-16.3022461-0.2158203-30.1694336-10.9492188-32.2563477-24.9658203  l-1.234375-8.2900352c0.8579102,0.8126221,1.8982544,1.5853271,3.0910034,2.3148804  c0.564209,0.3450928,1.1608887,0.6806641,1.7941895,1.0048828c6.9611816,3.5640221,17.9811401,5.8276939,30.6118774,5.8276939  c12.6306763,0,23.6508789-2.2636108,30.6124268-5.8274498c0.6333008-0.3242188,1.2300415-0.659729,1.7942505-1.0048218  c1.1925659-0.7293701,2.2328491-1.50177,3.0906982-2.3141479L84.2600098,66.0178146z"/><text x="0" y="115" fill="#000000" font-size="5px" font-weight="bold" font-family="'Helvetica Neue', Helvetica, Arial-Unicode, Arial, Sans-serif">Created by Llisole</text><text x="0" y="120" fill="#000000" font-size="5px" font-weight="bold" font-family="'Helvetica Neue', Helvetica, Arial-Unicode, Arial, Sans-serif">from the Noun Project</text></svg>