<svg xmlns="http://www.w3.org/2000/svg" xmlns:xlink="http://www.w3.org/1999/xlink" version="1.1" x="0px" y="0px" viewBox="0 0 160 200" style="enable-background:new 0 0 160 160;" xml:space="preserve"><g><polygon points="73,33 58.9,38.2 58.2,42.8 73.7,37  "/><polygon points="57.6,46.7 57,50.8 58,50.8 74.8,44.6 74.2,40.5  "/><path d="M116.3,68.3l4.1-11.1L115.1,32h-5.7v-6.7h-4V32H81l-1.4-8.7H53.2l-5.3,33.9L52,68.3H34.9v20.4h7.7v5.9h7.9v-4h-3.9v-7.8   h3.9v-4h-7.9v5.9h-3.7V72.3h14.6h13.9h11.9h35.6h14.6v12.4h-3.7v-5.9h-7.9v4h3.9v7.8h-3.9v4h7.9v-5.9h7.7V68.3H116.3z M111.8,36   l4.1,19H84.5l-2.9-19H111.8z M56.6,27.3h19.6L80.5,55H52.3L56.6,27.3z M71.4,68.3H56.3L52.8,59h27.1l-3.4,9.3H71.4z M80.8,68.3   l3.4-9.3h31.3l-3.4,9.3H80.8z"/><polygon points="52.5,94.5 54.5,94.5 56.5,94.5 56.5,75.6 52.5,75.6  "/><polygon points="62.4,94.5 64.4,94.5 66.4,94.5 66.4,75.6 62.4,75.6  "/><polygon points="72.3,94.5 74.3,94.5 76.3,94.5 76.3,75.6 72.3,75.6  "/><polygon points="82.2,94.6 84.2,94.6 86.2,94.6 86.2,75.6 82.2,75.6  "/><polygon points="92.1,94.6 94.1,94.6 96.1,94.6 96.1,75.6 92.1,75.6  "/><polygon points="102,94.6 104,94.6 106,94.6 106,75.6 102,75.6  "/><polygon points="111.9,94.6 113.9,94.6 115.9,94.6 115.9,75.6 111.9,75.6  "/><polygon points="44.2,58.6 17.2,40.2 11.1,41.5 10.6,41.1 9.8,36.6 11.7,33.7 44.1,55.7 44.8,51.3 10.7,28.2 5.5,35.7 6.9,43.5    10.2,45.7 16.3,44.5 46.6,65.1  "/><polygon points="14,115.2 14,119.2 32.8,119.2 35.4,115.2  "/><polygon points="154.5,119.2 154.5,115.2 133.1,115.2 135.7,119.2  "/><polygon points="154.5,136.7 154.5,132.7 144.4,132.7 147,136.7 151.8,136.7  "/><polygon points="24.1,132.7 14,132.7 14,136.7 21.5,136.7  "/><polygon points="53.1,102.6 66.5,102.6 57.9,136.7 62,136.7 70.6,102.6 82.2,102.6 82.2,136.7 86.2,136.7 86.2,102.6 98.8,102.6    107.3,136.7 111.5,136.7 102.9,102.6 115.4,102.6 137.4,136.7 142.2,136.7 120.2,102.6 154.5,102.6 154.5,98.6 14,98.6 14,102.6    48.3,102.6 26.3,136.7 31,136.7  "/></g><text x="0" y="175" fill="#000000" font-size="5px" font-weight="bold" font-family="'Helvetica Neue', Helvetica, Arial-Unicode, Arial, Sans-serif">Created by Symbolon</text><text x="0" y="180" fill="#000000" font-size="5px" font-weight="bold" font-family="'Helvetica Neue', Helvetica, Arial-Unicode, Arial, Sans-serif">from the Noun Project</text></svg>