<svg xmlns="http://www.w3.org/2000/svg" xmlns:xlink="http://www.w3.org/1999/xlink" version="1.1" x="0px" y="0px" viewBox="0 0 100 125" enable-background="new 0 0 100 100" xml:space="preserve"><path fill="none" stroke="#000000" stroke-width="2" stroke-miterlimit="10" d="M62.8,53.9c0,3.3-0.1,10.1-1.9,14.6  c-1.9,4.6-7.2,7.9-10.5,9.6c-1.6,0.8-3.4,0.8-5,0c-3.2-1.7-8.6-5-10.4-9.6c-1.9-4.5-2-11.3-2-14.6"/><line fill="none" stroke="#000000" stroke-width="2" stroke-miterlimit="10" x1="43" y1="54" x2="43" y2="36"/><path fill="none" stroke="#000000" stroke-width="2" stroke-miterlimit="10" d="M48,54"/><line fill="none" stroke="#000000" stroke-width="2" stroke-miterlimit="10" x1="51" y1="54" x2="51" y2="36"/><path fill="none" stroke="#000000" stroke-width="2" stroke-miterlimit="10" d="M44.8,62.8c0-1.7-1.4-3.1-3.1-3.1s-3.1,1.4-3.1,3.1"/><path fill="none" stroke="#000000" stroke-width="2" stroke-miterlimit="10" d="M56.8,62.8c0-1.7-1.4-3.1-3.1-3.1s-3.1,1.4-3.1,3.1"/><path d="M39.8,69.8c0.7,2.1,2.9,3.2,5,2.5c2.1-0.7,3.2-2.9,2.5-5"/><path d="M48.5,67.3c-0.7,2.1,0.3,4.4,2.4,5.1C53,73.1,55.3,72,56,70"/><polyline fill="none" stroke="#000000" stroke-width="2" stroke-miterlimit="10" points="32,36 32.1,48 48,48 "/><polyline fill="none" stroke="#000000" stroke-width="2" stroke-miterlimit="10" points="32,42.9 32.1,54 48,54 "/><polyline fill="none" stroke="#000000" stroke-width="2" stroke-miterlimit="10" points="48,54 63.7,54 63.7,43 "/><path fill="none" stroke="#000000" stroke-width="2" stroke-miterlimit="10" d="M55.4,75.5c0,0,3.7-3.2,8.1,0.5c0,0-4.1,4.5-7.7-0.1  "/><path fill="none" stroke="#000000" stroke-width="2" stroke-miterlimit="10" d="M55.5,76.8c0,0-3.7,4.3,0.6,9.5c0,0,5.3-4.7-0.1-9"/><path fill="none" stroke="#000000" stroke-width="2" stroke-miterlimit="10" d="M48,48h15.7l0-11l-0.2-4.7c0-6.6-5.3-11.9-11.9-11.9  c-0.6,0-1.1,0.1-1.6,0.1c-2.2-2.4-5.3-3.9-8.8-3.9c-6.2,0-11.4,4.8-11.9,10.9c-3.8,1-6.5,4.5-6.5,8.6c0,4.9,4,8.9,8.9,8.9"/><path fill="none" stroke="#000000" stroke-width="2" stroke-linejoin="round" stroke-miterlimit="10" d="M38.9,74.4  c-0.1,0.3,8.8,14.1,8.8,14.1L54.8,77H54"/><text x="0" y="115" fill="#000000" font-size="5px" font-weight="bold" font-family="'Helvetica Neue', Helvetica, Arial-Unicode, Arial, Sans-serif">Created by Madebyelvis</text><text x="0" y="120" fill="#000000" font-size="5px" font-weight="bold" font-family="'Helvetica Neue', Helvetica, Arial-Unicode, Arial, Sans-serif">from the Noun Project</text></svg>