<svg xmlns:dc="http://purl.org/dc/elements/1.1/" xmlns:cc="http://creativecommons.org/ns#" xmlns:rdf="http://www.w3.org/1999/02/22-rdf-syntax-ns#" xmlns:svg="http://www.w3.org/2000/svg" xmlns="http://www.w3.org/2000/svg" xmlns:sodipodi="http://sodipodi.sourceforge.net/DTD/sodipodi-0.dtd" xmlns:inkscape="http://www.inkscape.org/namespaces/inkscape" version="1.1" x="0px" y="0px" viewBox="0 0 128 160" enable-background="new 0 0 128 128" xml:space="preserve"><path style="" d="M 104 1.5 C 101 1.5 98.100391 2.0992187 95.400391 3.1992188 L 95.300781 3.1992188 L 12.699219 39.699219 C 12.699219 39.699219 12.599609 39.700781 12.599609 39.800781 C 6.0996094 42.300781 1.5 48.6 1.5 56 C 1.5 60.4 3.1007813 64.300391 5.8007812 67.400391 C 5.9007812 67.500391 5.9 67.599609 6 67.599609 L 50 113.90039 C 50.6 114.50039 51.099219 115.09922 51.699219 115.69922 L 52.099609 116.09961 L 52.400391 116.40039 C 59.100391 122.70039 68.1 126.5 78 126.5 C 96.1 126.5 111.30078 113.60039 114.80078 96.400391 L 114.80078 96.300781 L 114.90039 95.900391 C 115.00039 95.400391 115.09922 94.800781 115.19922 94.300781 L 126 28.5 C 126.3 27 126.5 25.5 126.5 24 C 126.5 11.6 116.4 1.5 104 1.5 z M 104 6.5 C 113.6 6.5 121.5 14.4 121.5 24 C 121.5 33.6 113.6 41.5 104 41.5 C 94.4 41.5 86.5 33.6 86.5 24 C 86.5 14.4 94.4 6.5 104 6.5 z M 84 13.599609 C 82.4 16.699609 81.5 20.200391 81.5 23.900391 C 81.5 36.300391 91.6 46.400391 104 46.400391 C 109.7 46.400391 115.00039 44.199219 118.90039 40.699219 L 113.09961 75.699219 C 107.79961 61.599219 94.1 51.5 78 51.5 C 57.3 51.5 40.5 68.3 40.5 89 C 40.5 92 40.9 95.000781 41.5 97.800781 L 18.400391 73.5 L 19 73.5 C 28.6 73.5 36.5 65.6 36.5 56 C 36.5 48.5 31.799219 42.099609 25.199219 39.599609 L 84 13.599609 z M 104 16.5 C 99.9 16.5 96.5 19.9 96.5 24 C 96.5 28.1 99.9 31.5 104 31.5 C 108.1 31.5 111.5 28.1 111.5 24 C 111.5 19.9 108.1 16.5 104 16.5 z M 104 21.5 C 105.4 21.5 106.5 22.6 106.5 24 C 106.5 25.4 105.4 26.5 104 26.5 C 102.6 26.5 101.5 25.4 101.5 24 C 101.5 22.6 102.6 21.5 104 21.5 z M 19 43.5 C 25.9 43.5 31.5 49.1 31.5 56 C 31.5 62.9 25.9 68.5 19 68.5 C 15.6 68.5 12.499219 67.100391 10.199219 64.900391 L 10.099609 64.800781 C 7.8996094 62.500781 6.5 59.499609 6.5 56.099609 C 6.5 49.099609 12.1 43.5 19 43.5 z M 19 52 C 16.8 52 15 53.8 15 56 C 15 58.2 16.8 60 19 60 C 21.2 60 23 58.2 23 56 C 23 53.8 21.2 52 19 52 z M 19 55 C 19.6 55 20 55.4 20 56 C 20 56.6 19.6 57 19 57 C 18.4 57 18 56.6 18 56 C 18 55.4 18.4 55 19 55 z M 77.900391 56.5 C 95.800391 56.5 110.40039 71.1 110.40039 89 C 110.40039 90.5 110.29961 92.099609 110.09961 93.599609 L 109.80078 95.099609 C 107.10078 110.09961 93.8 121.5 78 121.5 C 69.2 121.5 61.200781 118.00078 55.300781 112.30078 L 53.599609 110.5 C 48.499609 104.8 45.400391 97.2 45.400391 89 C 45.400391 71.1 60.000391 56.5 77.900391 56.5 z M 78 66.5 C 76.6 66.5 75.5 67.6 75.5 69 L 75.5 76.800781 C 73.9 77.100781 72.399609 77.799609 71.099609 78.599609 L 65.599609 73.099609 C 64.599609 72.099609 62.999609 72.099609 62.099609 73.099609 C 61.099609 74.099609 61.099609 75.699609 62.099609 76.599609 L 67.599609 82.099609 C 66.699609 83.399609 66.100781 84.9 65.800781 86.5 L 58 86.5 C 56.6 86.5 55.5 87.6 55.5 89 C 55.5 90.4 56.6 91.5 58 91.5 L 65.800781 91.5 C 66.100781 93.1 66.799609 94.600391 67.599609 95.900391 L 62.099609 101.40039 C 61.099609 102.40039 61.099609 104.00039 62.099609 104.90039 C 62.599609 105.40039 63.200391 105.59961 63.900391 105.59961 C 64.600391 105.59961 65.199219 105.40039 65.699219 104.90039 L 71.199219 99.400391 C 72.499219 100.30039 73.999609 100.89922 75.599609 101.19922 L 75.599609 109 C 75.599609 110.4 76.699609 111.5 78.099609 111.5 C 79.499609 111.5 80.599609 110.4 80.599609 109 L 80.599609 101.19922 C 82.199609 100.89922 83.7 100.20039 85 99.400391 L 90.5 104.90039 C 91 105.40039 91.600781 105.59961 92.300781 105.59961 C 93.000781 105.59961 93.599609 105.40039 94.099609 104.90039 C 95.099609 103.90039 95.099609 102.30039 94.099609 101.40039 L 88.599609 95.900391 C 89.499609 94.600391 90.100391 93.1 90.400391 91.5 L 98 91.5 C 99.4 91.5 100.5 90.4 100.5 89 C 100.5 87.6 99.4 86.5 98 86.5 L 90.199219 86.5 C 89.899219 84.9 89.200391 83.399609 88.400391 82.099609 L 93.900391 76.599609 C 94.900391 75.599609 94.900391 73.999609 93.900391 73.099609 C 92.900391 72.099609 91.300391 72.099609 90.400391 73.099609 L 84.900391 78.599609 C 83.600391 77.699609 82.1 77.100781 80.5 76.800781 L 80.5 69 C 80.5 67.6 79.4 66.5 78 66.5 z M 78 81.5 C 82.1 81.5 85.5 84.9 85.5 89 C 85.5 93.1 82.1 96.5 78 96.5 C 73.9 96.5 70.5 93.1 70.5 89 C 70.5 84.9 73.9 81.5 78 81.5 z " fill="#000000"/><text x="0" y="143" fill="#000000" font-size="5px" font-weight="bold" font-family="'Helvetica Neue', Helvetica, Arial-Unicode, Arial, Sans-serif">Created by Kokota</text><text x="0" y="148" fill="#000000" font-size="5px" font-weight="bold" font-family="'Helvetica Neue', Helvetica, Arial-Unicode, Arial, Sans-serif">from the Noun Project</text></svg>