<svg xmlns="http://www.w3.org/2000/svg" data-name="Layer 1" viewBox="0 0 100 125" x="0px" y="0px"><title>icons_food_7</title><path d="M11.78,94.2v3.73H90V94.1A8.56,8.56,0,0,0,97,85.71v-1H91V77.6A12.13,12.13,0,0,0,81.7,65.83V59a12.76,12.76,0,0,0-12-12.71v-.21a19.14,19.14,0,0,0-12.79-18A6.14,6.14,0,0,0,51.62,21c-.43-2.15-2.06-7.94-7.22-10.22,3.34-.91,9.84-3.3,9.62-8l0-.83-.83-.11c-9-1.23-11.59,7.38-11.8,8.14a13,13,0,0,0-1.61-.11v2c7.22,0,9.32,6.64,9.86,9.21a6.14,6.14,0,0,0-5,7,19.13,19.13,0,0,0-13.1,18.09v.21A12.76,12.76,0,0,0,19.5,59v6.83A12.13,12.13,0,0,0,10.23,77.6v7.11h-6v1A8.56,8.56,0,0,0,11.78,94.2ZM51.48,3.67h.44c-.7,2.61-5,4.34-8,5.15A8.26,8.26,0,0,1,51.48,3.67ZM88,95.92H13.78V94.26H88Zm-37.26-73a4.19,4.19,0,1,1-4.19,4.19A4.2,4.2,0,0,1,50.76,22.9Zm-5.52,7a6.18,6.18,0,0,0,11,.09A17,17,0,0,1,64,35.59,5.78,5.78,0,0,0,62.47,37c-.63.75-1,1.14-1.76,1.14s-1.13-.39-1.76-1.14a3.86,3.86,0,0,0-6.58,0c-.63.75-1,1.14-1.76,1.14s-1.13-.39-1.76-1.14a3.86,3.86,0,0,0-6.58,0c-.63.75-1,1.14-1.76,1.14s-1.13-.39-1.76-1.14a5.78,5.78,0,0,0-1.55-1.4A17,17,0,0,1,45.24,29.89ZM33.54,46.08A17,17,0,0,1,36,37.25a3.21,3.21,0,0,1,1.17,1,3.85,3.85,0,0,0,6.58,0c.63-.75,1-1.14,1.76-1.14s1.13.39,1.76,1.14a3.86,3.86,0,0,0,6.58,0c.63-.75,1-1.14,1.76-1.14s1.13.39,1.77,1.14a3.86,3.86,0,0,0,6.58,0,3.21,3.21,0,0,1,1.17-1,17,17,0,0,1,2.49,8.82v.17H33.54Zm-1.29,2.17h36.7a10.74,10.74,0,0,1,9,5,7.9,7.9,0,0,0-4.05,3c-1.18,1.39-2.11,2.49-4.06,2.49s-2.88-1.1-4.06-2.49S63.11,53,60.23,53s-4.31,1.7-5.58,3.2-2.11,2.49-4.06,2.49-2.88-1.1-4.06-2.49S43.82,53,40.95,53s-4.31,1.7-5.58,3.2-2.11,2.49-4.06,2.49-2.88-1.1-4.06-2.49a7.9,7.9,0,0,0-4-3A10.74,10.74,0,0,1,32.25,48.25ZM21.5,65.48V59a10.68,10.68,0,0,1,.76-3.94c1.55.2,2.41,1.21,3.46,2.45,1.27,1.5,2.71,3.2,5.58,3.2s4.31-1.7,5.58-3.2S39,55,40.95,55s2.88,1.1,4.06,2.49,2.71,3.2,5.59,3.2,4.31-1.7,5.58-3.2S58.29,55,60.23,55s2.88,1.1,4.06,2.49,2.71,3.2,5.59,3.2,4.32-1.7,5.59-3.2c1.05-1.24,1.91-2.25,3.47-2.45A10.68,10.68,0,0,1,79.7,59v6.48H21.5Zm.85,2h56.5A10.1,10.1,0,0,1,87,71.59c-2.36.64-3.82,2.32-5.12,3.86-1.56,1.84-2.9,3.43-5.64,3.43s-4.09-1.59-5.65-3.43-3.5-4.14-7.17-4.14-5.53,2.2-7.17,4.14-2.9,3.43-5.64,3.43-4.08-1.59-5.64-3.43-3.5-4.14-7.17-4.14-5.53,2.2-7.17,4.14-2.9,3.43-5.64,3.43-4.08-1.59-5.64-3.43c-1.3-1.54-2.75-3.22-5.11-3.86A10.1,10.1,0,0,1,22.35,67.48ZM12.23,77.6a10,10,0,0,1,.93-4.21c2.1.34,3.29,1.75,4.65,3.35,1.64,1.94,3.5,4.14,7.17,4.14s5.53-2.2,7.17-4.14,2.9-3.43,5.64-3.43,4.08,1.59,5.64,3.43,3.5,4.14,7.17,4.14,5.53-2.2,7.17-4.14,2.9-3.43,5.64-3.43S67.48,74.9,69,76.74s3.5,4.14,7.17,4.14,5.53-2.2,7.17-4.14c1.36-1.6,2.56-3,4.66-3.35A10,10,0,0,1,89,77.6v7.11H12.23Zm-2,9.11H94.89a6.56,6.56,0,0,1-6.47,5.55H12.78a6.56,6.56,0,0,1-6.47-5.55Z"/><text x="0" y="115" fill="#000000" font-size="5px" font-weight="bold" font-family="'Helvetica Neue', Helvetica, Arial-Unicode, Arial, Sans-serif">Created by Iconic</text><text x="0" y="120" fill="#000000" font-size="5px" font-weight="bold" font-family="'Helvetica Neue', Helvetica, Arial-Unicode, Arial, Sans-serif">from the Noun Project</text></svg>