<svg xmlns="http://www.w3.org/2000/svg" xmlns:xlink="http://www.w3.org/1999/xlink" version="1.1" x="0px" y="0px" viewBox="0 0 100 125" style="enable-background:new 0 0 100 100;" xml:space="preserve"><path d="M79.4,40.5l-6.2-13.2c-0.3-0.7-1-1.1-1.7-1.1H28.6c-0.7,0-1.4,0.4-1.7,1.1l-6.2,13.2c-0.9,2-0.9,4.3,0.2,6.2  c1,1.8,2.8,3,4.8,3.2c0.2,0,0.5,0,0.7,0c0.4,0,0.8,0,1.2-0.1v23c0,0.6,0.4,1,1,1h42.7c0.6,0,1-0.4,1-1v-23c0.4,0.1,0.8,0.1,1.2,0.1  c0.2,0,0.5,0,0.7,0c2-0.2,3.8-1.4,4.8-3.2C80.2,44.8,80.3,42.5,79.4,40.5z M46.9,71.8h-12V56.5h12V71.8z M70.4,71.8H48.9V55.5  c0-0.6-0.4-1-1-1h-14c-0.6,0-1,0.4-1,1v16.3h-3.3V49.1c1.1-0.6,2-1.5,2.7-2.5c1.2,2,3.4,3.3,5.9,3.3c2.5,0,4.7-1.3,5.9-3.3  c1.2,2,3.4,3.3,5.9,3.3c2.5,0,4.7-1.3,5.9-3.3c1.2,2,3.4,3.3,5.9,3.3c2.5,0,4.7-1.3,5.9-3.3c0.6,1.1,1.6,1.9,2.7,2.5V71.8z   M77.4,45.7c-0.7,1.3-1.9,2.1-3.3,2.2c-0.2,0-0.3,0-0.5,0c-2.4,0-4.4-1.7-4.8-4c-0.1-0.5-0.5-0.9-1.1-0.9s-1,0.4-1.1,0.9  c-0.4,2.3-2.4,4-4.8,4c-2.4,0-4.4-1.7-4.8-4c-0.1-0.5-0.5-0.9-1.1-0.9s-1,0.4-1.1,0.9c-0.4,2.3-2.4,4-4.8,4c-2.4,0-4.4-1.7-4.8-4  c-0.1-0.5-0.5-0.9-1.1-0.9s-1,0.4-1.1,0.9c-0.4,2.3-2.4,4-4.8,4s-4.4-1.7-4.8-4c-0.1-0.5-0.5-0.9-1.1-0.9c-0.5,0-1,0.4-1.1,0.9  c-0.4,2.3-2.4,4-4.8,4c-0.2,0-0.3,0-0.5,0c-1.4-0.1-2.6-0.9-3.3-2.2c-0.8-1.4-0.8-3-0.2-4.4l6.2-13.1l42.7,0l6.2,13.2  C78.2,42.7,78.1,44.4,77.4,45.7z M66.6,54.5H56.1c-0.6,0-1,0.4-1,1v5.4c0,0.6,0.4,1,1,1h10.5c0.6,0,1-0.4,1-1v-5.4  C67.6,55,67.1,54.5,66.6,54.5z M65.6,59.9h-8.5v-3.4h8.5V59.9z"/><text x="0" y="115" fill="#000000" font-size="5px" font-weight="bold" font-family="'Helvetica Neue', Helvetica, Arial-Unicode, Arial, Sans-serif">Created by Mello</text><text x="0" y="120" fill="#000000" font-size="5px" font-weight="bold" font-family="'Helvetica Neue', Helvetica, Arial-Unicode, Arial, Sans-serif">from the Noun Project</text></svg>