<svg xmlns="http://www.w3.org/2000/svg" xmlns:xlink="http://www.w3.org/1999/xlink" version="1.1" x="0px" y="0px" viewBox="0 0 100 125" enable-background="new 0 0 100 100" xml:space="preserve"><path d="M22.1640854,29.399353L9.4945307,11.675416c-0.642334-0.8985596-0.4346313-2.1477661,0.4639893-2.7901001  l2.3331299-1.6677856c0.8985596-0.642334,2.1477661-0.4346313,2.7901001,0.4639893l12.6694326,17.7236938L22.1640854,29.399353z   M90.5486679,49.873291l-0.3497925,10.913147c-0.5322266,16.6123047-13.3222656,30.3515625-29.7509766,31.9599609  l-0.2783203,0.0283203c-1.0576172,0.1015625-2.0830078,0.1914063-3.1035156,0.2753906  c-0.8759766,0.0703125-1.75,0.1054688-2.6171875,0.1054688c-15.2075195,0-28.8105469-10.7128906-32.2587891-25.8300781  l-2.430481-10.6571655c-0.5045166-1.0635986-0.8262329-2.1730347-0.9371948-3.3233032  c-0.4558105-4.7305908,2.5333252-9.3118896,7.8758545-13.0621948c-0.3372192-2.8032227-0.4730835-5.2595825-0.5270996-6.9036255  c-0.6657715,0.041687-1.3371582-0.244812-1.7536621-0.8274536l-1.6717529-2.3386841l5.5870972-3.9941406l1.671936,2.3388672  c0.4165039,0.5827026,0.4703369,1.3106689,0.2153931,1.927124c2.0170898,0.7648315,5.3129883,2.1183472,8.7988281,3.9678345  c4.246521-1.3337402,8.9882813-2.2998657,14.0548706-2.7883911c3.5477295-0.3412476,6.980835-0.4172974,10.2416992-0.2640381  c3.4556885-1.7022095,6.5861816-2.633728,6.855957-2.7125244c0.2724609-0.0786133,0.5654297-0.0395508,0.8066406,0.1098633  c0.2412109,0.1489258,0.4072266,0.394043,0.4580078,0.6728516c0.15802,0.8760376,0.4203491,1.9349365,0.7688599,3.0012207  c10.6499023,2.1677856,17.9852295,7.2471924,18.6295776,13.9309082v0.0004883  C90.9473495,47.5726318,90.8401718,48.7321777,90.5486679,49.873291z M73.0923691,34.7262573  c0.7108154,1.5055542,1.5939941,2.7374268,2.5947876,3.0645752c2.8808594,0.9418945,3.6171875,2.6987305,3.6962891,4.090332  c4.4075317,0.7558594,7.3009033,5.1696167,8.8360596,8.7094116c0.1341553-0.3327026,0.2445068-0.6673584,0.3381958-1.0032959  c0.2757568-0.9889526,0.3833008-1.9893188,0.2866821-2.9927368c-0.0130615-0.1353149-0.0379028-0.2680664-0.0578003-0.4019165  C87.9998398,40.9088135,81.8973618,36.7694702,73.0923691,34.7262573z M32.2017441,39.348877  c1.1169434,2.3014526,2.4144897,4.8276367,3.8120728,7.2714233c0.3216553-0.2236938,0.6410522-0.4494019,0.9825439-0.6569214  l-4.7455444-6.6384888C32.234642,39.3329468,32.2178574,39.3407593,32.2017441,39.348877z M38.7740097,45.0112305  c0.375-0.1804199,0.7568359-0.3535156,1.1488647-0.5151367c-1.8682251-2.1486816-3.8651123-4.2382202-5.7202148-6.0883789  c-0.0379639,0.0167236-0.0749512,0.0339355-0.112793,0.0507813L38.7740097,45.0112305z M41.944603,43.7679443  c0.4558105-0.1400757,0.9235229-0.2624512,1.395813-0.3773804c-2.1438599-2.1436157-4.6190796-4.1497192-6.9772949-5.8735352  c-0.0502319,0.0193481-0.1013184,0.038208-0.1513672,0.0576782C38.092186,39.4713135,40.0896835,41.5915527,41.944603,43.7679443z   M30.5702744,40.5906372c0.781189,2.6102905,1.767334,5.4508057,2.9682617,8.1121826  c0.2808228-0.2871704,0.5648193-0.5722046,0.8726807-0.8431396C33.0021591,45.4180908,31.6986923,42.901001,30.5702744,40.5906372z   M47.4455185,42.7341919c-2.3875732-2.3498535-5.5371704-4.4108887-8.6265259-6.098938  c-0.0613403,0.0203247-0.1235962,0.039978-0.1846924,0.0604248c2.4355469,1.8456421,4.9315186,3.968811,7.0500488,6.2372437  C46.2633896,42.848938,46.8496323,42.7796631,47.4455185,42.7341919z M29.0358505,42.4586182  c0.4710693,3.0335693,1.1884155,6.2714233,2.282959,9.1542358c0.2367554-0.4202271,0.5015869-0.8293457,0.7889404-1.2286377  C30.8781967,47.8087158,29.8585434,45.0534668,29.0358505,42.4586182z M32.1573105,63.6835938  c6.7092285,2.4089355,15.2741089,3.2717285,24.2349243,2.4085083c14.2783203-1.3768311,26.1149902-6.7753906,30.5768433-13.2194214  c-1.1295166-3.2139893-3.8869629-8.5210571-8.2232666-9.0426025c-4.1379395,2.8282471-8.3688965,3.4959106-11.3848267,3.4959106  c-2.4423828,0-4.0869141-0.4262695-4.2353516-0.4667969c-0.5332031-0.1430664-0.8476563-0.6904297-0.7050781-1.2236328  c0.1416016-0.5332031,0.6826172-0.8510742,1.2236328-0.7075195c0.0712891,0.019043,7.0928955,1.791626,13.7388306-2.5933228  c0.0733032-0.9093628-0.2245483-1.9587402-2.3169556-2.6425171c-2.0864258-0.6826172-3.4832764-3.1499634-4.3633423-5.4570923  c-0.2904053-0.7614136-0.5255737-1.5031738-0.7086182-2.1594238c-0.1169434-0.4191895-0.21521-0.8059692-0.2922974-1.135437  c-0.5546265,0.1881104-1.307373,0.4572144-2.1690674,0.7954712c-1.130249,0.4436035-2.4533081,1.0144653-3.802124,1.6957397  c-3.3914795,1.7129517-6.9169922,4.1342773-7.7856445,7.0893555c-0.4111328,1.3999023-0.5126953,2.5576172-0.3007813,3.4404297  c0.0800781,0.3330078-0.0166016,0.684082-0.2548828,0.9301758c-0.2392578,0.2451172-0.5927734,0.3515625-0.921875,0.2822266  c-0.9255981-0.1932373-1.8605347-0.3268433-2.7966309-0.4121704c-0.7290039-0.0664063-1.4586792-0.105896-2.1853027-0.105896  c-0.1071167,0-0.2106934,0.0100098-0.3173218,0.0113525c-0.6389771,0.0081177-1.2682495,0.0418091-1.8890991,0.0968628  c-0.7988892,0.0709229-1.5783081,0.1828613-2.3406982,0.3269043c-0.5440063,0.1027832-1.0765381,0.2230835-1.5986938,0.3607788  c-0.7081299,0.1868286-1.3991699,0.3972778-2.0612183,0.6442261c-0.4574585,0.1705933-0.8997803,0.357605-1.3325195,0.5549927  c-0.6248169,0.2850342-1.2267456,0.5919189-1.7943726,0.928772c-0.3946533,0.2341919-0.7782593,0.4775391-1.1425171,0.7348633  c-0.5664063,0.4000854-1.0797119,0.8354492-1.5656738,1.2865601c-0.3516846,0.326416-0.6798096,0.6647339-0.9855347,1.0150757  c-0.500061,0.5731201-0.9459839,1.1712036-1.3119507,1.8004761c-0.3066406,0.5273438-0.5506592,1.0760498-0.7540894,1.6364136  c-0.348999,0.9613647-0.5535889,1.9624634-0.5657959,2.9978027c-0.0004272,0.0353394-0.0075073,0.069519-0.0075073,0.1049194  c0,1.5996094,0.4316406,3.1650391,1.2827148,4.6542969c0.2436523,0.4257813,0.1416016,0.9667969-0.2407227,1.2744141  C32.6097031,63.286377,32.3791122,63.4857178,32.1573105,63.6835938z M41.475975,35.8259277  c3.2243042,1.9059448,6.3849487,4.2149048,8.6497803,6.8546753c1.1365356,0.0281372,2.2768555,0.1141357,3.4090576,0.2908936  c-0.0009766-0.8979492,0.1621094-1.8955078,0.4921875-3.0146484c0.7796021-2.6533813,3.1585693-4.8759766,5.8598633-6.6274414  c-2.1533813,0.0050049-4.3654785,0.1083984-6.621582,0.3261719C49.0847397,34.0585938,45.1151352,34.8081665,41.475975,35.8259277z   M20.7961655,52.7466431c0.0060425,0.135376,0.0043945,0.2705688,0.0174561,0.4060059  c0.0947266,0.9838867,0.3848877,1.937439,0.8468628,2.8549805c1.352417,2.6858521,4.2386475,5.0490723,8.4319458,6.8730469  c0.2700195-0.2719116,0.5628052-0.5458374,0.8789063-0.8217773c-0.765625-1.5732422-1.152832-3.21875-1.152832-4.9033203  c0-1.0175781,0.1461182-2.0101318,0.4179688-2.9691162c-1.6520996-3.5592651-2.6426392-7.7921753-3.2315674-11.6518555  C22.9476547,45.5968628,20.6359482,49.1466675,20.7961655,52.7466431z M88.3203964,56.9908447l0.086853-2.7095337  c-0.0057373,0.0078735-0.0113525,0.0158081-0.0171509,0.0237427c-0.6347046,0.8724976-1.3829956,1.7225342-2.2373047,2.5454712  c-5.8562622,5.6408081-16.6558838,9.9869995-29.5691528,11.2318115c-2.3417969,0.2255859-4.6601563,0.3378906-6.9306641,0.3378906  c-6.9423828,0-13.4355469-1.0429688-18.7602539-3.0527344c-0.0806274-0.0304565-0.1557007-0.0635376-0.2355957-0.0943604  c-0.3233643-0.1246338-0.6424561-0.2514648-0.9536743-0.3820801c-0.3226318-0.135376-0.633728-0.276123-0.9431152-0.4177856  c-2.4499512-1.1213379-4.4816895-2.4351807-6.0593262-3.9035645l1.43927,6.3104858  c3.4248047,15.0175781,17.5385742,25.4169922,32.7636719,24.1757813c1.0107422-0.0820313,2.0263672-0.171875,3.046875-0.2695313  l0.2939453-0.0292969C75.6852036,89.2454224,87.699852,76.333313,88.2008286,60.7219849L88.3203964,56.9908447z"/><text x="0" y="115" fill="#000000" font-size="5px" font-weight="bold" font-family="'Helvetica Neue', Helvetica, Arial-Unicode, Arial, Sans-serif">Created by Llisole</text><text x="0" y="120" fill="#000000" font-size="5px" font-weight="bold" font-family="'Helvetica Neue', Helvetica, Arial-Unicode, Arial, Sans-serif">from the Noun Project</text></svg>