<svg xmlns:dc="http://purl.org/dc/elements/1.1/" xmlns:cc="http://creativecommons.org/ns#" xmlns:rdf="http://www.w3.org/1999/02/22-rdf-syntax-ns#" xmlns:svg="http://www.w3.org/2000/svg" xmlns="http://www.w3.org/2000/svg" xmlns:sodipodi="http://sodipodi.sourceforge.net/DTD/sodipodi-0.dtd" xmlns:inkscape="http://www.inkscape.org/namespaces/inkscape" version="1.1" x="0px" y="0px" viewBox="0 0 128 160" enable-background="new 0 0 128 128" xml:space="preserve"><path style="" d="M 64 1.5 C 46.9 1.5 31.399609 8.3996094 20.099609 19.599609 C 19.999609 19.699609 19.900781 19.700781 19.800781 19.800781 C 19.700781 19.900781 19.599609 19.999609 19.599609 20.099609 C 8.3996094 31.399609 1.5 46.9 1.5 64 C 1.5 65.1 1.4996094 66.099219 1.5996094 67.199219 L 1.5996094 67.599609 C 1.6996094 68.499609 1.7007813 69.400781 1.8007812 70.300781 L 1.8007812 70.400391 C 3.3007812 84.700391 9.5007812 97.899609 19.800781 108.09961 C 19.900781 108.19961 19.999609 108.30078 20.099609 108.30078 C 31.399609 119.50078 46.9 126.40039 64 126.40039 C 81.1 126.40039 96.600391 119.50078 107.90039 108.30078 C 108.00039 108.20078 108.09922 108.19961 108.19922 108.09961 C 118.49922 97.799609 124.69922 84.600391 126.19922 70.400391 L 126.19922 70.300781 C 126.29922 69.400781 126.40039 68.499609 126.40039 67.599609 L 126.40039 67.199219 C 126.50039 66.099219 126.5 65.1 126.5 64 C 126.5 46.9 119.60039 31.399609 108.40039 20.099609 C 108.30039 19.999609 108.29922 19.900781 108.19922 19.800781 C 108.09922 19.700781 108.00039 19.599609 107.90039 19.599609 C 96.600391 8.3996094 81.1 1.5 64 1.5 z M 61.400391 6.5 L 61.400391 16.599609 L 61.5 16.599609 C 50.3 17.199609 40.099219 21.699219 32.199219 28.699219 L 25.099609 21.599609 C 34.799609 12.699609 47.500391 7.1 61.400391 6.5 z M 66.5 6.5996094 C 80.5 7.1996094 93.200781 12.799219 102.80078 21.699219 L 95.800781 28.699219 C 88.000781 21.599219 77.8 17.099609 66.5 16.599609 L 66.5 6.5996094 z M 64.099609 21.400391 C 87.499609 21.400391 106.59961 40.500391 106.59961 63.900391 C 106.59961 75.300391 102.19922 85.9 94.199219 94 C 93.699219 94.5 93.5 95.100781 93.5 95.800781 C 93.5 96.500781 93.799219 97.099609 94.199219 97.599609 L 103 106.40039 C 92.6 115.80039 79 121.5 64 121.5 C 49 121.5 35.399219 115.80039 25.199219 106.40039 L 34 97.599609 C 34.5 97.099609 34.699219 96.500781 34.699219 95.800781 C 34.699219 95.100781 34.4 94.5 34 94 C 26 86 21.599609 75.300391 21.599609 63.900391 C 21.599609 40.500391 40.699609 21.400391 64.099609 21.400391 z M 106.40039 25.099609 C 115.20039 34.799609 120.80039 47.5 121.40039 61.5 L 111.40039 61.5 C 110.80039 50.3 106.30078 40.099219 99.300781 32.199219 L 106.40039 25.099609 z M 21.599609 25.199219 L 28.699219 32.300781 C 21.599219 40.100781 17.099609 50.299609 16.599609 61.599609 L 6.5996094 61.599609 C 7.1996094 47.499609 12.799609 34.799219 21.599609 25.199219 z M 88.3125 37.150391 C 87.675 37.150391 87.049609 37.400391 86.599609 37.900391 L 70.900391 53.599609 C 68.900391 52.299609 66.6 51.5 64 51.5 C 57.1 51.5 51.5 57.1 51.5 64 C 51.5 70.9 57.1 76.5 64 76.5 C 70.9 76.5 76.5 70.9 76.5 64 C 76.5 61.5 75.700391 59.099609 74.400391 57.099609 L 90.099609 41.400391 C 91.099609 40.400391 91.099609 38.800391 90.099609 37.900391 C 89.599609 37.400391 88.95 37.150391 88.3125 37.150391 z M 64 56.5 C 68.1 56.5 71.5 59.9 71.5 64 C 71.5 68.1 68.1 71.5 64 71.5 C 59.9 71.5 56.5 68.1 56.5 64 C 56.5 59.9 59.9 56.5 64 56.5 z M 6.5996094 66.5 L 16.599609 66.5 C 17.199609 77.4 21.399219 87.700781 28.699219 95.800781 L 21.599609 102.80078 C 14.799609 95.300781 9.7992188 85.999219 7.6992188 75.699219 L 7.6992188 75.5 C 7.4992187 74.7 7.4007813 73.9 7.3007812 73 C 7.3007812 72.9 7.2992187 72.699609 7.1992188 72.599609 C 7.0992187 71.899609 7.0003906 71.100391 6.9003906 70.400391 C 6.9003906 70.200391 6.8007813 70.000781 6.8007812 69.800781 C 6.7007813 69.100781 6.6996094 68.399609 6.5996094 67.599609 L 6.5996094 66.900391 L 6.5996094 66.5 z M 111.40039 66.5 L 121.40039 66.5 L 121.40039 66.900391 L 121.40039 67.599609 C 121.40039 68.299609 121.29922 69.100781 121.19922 69.800781 C 121.19922 70.000781 121.09961 70.200391 121.09961 70.400391 C 120.99961 71.200391 120.90078 71.899609 120.80078 72.599609 C 120.80078 72.699609 120.79922 72.9 120.69922 73 C 120.59922 73.8 120.40078 74.7 120.30078 75.5 L 120.30078 75.699219 C 118.20078 85.999219 113.20039 95.400391 106.40039 102.90039 L 99.300781 95.800781 C 106.60078 87.700781 110.90039 77.4 111.40039 66.5 z M 52.199219 103.30078 C 50.799219 103.30078 49.699219 104.40078 49.699219 105.80078 C 49.699219 107.20078 50.799219 108.30078 52.199219 108.30078 L 75.800781 108.30078 C 77.200781 108.30078 78.300781 107.20078 78.300781 105.80078 C 78.300781 104.40078 77.200781 103.30078 75.800781 103.30078 L 52.199219 103.30078 z " fill="#000000"/><text x="0" y="143" fill="#000000" font-size="5px" font-weight="bold" font-family="'Helvetica Neue', Helvetica, Arial-Unicode, Arial, Sans-serif">Created by Kokota</text><text x="0" y="148" fill="#000000" font-size="5px" font-weight="bold" font-family="'Helvetica Neue', Helvetica, Arial-Unicode, Arial, Sans-serif">from the Noun Project</text></svg>