<svg xmlns="http://www.w3.org/2000/svg" data-name="Layer 1" viewBox="0 0 100 125" x="0px" y="0px"><title>icons_food_6</title><path d="M92.63,76.53V68.32a12.14,12.14,0,0,0-9.8-11.89V48.62A12.76,12.76,0,0,0,70.09,35.87v-.24a20.09,20.09,0,1,0-40.19,0v.24A12.76,12.76,0,0,0,17.18,48.62v7.81a12.14,12.14,0,0,0-9.8,11.89v8.21H2l-1,.09v1a8.9,8.9,0,0,0,8,8.84v3.92H91.63v-4A8.93,8.93,0,0,0,99,77.53v-1ZM50,17.53a18.06,18.06,0,0,1,14.27,7,5.92,5.92,0,0,0-1.68,1.5c-.68.8-1.08,1.22-1.91,1.22s-1.23-.42-1.91-1.22a4,4,0,0,0-6.87,0c-.68.8-1.07,1.22-1.91,1.22s-1.23-.42-1.91-1.22a4,4,0,0,0-6.87,0c-.68.8-1.07,1.22-1.91,1.22s-1.23-.42-1.91-1.22a5.91,5.91,0,0,0-1.68-1.5A18.06,18.06,0,0,1,50,17.53ZM31.91,35.63a18,18,0,0,1,2.66-9.4,3.32,3.32,0,0,1,1.3,1.12,4,4,0,0,0,6.87,0c.68-.8,1.07-1.22,1.91-1.22s1.23.42,1.91,1.22a4,4,0,0,0,6.87,0c.68-.8,1.07-1.22,1.91-1.22s1.23.42,1.91,1.22a4,4,0,0,0,6.87,0,3.31,3.31,0,0,1,1.31-1.12,18,18,0,0,1,2.67,9.4v.24H31.91Zm-2,2.24H70.07a10.74,10.74,0,0,1,9.24,5.29c-2.19.42-3.46,1.9-4.59,3.23S72.47,49,70.39,49,67.26,47.81,66,46.39C64.71,44.81,63.2,43,60.19,43s-4.53,1.79-5.86,3.37C53.12,47.81,52.08,49,50,49s-3.13-1.23-4.33-2.66C44.32,44.81,42.81,43,39.79,43s-4.53,1.79-5.86,3.37C32.73,47.81,31.69,49,29.6,49s-3.12-1.23-4.33-2.66-2.4-2.81-4.58-3.23A10.75,10.75,0,0,1,29.93,37.87ZM19.18,56.2V48.62a10.68,10.68,0,0,1,.62-3.57c1.82.15,2.82,1.3,3.94,2.63C25.08,49.26,26.59,51,29.6,51s4.53-1.79,5.86-3.37C36.67,46.25,37.71,45,39.79,45s3.13,1.23,4.33,2.66C45.47,49.26,47,51,50,51s4.53-1.79,5.86-3.37C57.06,46.25,58.1,45,60.19,45s3.13,1.23,4.34,2.66C65.86,49.26,67.37,51,70.39,51s4.53-1.79,5.86-3.37c1.13-1.33,2.13-2.48,4-2.63a10.68,10.68,0,0,1,.62,3.57V56.2H19.18Zm.32,2h61a10.12,10.12,0,0,1,8.32,4.38c-2.7.59-4.31,2.45-5.74,4.14-1.66,2-3.09,3.65-6,3.65s-4.35-1.69-6-3.65-3.69-4.35-7.54-4.35S57.72,64.68,56,66.72s-3.08,3.65-6,3.65-4.35-1.69-6-3.65-3.69-4.35-7.54-4.35-5.81,2.31-7.53,4.35-3.08,3.65-6,3.65-4.35-1.69-6-3.65c-1.43-1.69-3-3.55-5.73-4.14A10.12,10.12,0,0,1,19.5,58.2ZM9.37,68.32a10.07,10.07,0,0,1,.78-3.9c2.4.28,3.72,1.82,5.22,3.59,1.73,2,3.68,4.35,7.53,4.35s5.81-2.31,7.53-4.35,3.08-3.65,6-3.65,4.35,1.69,6,3.65,3.69,4.35,7.54,4.35S55.8,70.05,57.52,68s3.08-3.65,6-3.65,4.36,1.69,6,3.65,3.69,4.35,7.54,4.35,5.81-2.31,7.54-4.35c1.5-1.77,2.83-3.31,5.23-3.59a10.07,10.07,0,0,1,.78,3.9v8.21H9.37ZM89.63,88.39H11V86.51H89.63Zm.45-3.87H9.92a6.9,6.9,0,0,1-6.82-6H96.9A6.9,6.9,0,0,1,90.08,84.51Z"/><text x="0" y="115" fill="#000000" font-size="5px" font-weight="bold" font-family="'Helvetica Neue', Helvetica, Arial-Unicode, Arial, Sans-serif">Created by Iconic</text><text x="0" y="120" fill="#000000" font-size="5px" font-weight="bold" font-family="'Helvetica Neue', Helvetica, Arial-Unicode, Arial, Sans-serif">from the Noun Project</text></svg>