<svg xmlns:dc="http://purl.org/dc/elements/1.1/" xmlns:cc="http://creativecommons.org/ns#" xmlns:rdf="http://www.w3.org/1999/02/22-rdf-syntax-ns#" xmlns:svg="http://www.w3.org/2000/svg" xmlns="http://www.w3.org/2000/svg" xmlns:sodipodi="http://sodipodi.sourceforge.net/DTD/sodipodi-0.dtd" xmlns:inkscape="http://www.inkscape.org/namespaces/inkscape" version="1.1" x="0px" y="0px" viewBox="0 0 128 160" enable-background="new 0 0 128 128" xml:space="preserve"><path style="" d="M 64 1.5 C 62.6 1.5 61.099219 2.2003906 60.199219 3.4003906 L 60.099609 3.5 L 25.199219 50 C 24.899219 50.2 24.7 50.600391 24.5 50.900391 C 18.9 59.000391 15.900391 68.500391 15.900391 78.400391 C 15.900391 104.90039 37.5 126.5 64 126.5 C 90.5 126.5 112.09922 105 112.19922 78.5 C 112.19922 68.6 109.10078 58.899219 103.30078 50.699219 C 103.20078 50.499219 103.10039 50.299609 102.90039 50.099609 L 67.900391 3.5 L 67.800781 3.4003906 C 66.800781 2.2003906 65.4 1.5 64 1.5 z M 64 6.5996094 L 99 53.199219 L 99.099609 53.300781 C 99.199609 53.400781 99.200781 53.499609 99.300781 53.599609 C 104.50078 60.999609 107.19922 69.6 107.19922 78.5 C 107.09922 102.2 87.7 121.5 64 121.5 C 40.2 121.5 20.900391 102.20039 20.900391 78.400391 C 20.900391 69.500391 23.599219 60.999219 28.699219 53.699219 L 29 53.400391 L 64 6.5996094 z M 64.121094 24.916016 C 63.313477 24.875977 62.5 25.212891 62 25.900391 L 36.5 60.099609 L 36.400391 60.199219 C 32.800391 65.699219 30.900391 71.800391 30.900391 78.400391 C 30.900391 96.700391 45.7 111.5 64 111.5 C 65.4 111.5 66.5 110.4 66.5 109 C 66.5 107.6 65.4 106.5 64 106.5 C 48.5 106.5 35.900391 93.900391 35.900391 78.400391 C 35.900391 72.800391 37.4 67.7 40.5 63 L 66 28.900391 C 66.8 27.800391 66.6 26.200391 65.5 25.400391 C 65.0875 25.100391 64.605664 24.940039 64.121094 24.916016 z " fill="#000000"/><text x="0" y="143" fill="#000000" font-size="5px" font-weight="bold" font-family="'Helvetica Neue', Helvetica, Arial-Unicode, Arial, Sans-serif">Created by Kokota</text><text x="0" y="148" fill="#000000" font-size="5px" font-weight="bold" font-family="'Helvetica Neue', Helvetica, Arial-Unicode, Arial, Sans-serif">from the Noun Project</text></svg>