<svg xmlns="http://www.w3.org/2000/svg" xmlns:xlink="http://www.w3.org/1999/xlink" version="1.1" x="0px" y="0px" viewBox="0 0 100 125" enable-background="new 0 0 100 100" xml:space="preserve"><path d="M81.4078369,33.6407471c0.7866211-0.168457,1.4815063-0.5652466,1.9328613-1.1453857  c0.4267578-0.5493164,0.6132813-1.2148438,0.5253906-1.875l-1.4970703-11.105957c0-0.0004883,0-0.0014648,0-0.0019531  c-0.1982422-1.4438477-1.640625-2.3930664-3.3603516-2.206543c-1.4536743,0.1585083-2.9116211,0.2814941-4.3681641,0.4160767  c-6.1887207-5.5177612-15.3968544-9.9810181-25.4863319-9.9810181c-9.7710571,0-18.5120239,4.4163823-24.3371582,9.9293823  c-1.2756348-0.1204834-2.5529785-0.2255859-3.826416-0.3644409c-1.7172852-0.1845703-3.15625,0.7617188-3.359375,2.2084961  l-1.4970703,11.105957c-0.0888672,0.6586914,0.097168,1.3242188,0.5239258,1.8735352  c0.4512329,0.5808716,1.1466064,0.9780273,1.9334717,1.1466675l-3.9959707,52.3792114  c-0.1386719,1.8251953,1.2875977,3.5957031,3.1142569,3.8662109c10.7128906,1.5820313,21.4975586,2.3740234,32.2871094,2.3730469  c10.7871094,0,21.5791054-0.7910156,32.2929726-2.3730469c1.828125-0.2695313,3.2548828-2.0410156,3.1142578-3.8671875  L81.4078369,33.6407471z M81.9969482,87.9074707c-21.2334023,3.1367188-42.7656288,3.1347656-63.9946327,0  c-0.7993164-0.1181641-1.4726563-0.9462891-1.4125977-1.7363281l3.9893799-52.2908325  c9.7666016,1.0723267,19.5928955,1.62677,29.4207764,1.62677c9.8285522,0,19.6542397-0.5543823,29.420475-1.6266479  l3.9896851,52.291687C83.4705811,86.9621582,82.7977295,87.7893066,81.9969482,87.9074707z M20.5701866,19.282959  c0.0664063,0,0.1347656,0.0039063,0.2041016,0.0112305c0.0775146,0.0084839,0.1553955,0.013855,0.2329712,0.0222168  c0.6697388,0.0724487,1.34198,0.1242676,2.0123291,0.1916504c0.4047852,0.0407104,0.8100586,0.0768433,1.2150269,0.1157227  c0.4130249,0.0396118,0.8259277,0.0802612,1.2391357,0.117981C41.583004,21.211731,57.84515,21.2315063,73.958313,19.7957153  c0.4205933-0.0374756,0.8404541-0.0806274,1.2608032-0.1200562c0.4413452-0.0414429,0.8827515-0.0824585,1.3237915-0.1260986  c0.8163452-0.0806885,1.6344604-0.1451416,2.4498291-0.2332764c0.0771484-0.0083618,0.1546021-0.0136719,0.2317505-0.0220947  c0.5976563-0.0620117,1.1171875,0.1547852,1.1621094,0.4892578l0.8433228,6.2547607l0.6537476,4.8487549  c0.0166016,0.1264648-0.0244141,0.2548828-0.1220703,0.3808594c-0.1158447,0.1485596-0.296814,0.2661133-0.5081787,0.3491211  c-0.1324463,0.052063-0.274231,0.0934448-0.4273682,0.1113281c-0.0211182,0.0024414-0.0422363,0.0039673-0.0633545,0.0064087  c-0.1661377,0.0192261-0.3331299,0.0316772-0.4993286,0.0505981c-0.3312988,0.0377197-0.6637573,0.0643311-0.9951782,0.100769  c-19.4310341,2.1372681-39.1051064,2.1381836-58.5369301,0c-0.3314209-0.036499-0.6639404-0.0631104-0.9952393-0.1008301  c-0.1660767-0.0189209-0.3330078-0.0313721-0.4990234-0.0505981c-0.0209351-0.0024414-0.0418701-0.0039063-0.0628052-0.0063477  c-0.1534424-0.0178833-0.2955322-0.0593872-0.4282227-0.1115112c-0.2114258-0.0830688-0.3925171-0.2006226-0.5083008-0.3494263  c-0.0976563-0.1254883-0.1381836-0.253418-0.1210938-0.3798828l0.7095337-5.2644653l0.7865601-5.8356323  C19.654171,19.4899902,20.0657921,19.282959,20.5701866,19.282959z M71.8486328,17.987854  c-14.7719154,1.2080688-29.6626625,1.1789551-44.4317055-0.0699463c5.267395-4.5512695,12.8213501-8.1769409,21.7372437-8.1769409  C57.8714561,9.7409668,66.0269775,13.369751,71.8486328,17.987854z M65.477417,44.2727051l0.2822266-3.1533203  c0.0644531-0.7182617-0.2558594-1.3901367-0.8574219-1.7973633c-0.6103516-0.4140625-1.4033241-0.4628906-2.0673866-0.1245117  l-2.6748047,1.3608398c-0.9345703,0.4750977-1.5478516,1.3701172-1.6396484,2.394043l-0.2752075,3.0765991l-1.7745972-3.1928101  c-0.1728516-0.3110352-0.4980469-0.5068359-0.8535156-0.5141602c-0.3417969,0.0126953-0.6884766,0.1757813-0.8740234,0.4794922  l-2.2451172,3.6801758c-0.7148438,1.1738281-0.6826172,2.6992188,0.0859375,4.0820313l1.5540771,2.7945557l-0.5276489,0.7731934  c-0.0958252-0.2650757-0.2064819-0.5288696-0.3496704-0.7874756l-2.1044922-3.8017578  c-0.1728516-0.3115234-0.4980469-0.5078125-0.8535156-0.515625c-0.0078125,0-0.0146484,0-0.0214844,0  c-0.3486328,0-0.671875,0.1816406-0.8535156,0.4794922l-2.5073242,4.1103516  c-0.7773438,1.2734375-0.7441406,2.9326172,0.0883789,4.4365234l1.7581177,3.1760254l-0.3286743,0.4815674  c-0.1121216-0.350647-0.253479-0.6998901-0.4416504-1.0413818l-2.3115234-4.1914063  c-0.171875-0.3115234-0.4970703-0.5087891-0.8535156-0.5166016c-0.3588867-0.0048828-0.6899414,0.1748047-0.8754883,0.4794922  l-2.7714844,4.5410156c-0.8383789,1.3740234-0.8041992,3.1650391,0.0913086,4.7900391c0,0,0.0004883,0,0.0004883,0.0009766  l1.9622192,3.557251l-0.5379639,0.7883911c-0.1239624-0.43573-0.3001709-0.8701172-0.5331421-1.2938843l-2.519043-4.5810547  c-0.171875-0.3125-0.4970703-0.5097656-0.8535156-0.5185547c-0.3886719-0.0185547-0.6904297,0.1738281-0.8764648,0.4785156  l-3.0356445,4.9726563c-0.9003906,1.4755859-0.8647461,3.3984375,0.0952148,5.1445313l2.1663208,3.9396362l-2.5369263,3.7175903  c-0.3110352,0.4560547-0.1938477,1.078125,0.2626953,1.3896484c0.1723633,0.1171875,0.3686523,0.1738281,0.5625,0.1738281  c0.3193359,0,0.6333008-0.1523438,0.8271484-0.4365234l2.5370483-3.7177124l4.4570923,0.5809937  c0.2797852,0.0371094,0.5561523,0.0546875,0.8271484,0.0546875c1.6445313,0,3.1015625-0.6591797,3.9990234-1.8408203  l3.5234375-4.6396484c0.2158203-0.2832031,0.2646484-0.6611328,0.1269531-0.9902344s-0.4404297-0.5595703-0.7939453-0.6054688  l-5.184082-0.6757813c-0.4790039-0.0639648-0.9473877-0.0704956-1.3981323-0.0275269l0.5365601-0.7861938l4.0280762,0.5305176  h0.0009766c0.2617188,0.0351563,0.5205078,0.0517578,0.7744141,0.0517578c1.5292969,0,2.8837891-0.6132813,3.71875-1.7119141  l3.21875-4.2373047c0.2158203-0.2832031,0.2646484-0.6601563,0.1269531-0.9892578  c-0.1367188-0.3291016-0.4384766-0.5605469-0.7919922-0.6064453l-4.7470703-0.625  c-0.3861084-0.050415-0.7625732-0.0546265-1.1296387-0.0311279l0.3289795-0.4820557l3.5985107,0.4790039  c0.2460938,0.0332031,0.4892578,0.0488281,0.7275391,0.0488281c1.4121094,0,2.6630859-0.5664063,3.4355469-1.5830078  l2.9130859-3.8330078c0.2158203-0.2841797,0.2646484-0.6611328,0.1269531-0.9892578  c-0.1367188-0.3291016-0.4375-0.5605469-0.7910156-0.6074219l-4.3066406-0.5742188  c-0.2931519-0.0386353-0.5792236-0.0452881-0.8609619-0.0377197l0.5281372-0.7738647l3.1687622,0.428772  c0.2285156,0.0302734,0.4541016,0.0458984,0.6757813,0.0458984c1.296875,0,2.4462891-0.5205078,3.1572266-1.4550781  l2.6084023-3.4306641c0.2158203-0.2832031,0.2636719-0.6601563,0.1279297-0.9882813  c-0.1367188-0.3291016-0.4375-0.5605469-0.7900391-0.6083984l-3.524601-0.4759521l2.6242065-1.3345947  C64.774292,46.1911621,65.3865967,45.2956543,65.477417,44.2727051z M59.2264366,52.9318848l-2.1669922-0.2929688  l1.5693359-2.0644531c0.3896484-0.5117188,1.1210938-0.7519531,1.9726563-0.6367188l2.1679688,0.2929688l-1.5693359,2.0634766  C60.8094444,52.8078613,60.0711632,53.0432129,59.2264366,52.9318848z M54.2059288,47.5222168l1.3505859-2.2138672l1.0625,1.9116211  c0.4140625,0.7451172,0.4609375,1.5185547,0.1259766,2.0693359l-1.3496094,2.2138672l-1.0634766-1.9121094  C53.9178429,48.8469238,53.8709679,48.072998,54.2059288,47.5222168z M62.9315147,44.8850098l-0.9127808,0.4732056  l-1.7883911,0.9271851l0.0083008-0.0928345l0.1826782-2.0418091l0.0912476-1.0196533  c0.0302734-0.3334961,0.2373047-0.6289063,0.5537109-0.7905273l0.9135742-0.4736328l0.9039307-0.4686279l0.883667-0.4581299  l-0.0813599,0.9094238l-0.1096191,1.2260132l-0.0912476,1.0198364  C63.4559288,44.4279785,63.2488976,44.7233887,62.9315147,44.8850098z M55.8592491,57.279541l2.6015625,0.3466797  l-1.8720703,2.4638672c-0.4628906,0.609375-1.3291016,0.8955078-2.3066406,0.7626953c-0.0009766,0-0.0009766,0-0.0009766,0  l-2.5953979-0.3458862l-0.0043945-0.0005493l0.0169678-0.0248413l0.0149536-0.0197144l1.8383789-2.4185791  C54.013546,57.4338379,54.8748741,57.1506348,55.8592491,57.279541z M48.6278038,54.6574707l1.6113281-2.6416016l1.2714844,2.296875  c0.4794922,0.8662109,0.5283203,1.7734375,0.1308594,2.4267578l-1.5811768,2.5921021l-0.0332642,0.0438232l-1.2683716-2.2911987  C48.2786827,56.217041,48.2298546,55.3098145,48.6278038,54.6574707z M49.1805382,69.005127l-3.0130005-0.3970337  l-0.0137939-0.0018311l0.1140137-0.1671143l0.0144653-0.019043l2.0360107-2.6796265  c0.5351563-0.7041016,1.5263672-1.0322266,2.640625-0.8886719l3.0390625,0.4003906l-2.1767578,2.8642578  C51.2860069,68.8195801,50.3006554,69.1496582,49.1805382,69.005127z M42.8914757,62.0227051l1.8740234-3.0703125  l1.4799805,2.6835938c0.5449219,0.9882813,0.5961914,2.0292969,0.1362305,2.7832031l-1.7485962,2.8648071l-0.1383667,0.1820679  l-1.4675293-2.6601563C42.482296,63.817627,42.4315147,62.7766113,42.8914757,62.0227051z M43.5125694,77.9855957  l-3.428772-0.4472656L40.06036,77.5352783l0.2084351-0.3054199l0.0169678-0.0223389l2.2336426-2.9406738  c0.6049805-0.7978516,1.7163086-1.1728516,2.9741211-1.0136719l3.4741211,0.453125l-2.4804688,3.265625  C45.8812218,77.7697754,44.7703819,78.1437988,43.5125694,77.9855957z M36.5897179,70.2180176l2.1367188-3.5l1.6879883,3.0693359  c0.6108398,1.1103516,0.6635742,2.2841797,0.1411133,3.1396484l-1.9245605,3.1525269l-0.2338867,0.3079224l-1.6662598-3.0297852  C36.1204796,72.2473145,36.0677452,71.0734863,36.5897179,70.2180176z"/><text x="0" y="115" fill="#000000" font-size="5px" font-weight="bold" font-family="'Helvetica Neue', Helvetica, Arial-Unicode, Arial, Sans-serif">Created by Llisole</text><text x="0" y="120" fill="#000000" font-size="5px" font-weight="bold" font-family="'Helvetica Neue', Helvetica, Arial-Unicode, Arial, Sans-serif">from the Noun Project</text></svg>