<svg xmlns="http://www.w3.org/2000/svg" data-name="Layer 1" viewBox="0 0 100 125" x="0px" y="0px"><title>icons_food_6</title><path d="M92.68,68.32a12.14,12.14,0,0,0-9.8-11.89V48.62A12.76,12.76,0,0,0,70.15,35.87v-.24a20.1,20.1,0,1,0-40.19,0v.24A12.76,12.76,0,0,0,17.23,48.62v7.81a12.14,12.14,0,0,0-9.8,11.89v8.21H2.09l-1,.09v1a8.9,8.9,0,0,0,8,8.84v3.92H91.68v-4A8.93,8.93,0,0,0,99,77.53v-1H92.68ZM32,35.63a18.1,18.1,0,1,1,36.19,0v.24H32ZM19.23,56.2V48.62A10.76,10.76,0,0,1,30,37.87H70.13A10.76,10.76,0,0,1,80.88,48.62V56.2H19.23ZM9.43,68.32A10.13,10.13,0,0,1,19.55,58.2h61A10.13,10.13,0,0,1,90.68,68.32v8.21H9.43ZM89.68,88.39H11.07V86.51H89.68ZM97,78.53a6.9,6.9,0,0,1-6.83,6H10a6.9,6.9,0,0,1-6.82-6H97Z"/><text x="0" y="115" fill="#000000" font-size="5px" font-weight="bold" font-family="'Helvetica Neue', Helvetica, Arial-Unicode, Arial, Sans-serif">Created by Iconic</text><text x="0" y="120" fill="#000000" font-size="5px" font-weight="bold" font-family="'Helvetica Neue', Helvetica, Arial-Unicode, Arial, Sans-serif">from the Noun Project</text></svg>