<svg xmlns="http://www.w3.org/2000/svg" xmlns:xlink="http://www.w3.org/1999/xlink" width="16" height="13" viewBox="0 0 16 13">
  <defs>
    <style>
      .cls-1 {
        fill: #909aa3;
        fill-rule: evenodd;
        filter: url(#filter);
      }
    </style>
    <filter id="filter" x="1223" y="17092" width="16" height="13" filterUnits="userSpaceOnUse">
      <feFlood result="flood" flood-color="#ac8670"/>
      <feComposite result="composite" operator="in" in2="SourceGraphic"/>
      <feBlend result="blend" in2="SourceGraphic"/>
    </filter>
  </defs>
  <path class="cls-1" d="M1239,17093.5a6.141,6.141,0,0,1-1.89.6,3.733,3.733,0,0,0,1.45-1.9,5.285,5.285,0,0,1-2.09.8,3.394,3.394,0,0,0-2.39-1,3.308,3.308,0,0,0-3.29,3.3,2.8,2.8,0,0,0,.09.7,9.122,9.122,0,0,1-6.77-3.4,3.151,3.151,0,0,0-.44,1.6,3.338,3.338,0,0,0,1.46,2.8,3.7,3.7,0,0,1-1.49-.4h0a3.253,3.253,0,0,0,2.64,3.2,2.534,2.534,0,0,1-.87.1h-0.62a3.414,3.414,0,0,0,3.07,2.3,7.109,7.109,0,0,1-4.08,1.4,2.1,2.1,0,0,1-.78-0.1,8.762,8.762,0,0,0,5.03,1.5,9.265,9.265,0,0,0,9.34-9.3c0-.2,0-0.3-0.01-0.5A5.343,5.343,0,0,0,1239,17093.5Z" transform="translate(-1223 -17092)"/>
</svg>
