<svg xmlns="http://www.w3.org/2000/svg" xmlns:xlink="http://www.w3.org/1999/xlink" width="17.03" height="17" viewBox="0 0 17.03 17">
  <defs>
    <style>
      .cls-1 {
        fill: #909aa3;
        fill-rule: evenodd;
        filter: url(#filter);
      }
    </style>
    <filter id="filter" x="1307" y="17090" width="17.03" height="17" filterUnits="userSpaceOnUse">
      <feFlood result="flood" flood-color="#ac8670"/>
      <feComposite result="composite" operator="in" in2="SourceGraphic"/>
      <feBlend result="blend" in2="SourceGraphic"/>
    </filter>
  </defs>
  <path class="cls-1" d="M1312.7,17090h3.71a5.921,5.921,0,0,1,1.89.1h0.8c0.42,0,.84.1,1.25,0.1a4.541,4.541,0,0,1,2.7,1.8c0.93,1.3.94,3.4,0.94,5.7v2.4a6.616,6.616,0,0,1-.03,1.2v0.8a12.262,12.262,0,0,1-.21,1.4,4.626,4.626,0,0,1-2.02,2.7c-1.27.8-3.33,0.8-5.39,0.8h-4.45c-0.45-.1-0.95-0.1-1.38-0.2a4.769,4.769,0,0,1-3.03-2.6,11.865,11.865,0,0,1-.44-2.1v-0.8a6.616,6.616,0,0,1-.03-1.2v-2.4a15.875,15.875,0,0,1,.3-4.4,4.654,4.654,0,0,1,3.34-3.1c0.41,0,.83-0.1,1.24-0.1C1312.14,17090,1312.52,17090.1,1312.7,17090Zm-0.1,1.6c-0.18.1-1.22,0-1.51,0.1a3.2,3.2,0,0,0-2.23,1.8,11.44,11.44,0,0,0-.3,3.7c0,2.9-.43,6.4,1.31,7.6,1.32,0.9,4.18.6,6.37,0.6,1.66,0,3.63.2,4.68-.5a2.488,2.488,0,0,0,1.15-1.2c0.6-1.4.37-4.5,0.37-6.5,0-1.8.01-3.4-.74-4.4a3.813,3.813,0,0,0-2.22-1.2h-1.08a12.817,12.817,0,0,0-1.96,0h-3.84Zm7.25,1.4a1.017,1.017,0,0,1,.37,2,1.05,1.05,0,0,1-1.18-1.3A1.152,1.152,0,0,1,1319.85,17093Zm-4.52,1.1a4.322,4.322,0,0,1,4.15,2.7,4.57,4.57,0,0,1,.1,3.3,4.334,4.334,0,0,1-2.87,2.6c-0.32.1-.69,0.1-1.04,0.2a5.256,5.256,0,0,1-1.92-.4,4.393,4.393,0,0,1-2.33-5.6,4.8,4.8,0,0,1,2.46-2.5,3.687,3.687,0,0,1,1.05-.2C1315.07,17094.1,1315.24,17094.2,1315.33,17094.1Zm-0.03,1.6c-0.2.1-.66,0.1-0.88,0.2a2.866,2.866,0,0,0-1.62,1.7,2.776,2.776,0,0,0,1.49,3.4,1.66,1.66,0,0,0,1.41.3A2.808,2.808,0,1,0,1315.3,17095.7Z" transform="translate(-1307 -17090)"/>
</svg>
